<?xml version="1.0" encoding="utf-8"?>
<!-- Generator: Adobe Illustrator 25.4.1, SVG Export Plug-In . SVG Version: 6.00 Build 0)  -->
<svg version="1.1" id="Ebene_1" xmlns="http://www.w3.org/2000/svg" x="0px" y="0px"
     viewBox="0 0 13.5003 24" style="enable-background:new 0 0 13.5003 24;" xml:space="preserve">
<path d="M12.7503,7.5c0.414,0,0.75-0.336,0.75-0.75V3c0-0.414-0.336-0.75-0.75-0.75h-12c-0.284,0-0.544,0.161-0.671,0.415
	s-0.1,0.558,0.071,0.785L6.5623,12l-6.412,8.55c-0.17,0.228-0.198,0.532-0.071,0.786s0.387,0.414,0.671,0.414h12
	c0.414,0,0.75-0.336,0.75-0.75v-3.75c0-0.414-0.336-0.75-0.75-0.75s-0.75,0.336-0.75,0.75v3h-9.75l5.85-7.8
	c0.2-0.267,0.2-0.633,0-0.9l-5.85-7.8h9.75v3C12.0003,7.164,12.3363,7.5,12.7503,7.5z"/>
</svg>
