<?xml version="1.0" encoding="utf-8"?>
<!-- Generator: Adobe Illustrator 25.4.1, SVG Export Plug-In . SVG Version: 6.00 Build 0)  -->
<svg version="1.1" id="Ebene_1" xmlns="http://www.w3.org/2000/svg" x="0px" y="0px"
     viewBox="0 0 23.5 24" style="enable-background:new 0 0 23.5 24;" xml:space="preserve">
<g>
	<path d="M12.484,15.711c-0.206-0.137-0.448-0.211-0.695-0.211c-0.331,0-0.65,0.132-0.884,0.366
		c-0.235,0.234-0.366,0.552-0.366,0.884c0,0.247,0.074,0.489,0.211,0.694c0.136,0.206,0.333,0.366,0.56,0.46
		c0.229,0.095,0.48,0.119,0.723,0.071c0.242-0.048,0.465-0.167,0.64-0.342s0.294-0.398,0.343-0.64
		c0.047-0.242,0.024-0.494-0.071-0.722C12.849,16.043,12.689,15.848,12.484,15.711z"/>
  <path d="M11.789,13.25c0.414,0,0.75-0.336,0.75-0.75V6c0-0.414-0.336-0.75-0.75-0.75s-0.75,0.336-0.75,0.75v6.5
		C11.039,12.914,11.375,13.25,11.789,13.25z"/>
  <path d="M11.75,0.25C5.271,0.25,0,5.521,0,12s5.271,11.75,11.75,11.75S23.5,18.479,23.5,12S18.229,0.25,11.75,0.25z M11.75,22.25
		C6.098,22.25,1.5,17.652,1.5,12S6.098,1.75,11.75,1.75S22,6.348,22,12S17.402,22.25,11.75,22.25z"/>
</g>
</svg>
