<?xml version="1.0" encoding="utf-8"?>
<!-- Generator: Adobe Illustrator 25.3.1, SVG Export Plug-In . SVG Version: 6.00 Build 0)  -->
<svg version="1.1" id="Layer_1" xmlns="http://www.w3.org/2000/svg" xmlns:xlink="http://www.w3.org/1999/xlink" x="0px" y="0px"
	 viewBox="0 0 23.8297 24" style="enable-background:new 0 0 23.8297 24;" xml:space="preserve">
<g>
	<rect y="0.2908" width="16.7085" height="1.5"/>
	<rect y="7.5931" width="16.7085" height="1.4995"/>
	<rect y="14.8958" width="9.8374" height="1.5"/>
	<rect y="22.1986" width="9.8374" height="1.501"/>
	<path d="M23.8267,4.6917c0.0869-2.3223-1.7275-4.2959-4.0498-4.4009l-0.165-0.0073v1.4976l0.1484,0.0098
		c1.4971,0.0962,2.6484,1.394,2.5664,2.9097c0.082,1.498-1.0693,2.7959-2.5664,2.8926l-0.1484,0.0098v1.4971l0.165-0.0073
		C22.0991,8.9876,23.9136,7.014,23.8267,4.6917z"/>
	<polygon points="19.3853,13.5237 17.8843,13.5237 17.8843,17.8655 13.5435,17.8655 13.5435,19.3665 17.8843,19.3665 
		17.8843,23.7093 19.3853,23.7093 19.3853,19.3665 23.728,19.3665 23.728,17.8655 19.3853,17.8655 	"/>
</g>
</svg>
