<?xml version="1.0" encoding="utf-8"?>
<!-- Generator: Adobe Illustrator 25.3.1, SVG Export Plug-In . SVG Version: 6.00 Build 0)  -->
<svg version="1.1" id="Layer_1" xmlns="http://www.w3.org/2000/svg" x="0px" y="0px"
     viewBox="0 0 19.8608 24" style="enable-background:new 0 0 19.8608 24;" xml:space="preserve">
<path d="M19.6401,6.4775L13.3916,0.23c-0.1421-0.1416-0.3306-0.2197-0.5308-0.2197H2.5479C1.1445,0.0117,0.0015,1.1548,0,2.5581
	v18.894C0.0015,22.8555,1.1445,23.999,2.5479,24H17.313c1.4023-0.001,2.5459-1.1445,2.5479-2.5479V7.0078
	C19.8608,6.8096,19.7798,6.6162,19.6401,6.4775z M11.1118,9.4375c0.1416,0.1426,0.3301,0.2207,0.5308,0.2207h6.7173v11.7939
	c0,0.5771-0.4697,1.0469-1.0469,1.0479H2.5479C1.9707,22.499,1.5005,22.0293,1.5,21.4521V2.5581
	C1.5005,1.981,1.9707,1.5107,2.5479,1.5103h8.3452v7.3979C10.8926,9.1084,10.9702,9.2959,11.1118,9.4375z M12.5503,1.5103
	l5.8096,5.8081v0.8398h-5.9673V1.5103H12.5503z"/>
</svg>
