<!-- Generated by IcoMoon.io -->
<svg version="1.1" xmlns="http://www.w3.org/2000/svg" width="28" height="28" viewBox="0 0 28 28">
<title>uE002-info</title>
<path fill="#000" d="M14 28c-7.719 0-14-6.28-14-14s6.281-14 14-14c7.719 0 14 6.281 14 14s-6.28 14-14 14zM14 2.241c-6.484 0-11.759 5.275-11.759 11.758s5.275 11.759 11.759 11.759c6.483 0 11.758-5.275 11.758-11.759s-5.274-11.758-11.758-11.758zM11.215 21.6l6.214 0.006 0.002-2.477-1.554-0.002 0.006-7.739-4.661-0.003-0.002 2.786 1.864 0.002-0.004 4.953-1.864-0.002-0.002 2.477zM15.939 7.233c0.001-1.195-0.971-2.165-2.17-2.166s-2.174 0.967-2.175 2.162c-0.001 1.196 0.972 2.165 2.171 2.166s2.173-0.968 2.174-2.163z"></path>
</svg>
