<!-- Generated by IcoMoon.io -->
<svg version="1.1" xmlns="http://www.w3.org/2000/svg" width="28" height="28" viewBox="0 0 28 28">
<title>uE008-ellipsis-circle</title>
<path d="M28 14c0 7.719-6.28 14-14 14s-14-6.281-14-14c0-7.719 6.281-14 14-14s14 6.28 14 14zM2.241 14c0 6.484 5.275 11.759 11.758 11.759s11.759-5.275 11.759-11.759c0-6.484-5.275-11.758-11.759-11.758s-11.758 5.274-11.758 11.758zM7.233 12.061c-1.195-0.001-2.165 0.971-2.166 2.17s0.967 2.174 2.162 2.175c1.196 0.001 2.165-0.972 2.166-2.172s-0.968-2.173-2.163-2.174zM14.002 12.059c-1.196-0.001-2.165 0.972-2.166 2.171s0.967 2.174 2.162 2.175c1.196 0.001 2.165-0.972 2.166-2.172 0.001-1.199-0.968-2.173-2.163-2.174zM21.162 12.059c-1.196-0.001-2.165 0.971-2.166 2.17s0.967 2.174 2.162 2.175c1.196 0.001 2.165-0.972 2.166-2.172s-0.968-2.173-2.163-2.174z"></path>
</svg>
