<?xml version="1.0" encoding="utf-8"?>
<!-- Generator: Adobe Illustrator 26.0.2, SVG Export Plug-In . SVG Version: 6.00 Build 0)  -->
<svg version="1.1" id="Ebene_1" xmlns="http://www.w3.org/2000/svg" x="0px" y="0px"
     viewBox="0 0 23.5 24" style="enable-background:new 0 0 23.5 24;" xml:space="preserve">
<g>
	<path d="M11.52,7.91C11.75,8,12,8.02,12.24,7.98c0.24-0.05,0.47-0.17,0.64-0.34s0.29-0.4,0.34-0.64c0.05-0.24,0.02-0.49-0.07-0.72
		S12.9,5.85,12.7,5.71C12.49,5.57,12.25,5.5,12,5.5c-0.33,0-0.65,0.13-0.88,0.37c-0.24,0.23-0.37,0.55-0.37,0.88
		c0,0.25,0.07,0.49,0.21,0.69C11.1,7.65,11.29,7.81,11.52,7.91z"/>
  <path d="M11.75,0.25C5.27,0.25,0,5.52,0,12s5.27,11.75,11.75,11.75S23.5,18.48,23.5,12S18.23,0.25,11.75,0.25z M11.75,22.25
		C6.1,22.25,1.5,17.65,1.5,12S6.1,1.75,11.75,1.75S22,6.35,22,12S17.4,22.25,11.75,22.25z"/>
  <path d="M15,16.75h-2.25V11c0-0.41-0.34-0.75-0.75-0.75H9c-0.41,0-0.75,0.34-0.75,0.75S8.59,11.75,9,11.75h2.25v5H9
		c-0.41,0-0.75,0.34-0.75,0.75S8.59,18.25,9,18.25h6c0.41,0,0.75-0.34,0.75-0.75S15.41,16.75,15,16.75z"/>
</g>
</svg>
