<!-- Generated by IcoMoon.io -->
<svg version="1.1" xmlns="http://www.w3.org/2000/svg" width="28" height="28" viewBox="0 0 28 28">
<title>uE026-avg</title>
<path d="M27.018 3.271l-1.857-1.921-4.069 3.935c-1.958-1.615-4.467-2.585-7.203-2.585-6.256 0-11.328 5.071-11.328 11.328 0 2.599 0.877 4.992 2.349 6.903l-3.928 3.798 1.857 1.921 3.938-3.807c1.944 1.571 4.417 2.513 7.112 2.513 6.256 0 11.327-5.071 11.327-11.327 0-2.557-0.848-4.916-2.278-6.812l4.080-3.945zM4.856 14.028c0-5.004 4.057-9.062 9.062-9.062 2.089 0 4.011 0.709 5.543 1.896l-12.892 12.465c-1.077-1.491-1.713-3.321-1.713-5.299zM22.979 14.028c0 5.005-4.058 9.062-9.062 9.062-2.061 0-3.961-0.689-5.484-1.849l12.876-12.45c1.050 1.479 1.67 3.285 1.67 5.238z"></path>
</svg>
