<?xml version="1.0" encoding="utf-8"?>
<!--
  - Copyright (c) 2010, 2023 BSI Business Systems Integration AG
  -
  - This program and the accompanying materials are made
  - available under the terms of the Eclipse Public License 2.0
  - which is available at https://www.eclipse.org/legal/epl-2.0/
  -
  - SPDX-License-Identifier: EPL-2.0
  -->

<!-- Generator: Adobe Illustrator 26.0.2, SVG Export Plug-In . SVG Version: 6.00 Build 0)  -->
<svg version="1.1" id="Ebene_1" xmlns="http://www.w3.org/2000/svg" x="0px" y="0px"
     viewBox="0 0 24 24" style="enable-background:new 0 0 24 24;" xml:space="preserve">
<path d="M21.26,3h-3.49V0.8c0-0.5-0.4-0.8-0.8-0.8c-0.4,0-0.8,0.3-0.8,0.8V3H7.72V0.8c0-0.5-0.3-0.8-0.7-0.8c-0.4,0-0.8,0.3-0.8,0.8
	V3H2.84C1.34,3,0.05,4.2,0.05,5.8v15.5c0,1.5,1.29,2.7,2.79,2.7h18.42c1.49,0,2.79-1.2,2.79-2.8V5.8C23.95,4.2,22.76,3,21.26,3z
	 M2.84,4.5h3.39v1.8c0,0.4,0.4,0.7,0.8,0.7c0.4,0,0.8-0.3,0.8-0.8V4.5h8.46v1.8c0,0.4,0.3,0.7,0.7,0.7c0.4,0,0.8-0.3,0.8-0.8V4.5
	h3.49c0.7,0,1.29,0.6,1.29,1.2v3.8H1.64V5.8C1.54,5.1,2.14,4.5,2.84,4.5z M21.26,22.5H2.84c-0.7,0-1.29-0.6-1.29-1.3V11h20.91v10.2
	C22.46,21.9,21.86,22.5,21.26,22.5z"/>
</svg>
