<?xml version="1.0" encoding="utf-8"?>
<!--
  - Copyright (c) 2010, 2023 BSI Business Systems Integration AG
  -
  - This program and the accompanying materials are made
  - available under the terms of the Eclipse Public License 2.0
  - which is available at https://www.eclipse.org/legal/epl-2.0/
  -
  - SPDX-License-Identifier: EPL-2.0
  -->

<!-- Generator: Adobe Illustrator 25.3.1, SVG Export Plug-In . SVG Version: 6.00 Build 0)  -->
<svg version="1.1" id="Layer_1" xmlns="http://www.w3.org/2000/svg" xmlns:xlink="http://www.w3.org/1999/xlink" x="0px" y="0px"
	 viewBox="0 0 21.0398 24" style="enable-background:new 0 0 21.0398 24;" xml:space="preserve">
<path d="M21.0349,9.7425c0.0469-0.4102-0.25-0.7832-0.6611-0.8301l-6.6235-0.748l-2.5366-6.2192
	c-0.0757-0.1855-0.2256-0.3354-0.4111-0.4106c-0.3823-0.1577-0.8213,0.0273-0.9775,0.4106L7.2888,8.1644l-6.623,0.748
	C0.4822,8.9339,0.3132,9.0208,0.1907,9.1585C0.0569,9.3089-0.01,9.5013,0.0012,9.7015c0.0117,0.2002,0.1001,0.3838,0.25,0.5176
	l5.0088,4.46l-1.563,6.833c-0.0444,0.1943-0.0112,0.3936,0.0933,0.5625c0.106,0.1699,0.2715,0.2891,0.4663,0.335
	c0.0576,0.0137,0.1152,0.0195,0.1724,0.0195c0.1382,0,0.2739-0.0381,0.394-0.1133l5.6963-3.5322l5.6963,3.5322
	c0.1611,0.1025,0.3765,0.1328,0.5415,0.0996c0.1963-0.0391,0.3662-0.1523,0.4775-0.3184c0.1118-0.167,0.1519-0.3662,0.1128-0.5625
	l-1.3545-6.8564l4.8076-4.4707C20.9314,10.0853,21.0144,9.9202,21.0349,9.7425z M6.821,14.5804
	c0.0615-0.2666-0.0273-0.5449-0.2319-0.7275l-4.0859-3.6377l5.397-0.6104c0.272-0.0312,0.5054-0.208,0.6094-0.4619l2.0098-4.9282
	l2.0103,4.9282c0.104,0.2539,0.3379,0.4307,0.6104,0.4619l5.4443,0.6152l-3.9185,3.6445c-0.1914,0.1777-0.2754,0.4375-0.2251,0.6943
	l1.1011,5.5742l-4.6265-2.8691c-0.1182-0.0742-0.2549-0.1133-0.396-0.1133c-0.1406,0-0.2773,0.0391-0.395,0.1133l-4.5649,2.8301
	L6.821,14.5804z"/>
</svg>
