<?xml version="1.0" encoding="utf-8"?>
<!-- Generator: Adobe Illustrator 26.0.2, SVG Export Plug-In . SVG Version: 6.00 Build 0)  -->
<svg version="1.1" id="Ebene_1" xmlns="http://www.w3.org/2000/svg" x="0px" y="0px"
     viewBox="0 0 23.08 24" style="enable-background:new 0 0 23.08 24;" xml:space="preserve">
<path d="M0.75,23.54c-0.2,0-0.39-0.08-0.53-0.22c-0.19-0.19-0.26-0.46-0.2-0.72l1.77-6.91c0.01-0.02,0.02-0.06,0.03-0.08
	c0,0,0.01-0.02,0.01-0.04c0.04-0.09,0.09-0.16,0.15-0.22l13.6-13.6c0.82-0.83,1.92-1.29,3.1-1.29l0,0c1.18,0,2.28,0.45,3.11,1.28
	l0.03,0.03c0.82,0.84,1.26,1.95,1.25,3.12c-0.01,1.17-0.48,2.27-1.32,3.09L8.18,21.55c-0.06,0.06-0.14,0.11-0.23,0.15
	c-0.05,0.02-0.08,0.03-0.11,0.04l-6.91,1.77C0.87,23.53,0.81,23.54,0.75,23.54z M1.79,21.75l4.41-1.13l-3.28-3.27L1.79,21.75z
	 M7.66,19.95L19.99,7.62l-4.07-4.07L3.58,15.88L7.66,19.95z M21.05,6.56c1.03-1.12,0.78-2.64-0.29-3.74L20.74,2.8
	c-0.54-0.54-1.27-0.84-2.04-0.84V1.59l0,0.38c-0.73,0-1.19,0.04-1.72,0.53L21.05,6.56z"/>
</svg>
