<?xml version="1.0" encoding="utf-8"?>
<!--
  - Copyright (c) 2010, 2023 BSI Business Systems Integration AG
  -
  - This program and the accompanying materials are made
  - available under the terms of the Eclipse Public License 2.0
  - which is available at https://www.eclipse.org/legal/epl-2.0/
  -
  - SPDX-License-Identifier: EPL-2.0
  -->

<!-- Generator: Adobe Illustrator 25.3.1, SVG Export Plug-In . SVG Version: 6.00 Build 0)  -->
<svg version="1.1" id="Layer_1" xmlns="http://www.w3.org/2000/svg" xmlns:xlink="http://www.w3.org/1999/xlink" x="0px" y="0px"
	 viewBox="0 0 21.0143 24" style="enable-background:new 0 0 21.0143 24;" xml:space="preserve">
<g>
	<path d="M21.0099,9.6927c0.0205-0.1836-0.0312-0.3643-0.1465-0.5088c-0.1152-0.1455-0.2803-0.2363-0.4639-0.2578l-6.6895-0.7588
		l-2.5605-6.3105c-0.1069-0.2622-0.3589-0.4316-0.6421-0.4316S9.9723,1.5945,9.8653,1.8568l-2.561,6.3105L0.6149,8.9261
		c-0.1689,0.0195-0.3242,0.0996-0.438,0.2266c-0.1235,0.1377-0.186,0.3154-0.1758,0.501c0.0103,0.1846,0.0918,0.3545,0.2295,0.4775
		l5.061,4.5264L3.712,21.5911c-0.0405,0.1777-0.0083,0.3672,0.0874,0.5195c0.0977,0.1572,0.2505,0.2666,0.4307,0.3086
		c0.0522,0.0127,0.1055,0.0186,0.1582,0.0186c0.1279,0,0.2539-0.0361,0.3652-0.1055l5.7539-3.584l5.7529,3.584
		c0.1504,0.0938,0.3452,0.123,0.498,0.0928c0.375-0.0732,0.6211-0.4385,0.5483-0.8135l-1.3672-6.9541l4.8555-4.5361
		C20.9161,10.0081,20.9923,9.8558,21.0099,9.6927z M6.7335,14.5677c0.0557-0.2461-0.0259-0.5029-0.2134-0.6709l-4.2139-3.7676
		l5.5625-0.6318c0.2524-0.0283,0.4688-0.1924,0.564-0.4277l2.0747-5.1104l2.0737,5.1104c0.0962,0.2354,0.3125,0.3994,0.564,0.4277
		l5.6069,0.6367l-4.0391,3.7734c-0.1768,0.1641-0.2539,0.4033-0.2075,0.6396l1.1343,5.7666l-4.7661-2.9697
		c-0.1099-0.0684-0.2363-0.1045-0.3662-0.1045s-0.2563,0.0361-0.3662,0.1045l-4.709,2.9346L6.7335,14.5677z"/>
	<path d="M12.8028,12.6243c0.2905-0.248,0.3257-0.6855,0.0776-0.9766c-0.2476-0.29-0.6865-0.3252-0.9766-0.0781l-1.9482,1.6631
		l-0.4849-0.415l-0.0303-0.0596H9.3971c-0.1318-0.0947-0.2915-0.1426-0.4551-0.126c-0.1846,0.0137-0.3525,0.0996-0.4731,0.2402
		c-0.248,0.291-0.2134,0.7295,0.0767,0.9766l0.959,0.8223c0.1211,0.1016,0.2734,0.1572,0.4307,0.1572
		c0.1704-0.0088,0.3511-0.0605,0.4863-0.1748L12.8028,12.6243z"/>
</g>
</svg>
