<?xml version="1.0" encoding="utf-8"?>
<!-- Generator: Adobe Illustrator 26.0.2, SVG Export Plug-In . SVG Version: 6.00 Build 0)  -->
<svg version="1.1" id="Layer_1" xmlns="http://www.w3.org/2000/svg" x="0px" y="0px"
     viewBox="0 0 22.99 24" style="enable-background:new 0 0 22.99 24;" xml:space="preserve">
<path d="M22.77,22.2l-6.13-6.14l0.28-0.37c1.28-1.67,1.95-3.66,1.95-5.75c0-5.21-4.23-9.44-9.43-9.44C4.23,0.5,0,4.73,0,9.94
	s4.23,9.44,9.43,9.44c2.08,0,4.07-0.67,5.74-1.95l0.37-0.28l6.13,6.13c0.13,0.13,0.34,0.22,0.53,0.22c0.19,0,0.4-0.09,0.53-0.22
	c0.16-0.15,0.25-0.35,0.25-0.55C22.99,22.53,22.91,22.34,22.77,22.2z M17.35,9.94c0,4.36-3.55,7.92-7.91,7.92s-7.91-3.55-7.91-7.92
	c0-4.37,3.55-7.92,7.91-7.92S17.35,5.58,17.35,9.94z"/>
</svg>
