<?xml version="1.0" encoding="utf-8"?>
<!-- Generator: Adobe Illustrator 25.3.1, SVG Export Plug-In . SVG Version: 6.00 Build 0)  -->
<svg version="1.1" id="Layer_1" xmlns="http://www.w3.org/2000/svg" xmlns:xlink="http://www.w3.org/1999/xlink" x="0px" y="0px"
	 viewBox="0 0 22.7315 24" style="enable-background:new 0 0 22.7315 24;" xml:space="preserve">
<g>
	<path d="M13.2998,0.7879h-0.751v10.1812h10.1826v-0.75C22.7256,5.0242,18.4941,0.7938,13.2998,0.7879z M21.1953,9.4695h-7.1455
		V2.3231C17.8633,2.6868,20.8311,5.6546,21.1953,9.4695z"/>
	<path d="M10.1914,4.6463h-0.771c-2.5195,0.0029-4.8867,0.9863-6.666,2.77C0.9751,9.1995-0.0029,11.5687,0,14.0877
		s0.9863,4.8862,2.77,6.6655c1.7803,1.7764,4.1455,2.7549,6.6606,2.7549c0.0034,0,0.0073,0,0.0107,0
		c5.1943-0.0059,9.4258-4.2363,9.4316-9.4312v-0.7495h-8.6816V4.6463z M17.3369,14.827c-0.3633,3.8149-3.4785,6.8784-7.3145,7.1597
		c-4.3667,0.3154-8.1704-2.9668-8.4902-7.3291C1.377,12.5447,2.0537,10.4979,3.438,8.8944c1.3472-1.5605,3.2075-2.52,5.2539-2.7129
		v8.6455H17.3369z"/>
</g>
</svg>
