<?xml version="1.0" encoding="utf-8"?>
<!--
  - Copyright (c) 2010, 2023 BSI Business Systems Integration AG
  -
  - This program and the accompanying materials are made
  - available under the terms of the Eclipse Public License 2.0
  - which is available at https://www.eclipse.org/legal/epl-2.0/
  -
  - SPDX-License-Identifier: EPL-2.0
  -->

<!-- Generator: Adobe Illustrator 25.3.1, SVG Export Plug-In . SVG Version: 6.00 Build 0)  -->
<svg version="1.1" id="Layer_1" xmlns="http://www.w3.org/2000/svg" xmlns:xlink="http://www.w3.org/1999/xlink" x="0px" y="0px"
	 viewBox="0 0 23.8125 24" style="enable-background:new 0 0 23.8125 24;" xml:space="preserve">
<g>
	<path d="M11.9043,0.0843c-3.1802,0-6.1694,1.2388-8.4185,3.4878C1.2373,5.8211-0.0005,8.8113,0,11.9915
		c0,3.1807,1.2388,6.1699,3.4878,8.4189c2.2485,2.248,5.2378,3.4863,8.4175,3.4863c0.001,0,0.001,0,0.002,0
		c6.5645,0,11.9053-5.3408,11.9053-11.9063C23.8057,5.4315,18.4639,0.0906,11.9043,0.0843z M22.3115,11.9905
		c-0.0059,5.7324-4.6748,10.4004-10.4072,10.4063C6.167,22.3958,1.499,17.7269,1.4995,11.9896
		C1.5,6.2513,6.1689,1.5833,11.9072,1.5838C17.6445,1.5848,22.3115,6.2532,22.3115,11.9905z"/>
	<path d="M11.9043,5.1229c-3.7866,0.0005-6.8672,3.0815-6.8672,6.8687c0.0005,3.7871,3.082,6.8682,6.8691,6.8682
		c1.835,0,3.5596-0.7148,4.8564-2.0127c1.2969-1.2969,2.0107-3.022,2.0107-4.8564C18.7695,8.2073,15.6875,5.1268,11.9043,5.1229z
		 M17.2734,11.9905c-0.0029,2.957-2.4111,5.3652-5.3691,5.3682c-1.4336,0-2.7817-0.5586-3.7954-1.5723
		c-1.0137-1.0142-1.5718-2.3618-1.5718-3.7959s0.5586-2.7822,1.5728-3.7959c1.0137-1.0137,2.3618-1.5718,3.7954-1.5718h0.001
		C14.8662,6.6229,17.2734,9.0311,17.2734,11.9905z"/>
	<path d="M11.9053,9.8841c-0.5625,0-1.0923,0.2188-1.4897,0.6167c-0.3979,0.3984-0.6172,0.9272-0.6167,1.4902
		c0,1.1616,0.9448,2.1064,2.1064,2.1064c1.1621,0,2.1074-0.9448,2.1074-2.1074C14.0088,10.8319,13.0645,9.887,11.9053,9.8841z"/>
</g>
</svg>
