<?xml version="1.0" encoding="utf-8"?>
<!--
  - Copyright (c) 2010, 2023 BSI Business Systems Integration AG
  -
  - This program and the accompanying materials are made
  - available under the terms of the Eclipse Public License 2.0
  - which is available at https://www.eclipse.org/legal/epl-2.0/
  -
  - SPDX-License-Identifier: EPL-2.0
  -->

<!-- Generator: Adobe Illustrator 25.3.1, SVG Export Plug-In . SVG Version: 6.00 Build 0)  -->
<svg version="1.1" id="Layer_1" xmlns="http://www.w3.org/2000/svg" xmlns:xlink="http://www.w3.org/1999/xlink" x="0px" y="0px"
	 viewBox="0 0 22.7139 24" style="enable-background:new 0 0 22.7139 24;" xml:space="preserve">
<path d="M11.4199,0.6444l-0.0645-0.0029C5.0923,0.6429-0.0015,5.7391,0,12.0023c0.0015,6.2607,5.0952,11.3555,11.3633,11.3555
	l0.0488-0.002c6.2246-0.0371,11.2949-5.1309,11.3018-11.3555C22.707,5.7752,17.6367,0.681,11.4199,0.6444z M12.1064,11.2503V2.2874
	c2.0049,0.7593,3.5918,4.5244,3.7559,8.9629H12.1064z M21.1729,12.7498c-0.292,3.813-2.7178,7.0649-6.2637,8.439
	c1.6504-2.5176,2.498-5.4209,2.4609-8.439H21.1729z M21.1729,11.2503h-3.8027c0.0371-3.0181-0.8105-5.9219-2.4609-8.4385
	C18.4551,4.1849,20.8809,7.4378,21.1729,11.2503z M15.8623,12.7498c-0.1641,4.439-1.751,8.2036-3.7559,8.9624v-8.9624H15.8623z
	 M10.6055,12.7498v8.9399c-1.9785-0.8057-3.5435-4.5586-3.7046-8.9399H10.6055z M1.5386,11.2503
	c0.2925-3.8281,2.7236-7.0791,6.2827-8.4487c-1.415,1.9497-2.3081,5.0464-2.4204,8.4487H1.5386z M7.8213,21.1986
	c-3.5591-1.3691-5.9897-4.6211-6.2827-8.4487h3.8623C5.5132,16.1527,6.4058,19.2493,7.8213,21.1986z M6.9009,11.2503
	C7.062,6.8694,8.627,3.116,10.6055,2.3099v8.9404H6.9009z"/>
</svg>
