<?xml version="1.0" encoding="utf-8"?>
<!--
  - Copyright (c) 2010, 2023 BSI Business Systems Integration AG
  -
  - This program and the accompanying materials are made
  - available under the terms of the Eclipse Public License 2.0
  - which is available at https://www.eclipse.org/legal/epl-2.0/
  -
  - SPDX-License-Identifier: EPL-2.0
  -->

<!-- Generator: Adobe Illustrator 25.4.1, SVG Export Plug-In . SVG Version: 6.00 Build 0)  -->
<svg version="1.1" id="Ebene_1" xmlns="http://www.w3.org/2000/svg" x="0px" y="0px"
     viewBox="0 0 19.9395 24" style="enable-background:new 0 0 19.9395 24;" xml:space="preserve">
<path d="M19.7197,2.25c-0.293-0.293-0.768-0.293-1.061,0l-3.404,3.404c-1.461-1.315-3.388-2.124-5.505-2.124
	c-4.549,0-8.25,3.701-8.25,8.25c0,2.117,0.808,4.043,2.123,5.505l-3.403,3.404c-0.293,0.293-0.293,0.768,0,1.061
	c0.146,0.146,0.338,0.22,0.53,0.22s0.384-0.073,0.53-0.22l3.443-3.443c1.394,1.076,3.134,1.723,5.027,1.723
	c4.549,0,8.25-3.701,8.25-8.25c0-1.893-0.647-3.633-1.723-5.027l3.443-3.443C20.0127,3.018,20.0127,2.543,19.7197,2.25z
	 M2.9998,11.78c0-3.722,3.028-6.75,6.75-6.75c1.703,0,3.257,0.639,4.445,1.683l-9.512,9.512
	C3.6388,15.037,2.9998,13.484,2.9998,11.78z M16.4998,11.78c0,3.722-3.028,6.75-6.75,6.75c-1.479,0-2.844-0.484-3.957-1.293
	l9.414-9.414C16.0168,8.937,16.4998,10.301,16.4998,11.78z"/>
</svg>
