<?xml version="1.0" encoding="utf-8"?>
<!--
  - Copyright (c) 2010, 2023 BSI Business Systems Integration AG
  -
  - This program and the accompanying materials are made
  - available under the terms of the Eclipse Public License 2.0
  - which is available at https://www.eclipse.org/legal/epl-2.0/
  -
  - SPDX-License-Identifier: EPL-2.0
  -->

<!-- Generator: Adobe Illustrator 25.3.1, SVG Export Plug-In . SVG Version: 6.00 Build 0)  -->
<svg version="1.1" id="Layer_1" xmlns="http://www.w3.org/2000/svg" xmlns:xlink="http://www.w3.org/1999/xlink" x="0px" y="0px"
	 viewBox="0 0 21.4934 24" style="enable-background:new 0 0 21.4934 24;" xml:space="preserve">
<g>
	<path d="M10.6983,7.6566c-0.0215,0-0.043,0-0.0645,0.0005c-1.1011,0.0166-2.1294,0.4614-2.896,1.252
		c-0.7661,0.7905-1.1787,1.832-1.1616,2.9277l-0.0005,0.0889c0.0078,2.2607,1.8491,4.0942,4.1069,4.0942c0.0049,0,0.0098,0,0.0146,0
		l0.1084-0.001c1.0967-0.0254,2.1182-0.4756,2.876-1.2681c0.7578-0.793,1.1611-1.8335,1.1367-2.9219
		c0.001-0.0391,0.001-0.0786,0-0.1157C14.7833,9.4627,12.9415,7.6566,10.6983,7.6566z M13.3185,11.8445
		c0.0215,0.6982-0.2471,1.3853-0.7363,1.8853c-0.5029,0.5142-1.207,0.7925-1.9258,0.7896
		c-0.7021-0.0132-1.3574-0.2988-1.8442-0.8042c-0.4873-0.5054-0.7485-1.1704-0.7358-1.8809l-0.001-0.0537
		c0-1.4458,1.1763-2.6221,2.6221-2.6221l0.0635,0.001C12.2032,9.1922,13.3507,10.3929,13.3185,11.8445z"/>
	<path d="M20.5997,13.4031l-1.332-1.1772c0.001-0.1025,0.002-0.2173,0.002-0.3867l-0.002-0.2959l1.3887-1.0186
		c0.8418-0.5991,1.0869-1.7646,0.5596-2.6519l-1.9951-3.4312l-0.0801-0.1191c-0.5312-0.813-1.5889-1.1001-2.46-0.6709
		l-1.4482,0.7212c-0.1396-0.0869-0.2881-0.1724-0.4424-0.2559l-0.1348-1.6001c-0.0078-0.4868-0.2041-0.9429-0.5518-1.2827
		c-0.3613-0.3677-0.8447-0.5732-1.3613-0.5791H8.8619C7.8507,0.6639,7.0309,1.4315,6.9547,2.4329l-0.209,1.7432
		c-0.1802,0.0996-0.355,0.2075-0.5229,0.3218L4.6993,3.8123L4.527,3.7552c-0.9053-0.2949-1.8911,0.1304-2.2915,0.978l-1.9131,3.292
		c-0.5684,0.896-0.3418,2.0869,0.5156,2.7104l1.3936,1.022c-0.001,0.0801-0.001,0.1733-0.001,0.2959
		c0,0.1089,0.0005,0.2065,0.0015,0.2959L0.8404,13.369c-0.853,0.6108-1.0913,1.7515-0.5547,2.6519l1.9941,3.4307l0.0771,0.1143
		c0.5229,0.8145,1.5737,1.1113,2.438,0.6875l1.4375-0.6484c0.1519,0.0957,0.3091,0.1875,0.4766,0.2773l0.1357,1.5996
		c0.0073,0.4893,0.2041,0.9453,0.5518,1.2842c0.3618,0.3672,0.8442,0.5732,1.3613,0.5801h3.8799
		c1.04-0.0098,1.8799-0.832,1.9121-1.8623l0.1328-1.5713c0.1689-0.0957,0.333-0.1973,0.4893-0.3037l1.5244,0.6846l0.1748,0.0596
		c0.9043,0.2891,1.8887-0.1338,2.2891-0.9795l1.9111-3.292C21.6319,15.2044,21.421,14.0242,20.5997,13.4031z M17.3263,18.9261
		l-2.2461-1l-0.083-0.0361l-0.5596,0.4023c-0.2441,0.1777-0.5059,0.333-0.7764,0.459l-0.4014,0.1807l-0.208,2.4814
		c-0.0088,0.2334-0.1914,0.4189-0.415,0.4316h-3.874c-0.1138-0.0029-0.2202-0.0508-0.3042-0.1387
		c-0.0747-0.0723-0.1162-0.1689-0.1172-0.2852l-0.2085-2.5078l-0.3872-0.1855c-0.3511-0.167-0.6914-0.3652-1.0117-0.5898
		l-0.3501-0.2471l-2.229,1.0059c-0.2192,0.0908-0.4673,0.0039-0.582-0.208L1.5802,15.262
		c-0.1382-0.2324-0.0713-0.5347,0.1567-0.6904l2.0254-1.4854l-0.022-0.4038c-0.0078-0.1626-0.0103-0.3555-0.0103-0.6289
		c0-0.2417,0.0015-0.3564,0.0068-0.5088l0.0264-0.5244L1.7335,9.5325C1.5079,9.3699,1.4464,9.0574,1.5963,8.8167L3.586,5.3734
		c0.0815-0.2168,0.4009-0.2085,0.4854-0.1914l2.3247,1.0396l0.5605-0.4072c0.249-0.1812,0.5156-0.3374,0.7915-0.4644l0.3882-0.1729
		l0.3105-2.6099c0.02-0.2222,0.2026-0.3999,0.4165-0.4126h3.874c0.1143,0.0039,0.2217,0.0518,0.3047,0.1392
		c0.0732,0.0713,0.1152,0.1704,0.1162,0.2856l0.208,2.5063l0.3877,0.1865c0.3467,0.165,0.6816,0.3594,0.9961,0.5776l0.3652,0.2568
		l2.2324-1.1118c0.2158-0.0938,0.4668-0.0044,0.5791,0.209L19.92,8.6302c0.1387,0.2334,0.0713,0.5347-0.1582,0.6899l-2.0244,1.4858
		l0.0225,0.4033c0.0068,0.1626,0.0098,0.354,0.0098,0.6299c0,0.2461-0.001,0.3643-0.0059,0.5093l-0.0322,0.5234l1.8926,1.6714
		l0.0381,0.0308c0.2246,0.1631,0.2861,0.4751,0.1367,0.7153l-1.9883,3.4434C17.7325,18.9398,17.422,18.9427,17.3263,18.9261z"/>
</g>
</svg>
