<?xml version="1.0" encoding="utf-8"?>
<!--
  - Copyright (c) 2010, 2023 BSI Business Systems Integration AG
  -
  - This program and the accompanying materials are made
  - available under the terms of the Eclipse Public License 2.0
  - which is available at https://www.eclipse.org/legal/epl-2.0/
  -
  - SPDX-License-Identifier: EPL-2.0
  -->

<!-- Generator: Adobe Illustrator 25.3.1, SVG Export Plug-In . SVG Version: 6.00 Build 0)  -->
<svg version="1.1" id="Layer_1" xmlns="http://www.w3.org/2000/svg" xmlns:xlink="http://www.w3.org/1999/xlink" x="0px" y="0px"
	 viewBox="0 0 21.2458 24" style="enable-background:new 0 0 21.2458 24;" xml:space="preserve">
<g>
	<path d="M10.6247,10.3942c-0.9033,0-1.6382,0.7354-1.6382,1.6387s0.7349,1.6387,1.6382,1.6387s1.6377-0.7354,1.6377-1.6387
		S11.528,10.3942,10.6247,10.3942z"/>
	<path d="M10.6247,7.7496c0.9033,0,1.6377-0.7344,1.6377-1.6377s-0.7344-1.6387-1.6377-1.6387S8.9865,5.2086,8.9865,6.1119
		S9.7214,7.7496,10.6247,7.7496z"/>
	<path d="M10.6247,16.3151c-0.9033,0-1.6382,0.7354-1.6382,1.6387s0.7349,1.6387,1.6382,1.6387s1.6377-0.7354,1.6377-1.6387
		S11.528,16.3151,10.6247,16.3151z"/>
</g>
</svg>
