<?xml version="1.0" encoding="utf-8"?>
<svg version="1.1" id="Regular" xmlns="http://www.w3.org/2000/svg" x="0px" y="0px"
     viewBox="0 0 24 24" style="enable-background:new 0 0 24 24;" xml:space="preserve">
<g>
	<path d="M16.6,8.2c0.9,0,1.8-0.4,2.4-1s1-1.5,1-2.4S19.6,3,19,2.4c-1.3-1.3-3.5-1.3-4.8,0c-0.6,0.6-1,1.5-1,2.4s0.4,1.8,1,2.4
		C14.9,7.8,15.7,8.2,16.6,8.2z M15.3,3.4c0.3-0.3,0.8-0.5,1.3-0.5s1,0.2,1.3,0.6c0.4,0.4,0.6,0.8,0.6,1.3s-0.2,1-0.6,1.3
		c-0.7,0.7-2,0.7-2.7,0c-0.4-0.4-0.6-0.8-0.6-1.3C14.7,4.3,14.9,3.8,15.3,3.4z"/>
  <path d="M23.9,14.9l-0.3-0.5c-0.8-1.2-1.8-2.2-3-3s-2.5-1.3-3.9-1.5c-2.3-0.4-4.3-1.6-5.7-3.4L9.3,4.3C9,4,8.6,3.9,8.2,4.2
		c-0.3,0.2-0.4,0.7-0.1,1l1.6,2.2c1.3,1.7,3,2.9,5,3.6l-1.9,3.3c-1.3-0.5-2.8-0.7-4.3-0.5c-1.7,0.3-3.2,1.1-4.4,2.4
		c-0.3,0.3-0.3,0.8,0,1.1c0.1,0.1,0.3,0.2,0.5,0.2s0.4-0.1,0.5-0.2c0.9-1,2.2-1.7,3.6-1.9c1.1-0.2,2.2-0.1,3.3,0.3l-2.7,4.7
		c-0.2,0.4-0.1,0.8,0.3,1c0.1,0.1,0.2,0.1,0.4,0.1c0.3,0,0.5-0.1,0.6-0.4l5.6-9.6h0.1c1.2,0.2,2.3,0.6,3.4,1.3
		c1,0.7,1.9,1.5,2.6,2.5l0.3,0.5c0.1,0.2,0.4,0.3,0.6,0.3c0.1,0,0.3,0,0.4-0.1C24,15.7,24.1,15.3,23.9,14.9z"/>
  <path d="M4.7,21.2h-4c-0.4,0-0.7,0.3-0.7,0.7s0.3,0.7,0.7,0.7h4c0.4,0,0.7-0.3,0.7-0.7S5.1,21.2,4.7,21.2z"/>
</g>
</svg>
