<?xml version="1.0" encoding="utf-8"?>
<!-- Generator: Adobe Illustrator 25.4.1, SVG Export Plug-In . SVG Version: 6.00 Build 0)  -->
<svg version="1.1" id="Ebene_1" xmlns="http://www.w3.org/2000/svg" x="0px" y="0px"
     viewBox="0 0 16.333 24" style="enable-background:new 0 0 16.333 24;" xml:space="preserve">
<g>
	<path d="M14.268,6.251c0.085-0.554-0.05-1.108-0.382-1.56s-0.819-0.748-1.374-0.833c-0.11-0.017-0.216-0.018-0.326-0.024H4.152
		c-0.004,0-0.008,0-0.013,0c-0.556,0-1.079,0.215-1.475,0.606c-0.398,0.394-0.62,0.919-0.623,1.479c0,0.111,0.008,0.222,0.025,0.331
		c0,0.005,0.001,0.01,0.002,0.015c0.453,2.615,1.87,4.53,4.19,5.736c-2.319,1.207-3.737,3.123-4.192,5.75
		c-0.017,0.109-0.025,0.22-0.024,0.33c0.003,0.561,0.224,1.086,0.623,1.48c0.398,0.394,0.899,0.594,1.485,0.606h8.031
		c0.005,0,0.01,0,0.014,0c0.106,0,0.211-0.008,0.316-0.024c0.554-0.084,1.042-0.38,1.374-0.832c0.332-0.452,0.468-1.006,0.38-1.574
		c-0.453-2.615-1.87-4.53-4.19-5.736C12.395,10.794,13.813,8.878,14.268,6.251z M12.786,17.978c0.024,0.158-0.015,0.315-0.109,0.444
		s-0.234,0.213-0.49,0.244h-8.04c-0.003,0-0.006,0-0.008,0c-0.159,0-0.308-0.061-0.42-0.173c-0.113-0.112-0.176-0.262-0.173-0.501
		c0.446-2.571,1.958-4.274,4.621-5.201C10.83,13.718,12.342,15.421,12.786,17.978z M8.167,11.209
		c-2.663-0.926-4.175-2.629-4.621-5.2L2.807,6.137l0.734-0.208c0.001-0.16,0.064-0.31,0.178-0.422
		c0.114-0.113,0.277-0.155,0.428-0.174l8.137,0.007c0.158,0.024,0.297,0.109,0.392,0.238c0.094,0.129,0.133,0.287,0.111,0.431
		C12.342,8.58,10.83,10.283,8.167,11.209z"/>
  <path d="M0.75,2.637h14.833c0.414,0,0.75-0.336,0.75-0.75s-0.336-0.75-0.75-0.75H0.75C0.336,1.137,0,1.473,0,1.887
		S0.336,2.637,0.75,2.637z"/>
  <path d="M15.584,21.363H0.75c-0.414,0-0.75,0.336-0.75,0.75s0.336,0.75,0.75,0.75h14.833c0.414,0,0.75-0.336,0.75-0.75
		S15.998,21.363,15.584,21.363z"/>
</g>
</svg>
