<?xml version="1.0" encoding="utf-8"?>
<!-- Generator: Adobe Illustrator 26.0.0, SVG Export Plug-In . SVG Version: 6.00 Build 0)  -->
<svg version="1.1" id="Layer_1" xmlns="http://www.w3.org/2000/svg" x="0px" y="0px"
     viewBox="0 0 20.9 24" style="enable-background:new 0 0 20.9 24;" xml:space="preserve">
<path d="M0,13.11c-0.02,5.79,4.66,10.52,10.45,10.56c5.7-0.06,10.39-4.75,10.45-10.45c0.04-4.05-2.18-7.78-6.09-9.72
	c-1.34-0.67-2.85-0.94-4.36-0.94h0c-2.83,0-5.52,1.16-7.47,3.19V1.08c0-0.41-0.34-0.75-0.75-0.75h0c-0.41,0-0.75,0.34-0.75,0.75
	v6.51c0,0.58,0.47,1.04,1.04,1.04h6.59c0.41,0,0.75-0.34,0.75-0.75v0c0-0.41-0.34-0.75-0.75-0.75H3.73
	c1.69-1.96,4.11-3.08,6.71-3.08h0.01c3.56,0,6.88,2.07,8.21,5.37c2.61,6.45-2.06,12.67-8.21,12.75c-4.96-0.04-8.97-4.1-8.95-9.06
	c0,0,0,0,0-0.04c0-1.02-1.5-1.04-1.5,0C0,13.11,0,13.11,0,13.11z"/>
</svg>
