<?xml version="1.0" encoding="utf-8"?>
<!-- Generator: Adobe Illustrator 26.0.0, SVG Export Plug-In . SVG Version: 6.00 Build 0)  -->
<svg version="1.1" id="Layer_1" xmlns="http://www.w3.org/2000/svg" x="0px" y="0px"
     viewBox="0 0 20.9 24" style="enable-background:new 0 0 20.9 24;" xml:space="preserve">
<path d="M20.9,13.08c0-1.04-1.5-1.02-1.5,0c0,0.04,0,0.04,0,0.04c0.02,4.96-3.99,9.02-8.95,9.06C4.3,22.1-0.37,15.88,2.24,9.42
	c1.33-3.3,4.65-5.37,8.21-5.37h0.01c2.6,0,5.03,1.12,6.71,3.08h-5.39c-0.41,0-0.75,0.34-0.75,0.75v0c0,0.41,0.34,0.75,0.75,0.75
	h6.59c0.58,0,1.04-0.47,1.04-1.04V1.08c0-0.41-0.34-0.75-0.75-0.75l0,0c-0.41,0-0.75,0.34-0.75,0.75v4.67
	c-1.94-2.03-4.64-3.19-7.47-3.19h0c-1.5,0-3.01,0.27-4.36,0.94C2.18,5.45-0.04,9.17,0,13.22c0.06,5.7,4.75,10.39,10.45,10.45
	c5.79-0.04,10.47-4.78,10.45-10.56C20.9,13.11,20.9,13.11,20.9,13.08z"/>
</svg>
