<?xml version="1.0" encoding="utf-8"?>
<!-- Generator: Adobe Illustrator 25.4.1, SVG Export Plug-In . SVG Version: 6.00 Build 0)  -->
<svg version="1.1" id="Layer_1" xmlns="http://www.w3.org/2000/svg" xmlns:xlink="http://www.w3.org/1999/xlink" x="0px" y="0px"
	 viewBox="0 0 22.7 24" style="enable-background:new 0 0 22.7 24;" xml:space="preserve">
<path d="M20.8,20.7H1.3c-0.3,0-0.7,0.1-1,0.5c-0.2,0.2-0.3,0.6-0.3,1c0,0.4,0.1,0.7,0.4,1.1c0.2,0.2,0.5,0.5,1,0.5h19.5
	c0.3,0,0.7-0.1,1-0.5c0.2-0.2,0.4-0.6,0.4-1.1c0-0.4-0.1-0.7-0.4-1.1C21.5,20.8,21.2,20.7,20.8,20.7z M22,2.7L20.3,1
	c-0.5-0.4-1.1-0.7-1.7-0.7S17.3,0.5,16.9,1L6,11.8c-0.1,0.1-0.2,0.3-0.2,0.4l-0.9,4.9c0,0.1,0,0.2,0,0.4c0,0.1,0.1,0.2,0.1,0.3
	C5.1,17.9,5.2,18,5.3,18c0.1,0,0.2,0.1,0.3,0.1h0.1l4.9-0.9c0.2,0,0.3-0.1,0.4-0.2L22,6.1c0.5-0.5,0.7-1.1,0.7-1.7
	C22.7,3.7,22.5,3.1,22,2.7L22,2.7z"/>
</svg>
