<?xml version="1.0" encoding="utf-8"?>
<!--
  - Copyright (c) 2010, 2023 BSI Business Systems Integration AG
  -
  - This program and the accompanying materials are made
  - available under the terms of the Eclipse Public License 2.0
  - which is available at https://www.eclipse.org/legal/epl-2.0/
  -
  - SPDX-License-Identifier: EPL-2.0
  -->

<!-- Generator: Adobe Illustrator 25.4.1, SVG Export Plug-In . SVG Version: 6.00 Build 0)  -->
<svg version="1.1" id="Ebene_1" xmlns="http://www.w3.org/2000/svg" x="0px" y="0px"
     viewBox="0 0 21.5 24" style="enable-background:new 0 0 21.5 24;" xml:space="preserve">
<path d="M10.75,1.25C4.822,1.25,0,6.072,0,12s4.822,10.75,10.75,10.75S21.5,17.928,21.5,12S16.678,1.25,10.75,1.25z M18.26,6.62
	l-2.534,1.52c-1.01-1.298-2.511-2.193-4.226-2.397V2.788C14.283,3.013,16.717,4.473,18.26,6.62z M10.75,7.194
	c2.65,0,4.806,2.156,4.806,4.806s-2.156,4.806-4.806,4.806S5.944,14.65,5.944,12S8.1,7.194,10.75,7.194z M10.75,21.25
	c-5.101,0-9.25-4.149-9.25-9.25c0-4.847,3.75-8.828,8.5-9.212v2.955C6.876,6.116,4.444,8.777,4.444,12
	c0,3.477,2.829,6.306,6.306,6.306s6.306-2.829,6.306-6.306c0-0.918-0.202-1.788-0.556-2.575l2.532-1.519
	C19.646,9.142,20,10.529,20,12C20,17.101,15.851,21.25,10.75,21.25z"/>
</svg>
