<?xml version="1.0" encoding="utf-8"?>
<!--
  - Copyright (c) 2010, 2023 BSI Business Systems Integration AG
  -
  - This program and the accompanying materials are made
  - available under the terms of the Eclipse Public License 2.0
  - which is available at https://www.eclipse.org/legal/epl-2.0/
  -
  - SPDX-License-Identifier: EPL-2.0
  -->

<!-- Generator: Adobe Illustrator 25.4.1, SVG Export Plug-In . SVG Version: 6.00 Build 0)  -->
<svg version="1.1" id="Ebene_1" xmlns="http://www.w3.org/2000/svg" x="0px" y="0px"
     viewBox="0 0 23.4996 24" style="enable-background:new 0 0 23.4996 24;" xml:space="preserve">
<path d="M0.7503,20.217c-0.088,0-0.178-0.016-0.265-0.048c-0.387-0.146-0.583-0.579-0.437-0.967c0.382-1.013,3.85-9.896,7.775-9.896
	c2.087,0,3.359,1.485,4.481,2.795c1.08,1.261,2.013,2.35,3.52,2.35c3.171,0,5.595-7.468,6.195-10.084
	c0.093-0.403,0.494-0.658,0.898-0.563c0.404,0.092,0.656,0.495,0.563,0.898c-0.264,1.151-2.72,11.25-7.657,11.25
	c-2.197,0-3.505-1.527-4.659-2.874c-1.044-1.219-1.945-2.271-3.342-2.271c-2.184,0-5.067,5.476-6.372,8.927
	C1.3383,20.032,1.0533,20.217,0.7503,20.217z"/>
</svg>
