<?xml version="1.0" encoding="utf-8"?>
<!--
  - Copyright (c) 2010-2021 BSI Business Systems Integration AG.
  - All rights reserved. This program and the accompanying materials
  - are made available under the terms of the Eclipse Public License v1.0
  - which accompanies this distribution, and is available at
  - http://www.eclipse.org/legal/epl-v10.html
  -
  - Contributors:
  -     BSI Business Systems Integration AG - initial API and implementation
  -->

<!-- Generator: Adobe Illustrator 25.2.1, SVG Export Plug-In . SVG Version: 6.00 Build 0)  -->
<svg version="1.1" id="Ebene_1" xmlns="http://www.w3.org/2000/svg" x="0px" y="0px"
     viewBox="0 0 24 24" style="enable-background:new 0 0 24 24;" xml:space="preserve">
<style type="text/css">
	.st0{fill:none;stroke:#000000;stroke-linecap:round;stroke-linejoin:round;}
	.st1{opacity:0.5;fill:none;stroke:#000000;stroke-width:1.5;stroke-linecap:round;stroke-linejoin:round;}
	.st2{fill:#FFFFFF;stroke:#000000;stroke-miterlimit:10;}
	.st3{fill:none;stroke:#808080;stroke-width:1.3;stroke-linecap:round;stroke-linejoin:round;}
	.st4{fill:none;stroke:#000000;stroke-width:1.5;stroke-linecap:round;stroke-linejoin:round;}
	.st5{stroke:#000000;stroke-width:1.5;stroke-linecap:round;stroke-linejoin:round;}
</style>
  <g>
	<path d="M21.94,9.26l-9.5-6.9c-0.26-0.19-0.62-0.19-0.88,0l-9.5,6.9C1.8,9.45,1.69,9.79,1.79,10.1l3.63,11.17
		c0.1,0.31,0.39,0.52,0.71,0.52h11.74c0.32,0,0.61-0.21,0.71-0.52l3.63-11.17C22.31,9.79,22.2,9.45,21.94,9.26z M17.33,20.29H6.67
		L3.38,10.15L12,3.89l8.62,6.26L17.33,20.29z"/>
    <path d="M11.56,7.68l-4.43,3.22c-0.26,0.19-0.37,0.53-0.27,0.84l1.69,5.21c0.1,0.31,0.39,0.52,0.71,0.52h5.48
		c0.32,0,0.61-0.21,0.71-0.52l1.69-5.21c0.1-0.31-0.01-0.65-0.27-0.84l-4.43-3.22C12.18,7.49,11.82,7.49,11.56,7.68z M15.55,11.8
		l-1.36,4.17H9.81L8.45,11.8L12,9.22L15.55,11.8z"/>
</g>
</svg>
