<?xml version="1.0" encoding="utf-8"?>
<!--
  - Copyright (c) 2010-2021 BSI Business Systems Integration AG.
  - All rights reserved. This program and the accompanying materials
  - are made available under the terms of the Eclipse Public License v1.0
  - which accompanies this distribution, and is available at
  - http://www.eclipse.org/legal/epl-v10.html
  -
  - Contributors:
  -     BSI Business Systems Integration AG - initial API and implementation
  -->

<!-- Generator: Adobe Illustrator 25.4.1, SVG Export Plug-In . SVG Version: 6.00 Build 0)  -->
<svg version="1.1" id="Ebene_1" xmlns="http://www.w3.org/2000/svg" x="0px" y="0px"
     viewBox="0 0 23.5003 24" style="enable-background:new 0 0 23.5003 24;" xml:space="preserve">
<path d="M23.1069,3.34c-0.364-0.198-0.819-0.062-1.017,0.303l-6.374,11.78L10.0479,8c-0.142-0.186-0.362-0.295-0.596-0.295
	c-0.001,0-0.001,0-0.002,0c-0.234,0-0.455,0.111-0.597,0.298l-8.702,11.545c-0.249,0.331-0.183,0.801,0.147,1.051
	c0.136,0.102,0.294,0.151,0.452,0.151c0.228,0,0.452-0.103,0.6-0.298l8.106-10.756l5.772,7.559c0.154,0.203,0.407,0.313,0.655,0.292
	c0.253-0.02,0.48-0.167,0.601-0.391l6.926-12.8C23.6069,3.993,23.4709,3.538,23.1069,3.34z"/>
</svg>
