<?xml version="1.0" encoding="utf-8"?>
<!-- Generator: Adobe Illustrator 26.0.0, SVG Export Plug-In . SVG Version: 6.00 Build 0)  -->
<svg version="1.1" id="Ebene_1" xmlns="http://www.w3.org/2000/svg" x="0px" y="0px"
     viewBox="0 0 21 24" style="enable-background:new 0 0 21 24;" xml:space="preserve">
<g>
	<path d="M20.69,9.2l-9.73-7.05c-0.27-0.19-0.64-0.19-0.9,0L0.31,9.2c-0.27,0.19-0.38,0.54-0.28,0.86l3.72,11.41
		C3.86,21.79,4.16,22,4.48,22h12.03c0.33,0,0.63-0.21,0.73-0.53l3.72-11.41C21.07,9.74,20.95,9.39,20.69,9.2z M15.96,20.47H5.04
		L1.67,10.11l8.83-6.4l8.83,6.4L15.96,20.47z"/>
  <path d="M10.05,7.58l-4.54,3.29c-0.27,0.19-0.38,0.54-0.28,0.86l1.73,5.32c0.1,0.32,0.4,0.53,0.73,0.53h5.62
		c0.33,0,0.63-0.21,0.73-0.53l1.73-5.32c0.1-0.32-0.01-0.66-0.28-0.86l-4.54-3.29C10.68,7.39,10.32,7.39,10.05,7.58z M14.14,11.79
		l-1.39,4.26H8.26l-1.39-4.26l3.64-2.64L14.14,11.79z"/>
</g>
</svg>
