<?xml version="1.0" encoding="utf-8"?>
<!--
  - Copyright (c) 2010, 2023 BSI Business Systems Integration AG
  -
  - This program and the accompanying materials are made
  - available under the terms of the Eclipse Public License 2.0
  - which is available at https://www.eclipse.org/legal/epl-2.0/
  -
  - SPDX-License-Identifier: EPL-2.0
  -->

<!-- Generator: Adobe Illustrator 25.4.1, SVG Export Plug-In . SVG Version: 6.00 Build 0)  -->
<svg version="1.1" id="Ebene_1" xmlns="http://www.w3.org/2000/svg" x="0px" y="0px"
     viewBox="0 0 21.5 24" style="enable-background:new 0 0 21.5 24;" xml:space="preserve">
<path d="M10.75,1.25C4.822,1.25,0,6.072,0,12s4.822,10.75,10.75,10.75S21.5,17.928,21.5,12S16.678,1.25,10.75,1.25z M18.26,6.62
	l-6.76,4.055V2.788C14.283,3.013,16.717,4.473,18.26,6.62z M10.75,21.25c-5.101,0-9.25-4.149-9.25-9.25
	c0-4.847,3.75-8.828,8.5-9.212V12c0,0.27,0.146,0.52,0.38,0.653c0.115,0.065,0.242,0.097,0.37,0.097
	c0.134,0,0.267-0.036,0.386-0.107l7.896-4.738C19.646,9.142,20,10.529,20,12C20,17.101,15.851,21.25,10.75,21.25z"/>
</svg>
