<?xml version="1.0" encoding="utf-8"?>
<!--
  - Copyright (c) 2010-2021 BSI Business Systems Integration AG.
  - All rights reserved. This program and the accompanying materials
  - are made available under the terms of the Eclipse Public License v1.0
  - which accompanies this distribution, and is available at
  - http://www.eclipse.org/legal/epl-v10.html
  -
  - Contributors:
  -     BSI Business Systems Integration AG - initial API and implementation
  -->

<!-- Generator: Adobe Illustrator 25.3.1, SVG Export Plug-In . SVG Version: 6.00 Build 0)  -->
<svg version="1.1" id="Layer_1" xmlns="http://www.w3.org/2000/svg" x="0px" y="0px"
     viewBox="0 0 24.0005 24" style="enable-background:new 0 0 24.0005 24;" xml:space="preserve">
<g>
	<path d="M23.2495,21.9075h-21.75V1.3421c0-0.4136-0.3359-0.75-0.7495-0.75S0,0.9285,0,1.3421v21.3154
		c0,0.4141,0.3364,0.751,0.75,0.751h22.4995c0.4141,0,0.751-0.3369,0.751-0.751C24.0005,22.2444,23.6636,21.9075,23.2495,21.9075z"
  />
  <path d="M4.8936,14.5247c0.2051,0,0.4097-0.0835,0.5571-0.2476l4.8716-5.4111l4.187,3.1426
		c0.3311,0.2466,0.8027,0.1797,1.0498-0.1514l5.3604-8.3345c0.2217-0.3481,0.1201-0.812-0.2256-1.0337
		C20.5728,2.41,20.4321,2.368,20.2847,2.368c-0.0039,0-0.0078,0.0005-0.0127,0.0005h-0.001
		c-0.249,0.0068-0.4775,0.1357-0.6123,0.3452l-4.8926,7.6104l-4.0918-3.0693c-0.3135-0.2344-0.7471-0.1914-1.0078,0.0996
		l-5.3296,5.9209c-0.2754,0.3076-0.25,0.7817,0.0562,1.0581C4.5361,14.4612,4.7153,14.5247,4.8936,14.5247z"/>
</g>
</svg>
