<?xml version="1.0" encoding="utf-8"?>
<!-- Generator: Adobe Illustrator 15.0.2, SVG Export Plug-In . SVG Version: 6.00 Build 0)  -->
<!DOCTYPE svg PUBLIC "-//W3C//DTD SVG 1.1//EN" "http://www.w3.org/Graphics/SVG/1.1/DTD/svg11.dtd">
<svg version="1.1" xmlns="http://www.w3.org/2000/svg" xmlns:xlink="http://www.w3.org/1999/xlink" x="0px" y="0px" width="557px"
	 height="475.516px" viewBox="0 0 557 475.516" style="enable-background:new 0 0 557 475.516;" xml:space="preserve">
<g id="TimeLineGrid">
	
		<rect id="tlg00" x="75.549" y="30.985" style="fill:#FFFFFF;stroke:#C0C0C0;stroke-width:0.5;stroke-miterlimit:10;" width="475.451" height="27.33"/>
	
		<rect id="tlg01" x="75.549" y="58.315" style="fill:#FFFFFF;stroke:#C0C0C0;stroke-width:0.5;stroke-miterlimit:10;" width="475.451" height="27.329"/>
	
		<rect id="tlg02" x="75.549" y="85.644" style="fill:#FFFFFF;stroke:#C0C0C0;stroke-width:0.5;stroke-miterlimit:10;" width="475.451" height="27.331"/>
	
		<rect id="tlg03" x="75.549" y="112.975" style="fill:#FFFFFF;stroke:#C0C0C0;stroke-width:0.5;stroke-miterlimit:10;" width="475.451" height="27.33"/>
	
		<rect id="tlg04" x="75.333" y="140.305" style="fill:#FFFFFF;stroke:#C0C0C0;stroke-width:0.5;stroke-miterlimit:10;" width="475.665" height="27.33"/>
	
		<rect id="tlg05" x="75.333" y="167.635" style="fill:#FFFFFF;stroke:#C0C0C0;stroke-width:0.5;stroke-miterlimit:10;" width="475.665" height="27.329"/>
	
		<rect id="tlg06" x="75.333" y="194.963" style="fill:#FFFFFF;stroke:#C0C0C0;stroke-width:0.5;stroke-miterlimit:10;" width="475.665" height="27.331"/>
	
		<rect id="tlg07" x="75.333" y="222.294" style="fill:#FFFFFF;stroke:#C0C0C0;stroke-width:0.5;stroke-miterlimit:10;" width="475.665" height="27.33"/>
	
		<rect id="tlg08" x="75.333" y="249.624" style="fill:#FFFFFF;stroke:#C0C0C0;stroke-width:0.5;stroke-miterlimit:10;" width="475.667" height="27.33"/>
	
		<rect id="tlg09" x="75.333" y="276.954" style="fill:#FFFFFF;stroke:#C0C0C0;stroke-width:0.5;stroke-miterlimit:10;" width="475.667" height="27.33"/>
	
		<rect id="tlg010" x="75.333" y="304.284" style="fill:#FFFFFF;stroke:#C0C0C0;stroke-width:0.5;stroke-miterlimit:10;" width="475.667" height="27.329"/>
	
		<rect id="tlg011" x="75.333" y="331.612" style="fill:#FFFFFF;stroke:#C0C0C0;stroke-width:0.5;stroke-miterlimit:10;" width="475.667" height="27.33"/>
	
		<rect id="tlg012" x="75.333" y="358.942" style="fill:#FFFFFF;stroke:#C0C0C0;stroke-width:0.5;stroke-miterlimit:10;" width="475.452" height="27.332"/>
	
		<rect id="tlg013" x="75.333" y="386.273" style="fill:#FFFFFF;stroke:#C0C0C0;stroke-width:0.5;stroke-miterlimit:10;" width="475.452" height="27.33"/>
	
		<rect id="tlg014" x="75.549" y="413.604" style="fill:#FFFFFF;stroke:#C0C0C0;stroke-width:0.5;stroke-miterlimit:10;" width="475.451" height="27.33"/>
</g>
<g id="Grid">
	<g id="MondayColumn">
		<rect id="b00" x="75.333" y="30.672" style="fill:none;stroke:#C0C0C0;stroke-miterlimit:10;" width="475.665" height="410.328"/>
	</g>
</g>
<g id="LinkMenuLayer">
	<rect x="254.403" y="448.529" style="fill:none;" width="294.477" height="25.986"/>
	<text id="displayModeMonth" transform="matrix(1 0 0 1 254.4038 462.1328)" style="font-family:'ArialMT'; font-size:19;">Month</text>
	<rect x="202.364" y="448.529" style="fill:none;" width="338.477" height="25.986"/>
	<text id="displayModeWeek" transform="matrix(1 0 0 1 202.3643 462.1328)" style="font-family:'ArialMT'; font-size:19;">Week</text>
	<rect x="106.497" y="448.529" style="fill:none;" width="379.144" height="25.986"/>
	<text id="displayModeWorkWeek" transform="matrix(1 0 0 1 106.4971 462.1328)" style="font-family:'ArialMT'; font-size:19;">Workweek</text>
	<rect x="66.246" y="448.529" style="fill:none;" width="349.789" height="25.986"/>
	<text id="displayModeDay" transform="matrix(1 0 0 1 66.2461 462.1328)" style="font-family:'ArialMT'; font-size:19;">Day</text>
</g>
<g id="MenuLayer">
	
		<rect id="menuBox" x="525.181" y="448.693" style="display:none;fill:#FFFFFF;stroke:#000000;stroke-miterlimit:10;" width="25.819" height="25.822"/>
	<polygon id="menuArrow" style="display:none;stroke:#000000;stroke-miterlimit:10;" points="548.447,455.952 538.212,467.556 
		527.978,455.952 	"/>
</g>
<g id="HeaderLayer">
	<rect x="271.756" y="5" style="fill:none;" width="389.524" height="25.985"/>
	<text id="Title" transform="matrix(1 0 0 1 271.7559 18.604)" style="font-family:'ArialMT'; font-size:19;">Title#C</text>
</g>
<g id="Components">
</g>
<g id="GridText">
	<g id="SundayCol">
	</g>
	<g id="SaturdayCol">
	</g>
	<g id="FridayCol">
	</g>
	<g id="ThursdayCol">
	</g>
	<g id="WednesdayCol">
	</g>
	<g id="TuesdayCol">
	</g>
	<g id="MondayCol">
	</g>
</g>
<g id="TimeLineText">
	<rect x="6.988" y="63" style="fill:none;" width="57.371" height="21.942"/>
	<text id="tlt0" transform="matrix(1 0 0 1 6.9878 75.8877)" style="fill:#9D9D9C; font-family:'ArialMT'; font-size:18;">early</text>
	<rect x="6.988" y="90.716" style="fill:none;" width="57.371" height="21.943"/>
	<text id="tlt1" transform="matrix(1 0 0 1 6.9878 103.6035)" style="fill:#9D9D9C; font-family:'ArialMT'; font-size:18;">07:00</text>
	<rect x="6.988" y="119.024" style="fill:none;" width="57.371" height="21.942"/>
	<text id="tlt2" transform="matrix(1 0 0 1 6.9878 131.9116)" style="fill:#9D9D9C; font-family:'ArialMT'; font-size:18;">08:00</text>
	<rect x="6.988" y="146.396" style="fill:none;" width="57.371" height="21.942"/>
	<text id="tlt3" transform="matrix(1 0 0 1 6.9878 159.2842)" style="fill:#9D9D9C; font-family:'ArialMT'; font-size:18;">09:00</text>
	<rect x="6.988" y="173.769" style="fill:none;" width="57.371" height="21.942"/>
	<text id="tlt4" transform="matrix(1 0 0 1 6.9878 186.6567)" style="fill:#9D9D9C; font-family:'ArialMT'; font-size:18;">10:00</text>
	<rect x="6.988" y="201.142" style="fill:none;" width="57.371" height="21.942"/>
	<text id="tlt5" transform="matrix(1 0 0 1 6.9878 214.0293)" style="fill:#9D9D9C; font-family:'ArialMT'; font-size:18;">11:00</text>
	<rect x="6.988" y="228.514" style="fill:none;" width="57.371" height="21.942"/>
	<text id="tlt6" transform="matrix(1 0 0 1 6.9878 241.4014)" style="fill:#9D9D9C; font-family:'ArialMT'; font-size:18;">12:00</text>
	<rect x="6.988" y="255.886" style="fill:none;" width="57.371" height="21.943"/>
	<text id="tlt7" transform="matrix(1 0 0 1 6.9878 268.7739)" style="fill:#9D9D9C; font-family:'ArialMT'; font-size:18;">13:00</text>
	<rect x="6.988" y="284.674" style="fill:none;" width="57.371" height="21.942"/>
	<text id="tlt8" transform="matrix(1 0 0 1 6.9878 297.562)" style="fill:#9D9D9C; font-family:'ArialMT'; font-size:18;">14:00</text>
	<rect x="6.988" y="311.567" style="fill:none;" width="57.371" height="21.941"/>
	<text id="tlt9" transform="matrix(1 0 0 1 6.9878 324.4551)" style="fill:#9D9D9C; font-family:'ArialMT'; font-size:18;">15:00</text>
	<rect x="6.988" y="338.939" style="fill:none;" width="57.371" height="21.942"/>
	<text id="tlt10" transform="matrix(1 0 0 1 6.9878 351.8271)" style="fill:#9D9D9C; font-family:'ArialMT'; font-size:18;">16:00</text>
	<rect x="6.988" y="366.311" style="fill:none;" width="57.371" height="21.943"/>
	<text id="tlt11" transform="matrix(1 0 0 1 6.9878 379.1982)" style="fill:#9D9D9C; font-family:'ArialMT'; font-size:18;">17:00</text>
	<rect x="6.988" y="393.686" style="fill:none;" width="57.371" height="21.941"/>
	<text id="tlt12" transform="matrix(1 0 0 1 6.9878 406.5732)" style="fill:#9D9D9C; font-family:'ArialMT'; font-size:18;">18:00</text>
	<rect x="6.988" y="421.057" style="fill:none;" width="57.371" height="21.943"/>
	<text id="tlt13" transform="matrix(1 0 0 1 6.9878 433.9443)" style="fill:#9D9D9C; font-family:'ArialMT'; font-size:18;">late</text>
</g>
<g id="ArrowLayer">
	<g id="prevYear">
		<polygon style="stroke:#000000;stroke-miterlimit:10;" points="8.734,7.529 8.757,18.003 3.999,12.776 		"/>
		<polygon style="stroke:#000000;stroke-miterlimit:10;" points="14.365,7.529 14.388,18.003 9.629,12.776 		"/>
	</g>
	<polygon id="prevMonth" style="stroke:#000000;stroke-miterlimit:10;" points="42.651,8.026 42.673,18.5 37.915,13.273 	"/>
	<g id="nextYear">
		<polygon style="stroke:#000000;stroke-miterlimit:10;" points="546.264,18.252 546.241,7.778 551,13.005 		"/>
		<polygon style="stroke:#000000;stroke-miterlimit:10;" points="540.633,18.252 540.61,7.778 545.369,13.005 		"/>
	</g>
	<polygon id="nextMonth" style="stroke:#000000;stroke-miterlimit:10;" points="512.349,18.252 512.325,7.778 517.084,13.005 	"/>
</g>
</svg>
