<?xml version="1.0" encoding="utf-8"?>
<!-- Generator: Adobe Illustrator 15.0.2, SVG Export Plug-In . SVG Version: 6.00 Build 0)  -->
<!DOCTYPE svg PUBLIC "-//W3C//DTD SVG 1.1//EN" "http://www.w3.org/Graphics/SVG/1.1/DTD/svg11.dtd">
<svg version="1.1" xmlns="http://www.w3.org/2000/svg" xmlns:xlink="http://www.w3.org/1999/xlink" x="0px" y="0px" width="557px"
	 height="475.516px" viewBox="0 0 557 475.516" style="enable-background:new 0 0 557 475.516;" xml:space="preserve">
<g id="Grid">
	<g id="SundayColumn">
		<rect id="b65" x="473.651" y="377.103" style="fill:none;stroke:#C0C0C0;stroke-miterlimit:10;" width="77.349" height="64.217"/>
		<rect id="b64" x="473.651" y="315.441" style="fill:none;stroke:#C0C0C0;stroke-miterlimit:10;" width="77.349" height="61.662"/>
		<rect id="b63" x="473.651" y="251.493" style="fill:none;stroke:#C0C0C0;stroke-miterlimit:10;" width="77.349" height="63.948"/>
		<rect id="b62" x="473.651" y="190.142" style="fill:none;stroke:#C0C0C0;stroke-miterlimit:10;" width="77.349" height="61.351"/>
		<rect id="b61" x="473.651" y="126.075" style="fill:none;stroke:#C0C0C0;stroke-miterlimit:10;" width="77.349" height="64.067"/>
		<rect id="b60" x="473.651" y="64.754" style="fill:none;stroke:#C0C0C0;stroke-miterlimit:10;" width="77.349" height="61.066"/>
	</g>
	<g id="SaturdayColumn">
		<rect id="b55" x="395.375" y="377.103" style="fill:none;stroke:#C0C0C0;stroke-miterlimit:10;" width="77.349" height="64.217"/>
		<rect id="b54" x="395.375" y="315.441" style="fill:none;stroke:#C0C0C0;stroke-miterlimit:10;" width="77.349" height="61.662"/>
		<rect id="b53" x="395.375" y="251.492" style="fill:none;stroke:#C0C0C0;stroke-miterlimit:10;" width="77.349" height="63.949"/>
		<rect id="b52" x="395.375" y="190.141" style="fill:none;stroke:#C0C0C0;stroke-miterlimit:10;" width="77.349" height="61.351"/>
		<rect id="b51" x="395.375" y="125.82" style="fill:none;stroke:#C0C0C0;stroke-miterlimit:10;" width="77.349" height="64.322"/>
		<rect id="b50" x="395.375" y="64.5" style="fill:none;stroke:#C0C0C0;stroke-miterlimit:10;" width="77.349" height="61.575"/>
	</g>
	<g id="FridayColumn">
		<rect id="b45" x="317.103" y="377.103" style="fill:none;stroke:#C0C0C0;stroke-miterlimit:10;" width="77.348" height="64.217"/>
		<rect id="b44" x="317.103" y="315.441" style="fill:none;stroke:#C0C0C0;stroke-miterlimit:10;" width="77.348" height="61.662"/>
		<rect id="b43" x="317.103" y="251.492" style="fill:none;stroke:#C0C0C0;stroke-miterlimit:10;" width="77.348" height="63.949"/>
		<rect id="b42" x="317.103" y="190.141" style="fill:none;stroke:#C0C0C0;stroke-miterlimit:10;" width="77.348" height="61.351"/>
		<rect id="b41" x="317.103" y="126.074" style="fill:none;stroke:#C0C0C0;stroke-miterlimit:10;" width="77.348" height="64.067"/>
		<rect id="b40" x="317.103" y="64.5" style="fill:none;stroke:#C0C0C0;stroke-miterlimit:10;" width="77.348" height="61.575"/>
	</g>
	<g id="ThursdayColumn">
		<rect id="b35" x="238.828" y="377.103" style="fill:none;stroke:#C0C0C0;stroke-miterlimit:10;" width="77.344" height="64.217"/>
		<rect id="b34" x="238.828" y="315.441" style="fill:none;stroke:#C0C0C0;stroke-miterlimit:10;" width="77.344" height="61.662"/>
		<rect id="b33" x="238.828" y="251.492" style="fill:none;stroke:#C0C0C0;stroke-miterlimit:10;" width="77.344" height="63.949"/>
		<rect id="b32" x="238.828" y="190.141" style="fill:none;stroke:#C0C0C0;stroke-miterlimit:10;" width="77.344" height="61.351"/>
		<rect id="b31" x="238.828" y="126.074" style="fill:none;stroke:#C0C0C0;stroke-miterlimit:10;" width="77.344" height="64.067"/>
		<rect id="b30" x="238.828" y="64.5" style="fill:none;stroke:#C0C0C0;stroke-miterlimit:10;" width="77.344" height="61.575"/>
	</g>
	<g id="WednesdayColumn">
		<rect id="b25" x="160.551" y="377.103" style="fill:none;stroke:#C0C0C0;stroke-miterlimit:10;" width="77.346" height="64.217"/>
		<rect id="b24" x="160.551" y="315.441" style="fill:none;stroke:#C0C0C0;stroke-miterlimit:10;" width="77.346" height="61.662"/>
		<rect id="b23" x="160.551" y="251.493" style="fill:none;stroke:#C0C0C0;stroke-miterlimit:10;" width="77.346" height="63.948"/>
		<rect id="b22" x="160.551" y="190.142" style="fill:none;stroke:#C0C0C0;stroke-miterlimit:10;" width="77.346" height="61.351"/>
		<rect id="b21" x="160.551" y="126.075" style="fill:none;stroke:#C0C0C0;stroke-miterlimit:10;" width="77.346" height="64.067"/>
		<rect id="b20" x="160.551" y="64.5" style="fill:none;stroke:#C0C0C0;stroke-miterlimit:10;" width="77.346" height="61.575"/>
	</g>
	<g id="TuesdayColumn">
		<rect id="b15" x="82.277" y="377.103" style="fill:none;stroke:#C0C0C0;stroke-miterlimit:10;" width="77.348" height="64.217"/>
		<rect id="b14" x="82.277" y="315.441" style="fill:none;stroke:#C0C0C0;stroke-miterlimit:10;" width="77.348" height="61.662"/>
		<rect id="b13" x="82.277" y="251.492" style="fill:none;stroke:#C0C0C0;stroke-miterlimit:10;" width="77.348" height="63.949"/>
		<rect id="b12" x="82.277" y="190.141" style="fill:none;stroke:#C0C0C0;stroke-miterlimit:10;" width="77.348" height="61.351"/>
		<rect id="b11" x="82.277" y="126.074" style="fill:none;stroke:#C0C0C0;stroke-miterlimit:10;" width="77.348" height="64.067"/>
		<rect id="b10" x="82.277" y="64.5" style="fill:none;stroke:#C0C0C0;stroke-miterlimit:10;" width="77.348" height="61.575"/>
	</g>
	<g id="MondayColumn">
		<rect id="b05" x="4" y="377.103" style="fill:none;stroke:#C0C0C0;stroke-miterlimit:10;" width="77.347" height="64.217"/>
		<rect id="b04" x="4" y="315.441" style="fill:none;stroke:#C0C0C0;stroke-miterlimit:10;" width="77.347" height="61.662"/>
		<rect id="b03" x="4" y="251.492" style="fill:none;stroke:#C0C0C0;stroke-miterlimit:10;" width="77.347" height="63.949"/>
		<rect id="b02" x="4" y="190.141" style="fill:none;stroke:#C0C0C0;stroke-miterlimit:10;" width="77.347" height="61.351"/>
		<rect id="b01" x="4" y="126.074" style="fill:none;stroke:#C0C0C0;stroke-miterlimit:10;" width="77.347" height="64.067"/>
		<rect id="b00" x="4" y="64.5" style="fill:none;stroke:#C0C0C0;stroke-miterlimit:10;" width="77.347" height="61.575"/>
	</g>
</g>
<g id="LinkMenuLayer">
	<rect x="192.311" y="448.611" style="fill:none;" width="294.476" height="25.986"/>
	<text id="displayModeMonth" transform="matrix(1 0 0 1 192.311 462.2148)" style="font-family:'ArialMT'; font-size:19;">Month</text>
	<rect x="140.271" y="448.611" style="fill:none;" width="338.477" height="25.986"/>
	<text id="displayModeWeek" transform="matrix(1 0 0 1 140.2715 462.2148)" style="font-family:'ArialMT'; font-size:19;">Week</text>
	<rect x="44.404" y="448.611" style="fill:none;" width="379.144" height="25.986"/>
	<text id="displayModeWorkWeek" transform="matrix(1 0 0 1 44.4043 462.2148)" style="font-family:'ArialMT'; font-size:19;">Workweek</text>
	<rect x="4.153" y="448.611" style="fill:none;" width="349.789" height="25.986"/>
	<text id="displayModeDay" transform="matrix(1 0 0 1 4.1533 462.2148)" style="font-family:'ArialMT'; font-size:19;">Day</text>
</g>
<g id="MenuLayer">

		<rect id="menuBox" x="525.181" y="448.693" style="display:none;fill:#FFFFFF;stroke:#000000;stroke-miterlimit:10;" width="25.819" height="25.822"/>
	<polygon id="menuArrow" style="display:none;stroke:#000000;stroke-miterlimit:10;" points="548.447,455.952 538.212,467.556
		527.978,455.952 	"/>
</g>
<g id="HeaderLayer">
	<rect x="509.507" y="36.016" style="fill:none;" width="74.773" height="25.984"/>
	<text id="So" transform="matrix(1 0 0 1 509.5068 49.6196)" style="font-family:'ArialMT'; font-size:19;">So#C</text>
	<rect x="431.22" y="36.016" style="fill:none;" width="74.775" height="25.984"/>
	<text id="Sa" transform="matrix(1 0 0 1 431.2197 49.6196)" style="font-family:'ArialMT'; font-size:19;">Sa#C</text>
	<rect x="352.938" y="36.016" style="fill:none;" width="74.772" height="25.984"/>
	<text id="Fr" transform="matrix(1 0 0 1 352.9375 49.6196)" style="font-family:'ArialMT'; font-size:19;">Fr#C</text>
	<rect x="274.652" y="36.016" style="fill:none;" width="74.774" height="25.984"/>
	<text id="Th" transform="matrix(1 0 0 1 274.6523 49.6196)" style="font-family:'ArialMT'; font-size:19;">Th#C</text>
	<rect x="196.368" y="36.016" style="fill:none;" width="74.775" height="25.984"/>
	<text id="We" transform="matrix(1 0 0 1 196.3677 49.6196)" style="font-family:'ArialMT'; font-size:19;">We#C</text>
	<rect x="118.083" y="36.016" style="fill:none;" width="74.775" height="25.984"/>
	<text id="Tu" transform="matrix(1 0 0 1 118.0825 49.6196)" style="font-family:'ArialMT'; font-size:19;">Tu#C</text>
	<rect x="39.714" y="36.016" style="fill:none;" width="74.774" height="25.984"/>
	<text id="Mo" transform="matrix(1 0 0 1 39.7139 49.6196)" style="font-family:'ArialMT'; font-size:19;">Mo#C</text>
	<rect x="271.756" y="5" style="fill:none;" width="389.524" height="25.985"/>
	<text id="Title" transform="matrix(1 0 0 1 271.7559 18.604)" style="font-family:'ArialMT'; font-size:19;">Title#C</text>
</g>
<g id="Components">
</g>
<g id="GridText">
	<g id="SundayCol">
		<rect x="511.362" y="385.81" style="fill:none;" width="75.562" height="49.513"/>
		<text id="t65" transform="matrix(1 0 0 1 511.3623 398.6973)" style="font-family:'ArialMT'; font-size:18;">65#C</text>
		<rect x="511.719" y="323.237" style="fill:none;" width="75.562" height="49.51"/>
		<text id="t64" transform="matrix(1 0 0 1 511.7188 336.125)" style="font-family:'ArialMT'; font-size:18;">64#C</text>
		<rect x="511.719" y="259.805" style="fill:none;" width="75.562" height="49.511"/>
		<text id="t63" transform="matrix(1 0 0 1 511.7188 272.6924)" style="font-family:'ArialMT'; font-size:18;">63#C</text>
		<rect x="511.719" y="198.537" style="fill:none;" width="75.562" height="49.51"/>
		<text id="t62" transform="matrix(1 0 0 1 511.7188 211.4248)" style="font-family:'ArialMT'; font-size:18;">62#C</text>
		<rect x="511.362" y="134.44" style="fill:none;" width="75.562" height="49.511"/>
		<text id="t61" transform="matrix(1 0 0 1 511.3623 147.3281)" style="font-family:'ArialMT'; font-size:18;">61#C</text>
		<rect x="511.362" y="72.758" style="fill:none;" width="75.562" height="49.51"/>
		<text id="t60" transform="matrix(1 0 0 1 511.3623 85.6455)" style="font-family:'ArialMT'; font-size:18;">60#C</text>
	</g>
	<g id="SaturdayCol">
		<rect x="432.824" y="385.81" style="fill:none;" width="75.562" height="49.513"/>
		<text id="t55" transform="matrix(1 0 0 1 432.8242 398.6973)" style="font-family:'ArialMT'; font-size:18;">55#C</text>
		<rect x="433.183" y="323.237" style="fill:none;" width="75.56" height="49.51"/>
		<text id="t54" transform="matrix(1 0 0 1 433.1826 336.125)" style="font-family:'ArialMT'; font-size:18;">54#C</text>
		<rect x="433.183" y="259.805" style="fill:none;" width="75.56" height="49.511"/>
		<text id="t53" transform="matrix(1 0 0 1 433.1826 272.6924)" style="font-family:'ArialMT'; font-size:18;">53#C</text>
		<rect x="433.183" y="198.537" style="fill:none;" width="75.56" height="49.51"/>
		<text id="t52" transform="matrix(1 0 0 1 433.1826 211.4248)" style="font-family:'ArialMT'; font-size:18;">52#C</text>
		<rect x="432.824" y="134.44" style="fill:none;" width="75.562" height="49.511"/>
		<text id="t51" transform="matrix(1 0 0 1 432.8242 147.3281)" style="font-family:'ArialMT'; font-size:18;">51#C</text>
		<rect x="432.824" y="72.758" style="fill:none;" width="75.562" height="49.51"/>
		<text id="t50" transform="matrix(1 0 0 1 432.8242 85.6455)" style="font-family:'ArialMT'; font-size:18;">50#C</text>
	</g>
	<g id="FridayCol">
		<rect x="354.288" y="385.813" style="fill:none;" width="75.563" height="49.51"/>
		<text id="t45" transform="matrix(1 0 0 1 354.2881 398.7002)" style="font-family:'ArialMT'; font-size:18;">45#C</text>
		<rect x="354.647" y="323.237" style="fill:none;" width="75.562" height="49.51"/>
		<text id="t44" transform="matrix(1 0 0 1 354.6475 336.125)" style="font-family:'ArialMT'; font-size:18;">44#C</text>
		<rect x="354.647" y="259.807" style="fill:none;" width="75.562" height="49.509"/>
		<text id="t43" transform="matrix(1 0 0 1 354.6475 272.6943)" style="font-family:'ArialMT'; font-size:18;">43#C</text>
		<rect x="354.647" y="198.537" style="fill:none;" width="75.562" height="49.51"/>
		<text id="t42" transform="matrix(1 0 0 1 354.6475 211.4248)" style="font-family:'ArialMT'; font-size:18;">02#C</text>
		<rect x="354.288" y="134.442" style="fill:none;" width="75.563" height="49.509"/>
		<text id="t41" transform="matrix(1 0 0 1 354.2881 147.3296)" style="font-family:'ArialMT'; font-size:18;">41#C</text>
		<rect x="354.288" y="72.758" style="fill:none;" width="75.563" height="49.51"/>
		<text id="t40" transform="matrix(1 0 0 1 354.2881 85.6455)" style="font-family:'ArialMT'; font-size:18;">40#C</text>
	</g>
	<g id="ThursdayCol">
		<rect x="275.753" y="385.81" style="fill:none;" width="75.562" height="49.513"/>
		<text id="t35" transform="matrix(1 0 0 1 275.7529 398.6973)" style="font-family:'ArialMT'; font-size:18;">35#C</text>
		<rect x="276.109" y="323.237" style="fill:none;" width="75.562" height="49.51"/>
		<text id="t34" transform="matrix(1 0 0 1 276.1094 336.125)" style="font-family:'ArialMT'; font-size:18;">34#C</text>
		<rect x="276.109" y="259.805" style="fill:none;" width="75.562" height="49.511"/>
		<text id="t33" transform="matrix(1 0 0 1 276.1094 272.6924)" style="font-family:'ArialMT'; font-size:18;">33#C</text>
		<rect x="276.109" y="198.537" style="fill:none;" width="75.562" height="49.51"/>
		<text id="t32" transform="matrix(1 0 0 1 276.1094 211.4248)" style="font-family:'ArialMT'; font-size:18;">32#C</text>
		<rect x="275.753" y="134.44" style="fill:none;" width="75.562" height="49.511"/>
		<text id="t31" transform="matrix(1 0 0 1 275.7529 147.3281)" style="font-family:'ArialMT'; font-size:18;">31#C</text>
		<rect x="275.753" y="72.758" style="fill:none;" width="75.562" height="49.51"/>
		<text id="t30" transform="matrix(1 0 0 1 275.7529 85.6455)" style="font-family:'ArialMT'; font-size:18;">30#C</text>
	</g>
	<g id="WednesdayCol">
		<rect x="197.216" y="385.813" style="fill:none;" width="75.562" height="49.51"/>
		<text id="t25" transform="matrix(1 0 0 1 197.2158 398.7002)" style="font-family:'ArialMT'; font-size:18;">25#C</text>
		<rect x="197.574" y="323.237" style="fill:none;" width="75.559" height="49.51"/>
		<text id="t24" transform="matrix(1 0 0 1 197.5737 336.125)" style="font-family:'ArialMT'; font-size:18;">24#C</text>
		<rect x="197.574" y="259.807" style="fill:none;" width="75.559" height="49.509"/>
		<text id="t23" transform="matrix(1 0 0 1 197.5737 272.6943)" style="font-family:'ArialMT'; font-size:18;">23#C</text>
		<rect x="197.574" y="198.537" style="fill:none;" width="75.559" height="49.51"/>
		<text id="t22" transform="matrix(1 0 0 1 197.5737 211.4248)" style="font-family:'ArialMT'; font-size:18;">22#C</text>
		<rect x="197.216" y="134.442" style="fill:none;" width="75.562" height="49.509"/>
		<text id="t21" transform="matrix(1 0 0 1 197.2158 147.3296)" style="font-family:'ArialMT'; font-size:18;">21#C</text>
		<rect x="197.216" y="72.758" style="fill:none;" width="75.562" height="49.51"/>
		<text id="t20" transform="matrix(1 0 0 1 197.2158 85.6455)" style="font-family:'ArialMT'; font-size:18;">20#C</text>
	</g>
	<g id="TuesdayCol">
		<rect x="118.68" y="385.813" style="fill:none;" width="75.561" height="49.51"/>
		<text id="t15" transform="matrix(1 0 0 1 118.6802 398.7002)" style="font-family:'ArialMT'; font-size:18;">15#C</text>
		<rect x="119.038" y="323.235" style="fill:none;" width="75.56" height="49.512"/>
		<text id="t14" transform="matrix(1 0 0 1 119.0376 336.1226)" style="font-family:'ArialMT'; font-size:18;">14#C</text>
		<rect x="119.038" y="259.805" style="fill:none;" width="75.56" height="49.51"/>
		<text id="t13" transform="matrix(1 0 0 1 119.0376 272.6929)" style="font-family:'ArialMT'; font-size:18;">13#C</text>
		<rect x="119.038" y="198.537" style="fill:none;" width="75.56" height="49.51"/>
		<text id="t12" transform="matrix(1 0 0 1 119.0376 211.4248)" style="font-family:'ArialMT'; font-size:18;">12#C</text>
		<rect x="118.68" y="134.441" style="fill:none;" width="75.561" height="49.51"/>
		<text id="t11" transform="matrix(1 0 0 1 118.6802 147.3286)" style="font-family:'ArialMT'; font-size:18;">11#C</text>
		<rect x="118.68" y="72.758" style="fill:none;" width="75.561" height="49.51"/>
		<text id="t10" transform="matrix(1 0 0 1 118.6802 85.6455)" style="font-family:'ArialMT'; font-size:18;">10#C</text>
	</g>
	<g id="MondayCol">
		<rect x="39.964" y="385.811" style="fill:none;" width="75.562" height="49.512"/>
		<text id="t05" transform="matrix(1 0 0 1 39.9639 398.6982)" style="font-family:'ArialMT'; font-size:18;">05#C</text>
		<rect x="40.321" y="323.238" style="fill:none;" width="75.562" height="49.509"/>
		<text id="t04" transform="matrix(1 0 0 1 40.3213 336.1255)" style="font-family:'ArialMT'; font-size:18;">04#C</text>
		<rect x="40.321" y="259.805" style="fill:none;" width="75.562" height="49.511"/>
		<text id="t03" transform="matrix(1 0 0 1 40.3213 272.6924)" style="font-family:'ArialMT'; font-size:18;">03#C</text>
		<rect x="40.321" y="198.537" style="fill:none;" width="75.562" height="49.51"/>
		<text id="t02" transform="matrix(1 0 0 1 40.3213 211.4248)" style="font-family:'ArialMT'; font-size:18;">02#C</text>
		<rect x="39.964" y="134.441" style="fill:none;" width="75.562" height="49.51"/>
		<text id="t01" transform="matrix(1 0 0 1 39.9639 147.3286)" style="font-family:'ArialMT'; font-size:18;">01#C</text>
		<rect x="39.964" y="72.757" style="fill:none;" width="75.562" height="49.511"/>
		<text id="t00" transform="matrix(1 0 0 1 39.9639 85.645)" style="font-family:'ArialMT'; font-size:18;">00#C</text>
	</g>
</g>
<g id="ArrowLayer">
	<g id="prevYear">
		<polygon style="stroke:#000000;stroke-miterlimit:10;" points="8.734,7.529 8.757,18.003 3.999,12.776 		"/>
		<polygon style="stroke:#000000;stroke-miterlimit:10;" points="14.365,7.529 14.388,18.003 9.629,12.776 		"/>
	</g>
	<polygon id="prevMonth" style="stroke:#000000;stroke-miterlimit:10;" points="42.651,8.026 42.673,18.5 37.915,13.273 	"/>
	<g id="nextYear">
		<polygon style="stroke:#000000;stroke-miterlimit:10;" points="546.264,18.252 546.241,7.778 551,13.005 		"/>
		<polygon style="stroke:#000000;stroke-miterlimit:10;" points="540.633,18.252 540.61,7.778 545.369,13.005 		"/>
	</g>
	<polygon id="nextMonth" style="stroke:#000000;stroke-miterlimit:10;" points="512.349,18.252 512.325,7.778 517.084,13.005 	"/>
</g>
</svg>
