<?xml version="1.0" encoding="utf-8"?>
<!-- Generator: Adobe Illustrator 15.1.0, SVG Export Plug-In . SVG Version: 6.00 Build 0)  -->
<!DOCTYPE svg PUBLIC "-//W3C//DTD SVG 1.1//EN" "http://www.w3.org/Graphics/SVG/1.1/DTD/svg11.dtd">
<svg version="1.1" xmlns="http://www.w3.org/2000/svg" xmlns:xlink="http://www.w3.org/1999/xlink" x="0px" y="0px"
	 width="595.28px" height="841.89px" viewBox="0 0 595.28 841.89" style="enable-background:new 0 0 595.28 841.89;"
	 xml:space="preserve">
<g id="Layer_1">
	
		<image style="overflow:visible;opacity:0.57;" width="574" height="216" xlink:href="6242095A.jpg"  transform="matrix(0.9101 0 0 0.9101 14.4834 281.1772)">
	</image>
</g>
<g id="Layer_2">
	<rect x="22.394" y="318.013" style="fill:none;stroke:#000000;stroke-miterlimit:10;" width="70.866" height="159.307"/>
	<rect x="452.692" y="318.013" style="fill:none;stroke:#000000;stroke-miterlimit:10;" width="70.867" height="159.307"/>
	<rect x="380.977" y="318.013" style="fill:none;stroke:#000000;stroke-miterlimit:10;" width="70.865" height="159.307"/>
	<rect x="309.261" y="318.013" style="fill:none;stroke:#000000;stroke-miterlimit:10;" width="70.865" height="159.307"/>
	<rect x="237.543" y="318.013" style="fill:none;stroke:#000000;stroke-miterlimit:10;" width="70.866" height="159.307"/>
	<rect x="165.827" y="318.013" style="fill:none;stroke:#000000;stroke-miterlimit:10;" width="70.866" height="159.307"/>
	<rect x="94.11" y="318.013" style="fill:none;stroke:#000000;stroke-miterlimit:10;" width="70.866" height="159.307"/>
	<g>
		<rect x="22.394" y="436.264" style="fill:none;stroke:#000000;stroke-miterlimit:10;" width="70.866" height="20.111"/>
		<g>
			<rect x="22.394" y="374.5" style="fill:none;stroke:#000000;stroke-miterlimit:10;" width="70.866" height="20.896"/>
			<g>
				<rect x="22.394" y="318.013" style="fill:none;stroke:#000000;stroke-miterlimit:10;" width="70.866" height="16.487"/>
				<rect x="22.394" y="354.417" style="fill:none;stroke:#000000;stroke-miterlimit:10;" width="70.866" height="20.083"/>
				<rect x="22.394" y="334.5" style="fill:none;stroke:#000000;stroke-miterlimit:10;" width="70.866" height="19.917"/>
				<rect x="22.394" y="415.406" style="fill:none;stroke:#000000;stroke-miterlimit:10;" width="70.866" height="20.857"/>
				<rect x="22.394" y="395.396" style="fill:none;stroke:#000000;stroke-miterlimit:10;" width="70.866" height="20.01"/>
				<rect x="22.394" y="456.375" style="fill:none;stroke:#000000;stroke-miterlimit:10;" width="70.866" height="20.945"/>
			</g>
		</g>
	</g>
	<g>
		<rect x="94.11" y="436.264" style="fill:none;stroke:#000000;stroke-miterlimit:10;" width="70.866" height="20.111"/>
		<g>
			<rect x="94.11" y="374.5" style="fill:none;stroke:#000000;stroke-miterlimit:10;" width="70.866" height="20.896"/>
			<g>
				<rect x="94.11" y="318.013" style="fill:none;stroke:#000000;stroke-miterlimit:10;" width="70.866" height="16.487"/>
				<rect x="94.11" y="354.417" style="fill:none;stroke:#000000;stroke-miterlimit:10;" width="70.866" height="20.083"/>
				<rect x="94.11" y="334.5" style="fill:none;stroke:#000000;stroke-miterlimit:10;" width="70.866" height="19.917"/>
				<rect x="94.11" y="415.406" style="fill:none;stroke:#000000;stroke-miterlimit:10;" width="70.866" height="20.857"/>
				<rect x="94.11" y="395.396" style="fill:none;stroke:#000000;stroke-miterlimit:10;" width="70.866" height="20.01"/>
				<rect x="94.11" y="456.375" style="fill:none;stroke:#000000;stroke-miterlimit:10;" width="70.866" height="20.945"/>
			</g>
		</g>
	</g>
	<g>
		<rect x="165.827" y="436.264" style="fill:none;stroke:#000000;stroke-miterlimit:10;" width="70.866" height="20.111"/>
		<g>
			<rect x="165.827" y="374.5" style="fill:none;stroke:#000000;stroke-miterlimit:10;" width="70.866" height="20.896"/>
			<g>
				<rect x="165.827" y="318.014" style="fill:none;stroke:#000000;stroke-miterlimit:10;" width="70.866" height="16.487"/>
				<rect x="165.827" y="354.417" style="fill:none;stroke:#000000;stroke-miterlimit:10;" width="70.866" height="20.083"/>
				<rect x="165.827" y="334.5" style="fill:none;stroke:#000000;stroke-miterlimit:10;" width="70.866" height="19.917"/>
				<rect x="165.827" y="415.407" style="fill:none;stroke:#000000;stroke-miterlimit:10;" width="70.866" height="20.857"/>
				<rect x="165.827" y="395.396" style="fill:none;stroke:#000000;stroke-miterlimit:10;" width="70.866" height="20.01"/>
				<rect x="165.827" y="456.375" style="fill:none;stroke:#000000;stroke-miterlimit:10;" width="70.866" height="20.945"/>
			</g>
		</g>
	</g>
	<g>
		<rect x="237.543" y="436.264" style="fill:none;stroke:#000000;stroke-miterlimit:10;" width="70.866" height="20.111"/>
		<g>
			<rect x="237.543" y="374.5" style="fill:none;stroke:#000000;stroke-miterlimit:10;" width="70.866" height="20.896"/>
			<g>
				<rect x="237.543" y="318.013" style="fill:none;stroke:#000000;stroke-miterlimit:10;" width="70.866" height="16.487"/>
				<rect x="237.543" y="354.417" style="fill:none;stroke:#000000;stroke-miterlimit:10;" width="70.866" height="20.083"/>
				<rect x="237.543" y="334.5" style="fill:none;stroke:#000000;stroke-miterlimit:10;" width="70.866" height="19.917"/>
				<rect x="237.543" y="415.406" style="fill:none;stroke:#000000;stroke-miterlimit:10;" width="70.866" height="20.857"/>
				<rect x="237.543" y="395.396" style="fill:none;stroke:#000000;stroke-miterlimit:10;" width="70.866" height="20.01"/>
				<rect x="237.543" y="456.375" style="fill:none;stroke:#000000;stroke-miterlimit:10;" width="70.866" height="20.945"/>
			</g>
		</g>
	</g>
	<g>
		<rect x="309.26" y="436.264" style="fill:none;stroke:#000000;stroke-miterlimit:10;" width="70.867" height="20.111"/>
		<g>
			<rect x="309.26" y="374.5" style="fill:none;stroke:#000000;stroke-miterlimit:10;" width="70.867" height="20.896"/>
			<g>
				<rect x="309.26" y="318.013" style="fill:none;stroke:#000000;stroke-miterlimit:10;" width="70.867" height="16.487"/>
				<rect x="309.26" y="354.417" style="fill:none;stroke:#000000;stroke-miterlimit:10;" width="70.867" height="20.083"/>
				<rect x="309.26" y="334.5" style="fill:none;stroke:#000000;stroke-miterlimit:10;" width="70.867" height="19.917"/>
				<rect x="309.26" y="415.406" style="fill:none;stroke:#000000;stroke-miterlimit:10;" width="70.867" height="20.857"/>
				<rect x="309.26" y="395.396" style="fill:none;stroke:#000000;stroke-miterlimit:10;" width="70.867" height="20.01"/>
				<rect x="309.26" y="456.375" style="fill:none;stroke:#000000;stroke-miterlimit:10;" width="70.867" height="20.945"/>
			</g>
		</g>
	</g>
	<g>
		<rect x="380.976" y="436.264" style="fill:none;stroke:#000000;stroke-miterlimit:10;" width="70.866" height="20.111"/>
		<g>
			<rect x="380.976" y="374.5" style="fill:none;stroke:#000000;stroke-miterlimit:10;" width="70.866" height="20.896"/>
			<g>
				<rect x="380.976" y="318.013" style="fill:none;stroke:#000000;stroke-miterlimit:10;" width="70.866" height="16.487"/>
				<rect x="380.976" y="354.417" style="fill:none;stroke:#000000;stroke-miterlimit:10;" width="70.866" height="20.083"/>
				<rect x="380.976" y="334.5" style="fill:none;stroke:#000000;stroke-miterlimit:10;" width="70.866" height="19.917"/>
				<rect x="380.976" y="415.406" style="fill:none;stroke:#000000;stroke-miterlimit:10;" width="70.866" height="20.857"/>
				<rect x="380.976" y="395.396" style="fill:none;stroke:#000000;stroke-miterlimit:10;" width="70.866" height="20.01"/>
				<rect x="380.976" y="456.375" style="fill:none;stroke:#000000;stroke-miterlimit:10;" width="70.866" height="20.945"/>
			</g>
		</g>
	</g>
	<g>
		<rect x="452.692" y="436.264" style="fill:none;stroke:#000000;stroke-miterlimit:10;" width="70.866" height="20.111"/>
		<g>
			<rect x="452.692" y="374.5" style="fill:none;stroke:#000000;stroke-miterlimit:10;" width="70.866" height="20.896"/>
			<g>
				<rect x="452.692" y="318.014" style="fill:none;stroke:#000000;stroke-miterlimit:10;" width="70.866" height="16.487"/>
				<rect x="452.692" y="354.417" style="fill:none;stroke:#000000;stroke-miterlimit:10;" width="70.866" height="20.083"/>
				<rect x="452.692" y="334.5" style="fill:none;stroke:#000000;stroke-miterlimit:10;" width="70.866" height="19.917"/>
				<rect x="452.692" y="415.407" style="fill:none;stroke:#000000;stroke-miterlimit:10;" width="70.866" height="20.857"/>
				<rect x="452.692" y="395.396" style="fill:none;stroke:#000000;stroke-miterlimit:10;" width="70.866" height="20.01"/>
				<rect x="452.692" y="456.375" style="fill:none;stroke:#000000;stroke-miterlimit:10;" width="70.866" height="20.945"/>
			</g>
		</g>
	</g>
</g>
</svg>
