<?xml version="1.0" encoding="utf-8"?>
<!-- Generator: Adobe Illustrator 15.0.2, SVG Export Plug-In . SVG Version: 6.00 Build 0)  -->
<!DOCTYPE svg PUBLIC "-//W3C//DTD SVG 1.1//EN" "http://www.w3.org/Graphics/SVG/1.1/DTD/svg11.dtd">
<svg version="1.1" xmlns="http://www.w3.org/2000/svg" xmlns:xlink="http://www.w3.org/1999/xlink" x="0px" y="0px" width="557px"
	 height="475.516px" viewBox="0 0 557 475.516" style="enable-background:new 0 0 557 475.516;" xml:space="preserve">
<g id="TimeLineGrid">

		<rect id="tlg00" x="73.998" y="64.508" style="fill:#FFFFFF;stroke:#C0C0C0;stroke-width:0.5;stroke-miterlimit:10;" width="67.45" height="25.105"/>

		<rect id="tlg01" x="73.998" y="89.613" style="fill:#FFFFFF;stroke:#C0C0C0;stroke-width:0.5;stroke-miterlimit:10;" width="67.45" height="25.104"/>

		<rect id="tlg02" x="73.998" y="114.716" style="fill:#FFFFFF;stroke:#C0C0C0;stroke-width:0.5;stroke-miterlimit:10;" width="67.45" height="25.105"/>

		<rect id="tlg03" x="73.998" y="139.821" style="fill:#FFFFFF;stroke:#C0C0C0;stroke-width:0.5;stroke-miterlimit:10;" width="67.45" height="25.104"/>

		<rect id="tlg10" x="142.258" y="64.508" style="fill:#FFFFFF;stroke:#C0C0C0;stroke-width:0.5;stroke-miterlimit:10;" width="67.451" height="25.105"/>

		<rect id="tlg11" x="142.258" y="89.613" style="fill:#FFFFFF;stroke:#C0C0C0;stroke-width:0.5;stroke-miterlimit:10;" width="67.451" height="25.104"/>

		<rect id="tlg12" x="142.258" y="114.716" style="fill:#FFFFFF;stroke:#C0C0C0;stroke-width:0.5;stroke-miterlimit:10;" width="67.451" height="25.105"/>

		<rect id="tlg13" x="142.258" y="139.821" style="fill:#FFFFFF;stroke:#C0C0C0;stroke-width:0.5;stroke-miterlimit:10;" width="67.451" height="25.104"/>

		<rect id="tlg20" x="210.515" y="64.508" style="fill:#FFFFFF;stroke:#C0C0C0;stroke-width:0.5;stroke-miterlimit:10;" width="67.451" height="25.105"/>

		<rect id="tlg21" x="210.515" y="89.613" style="fill:#FFFFFF;stroke:#C0C0C0;stroke-width:0.5;stroke-miterlimit:10;" width="67.451" height="25.104"/>

		<rect id="tlg22" x="210.515" y="114.716" style="fill:#FFFFFF;stroke:#C0C0C0;stroke-width:0.5;stroke-miterlimit:10;" width="67.451" height="25.105"/>

		<rect id="tlg23" x="210.515" y="139.821" style="fill:#FFFFFF;stroke:#C0C0C0;stroke-width:0.5;stroke-miterlimit:10;" width="67.451" height="25.104"/>

		<rect id="tlg30" x="278.774" y="64.508" style="fill:#FFFFFF;stroke:#C0C0C0;stroke-width:0.5;stroke-miterlimit:10;" width="67.45" height="25.105"/>

		<rect id="tlg31" x="278.774" y="89.613" style="fill:#FFFFFF;stroke:#C0C0C0;stroke-width:0.5;stroke-miterlimit:10;" width="67.45" height="25.104"/>

		<rect id="tlg32" x="278.774" y="114.716" style="fill:#FFFFFF;stroke:#C0C0C0;stroke-width:0.5;stroke-miterlimit:10;" width="67.45" height="25.105"/>

		<rect id="tlg33" x="278.774" y="139.821" style="fill:#FFFFFF;stroke:#C0C0C0;stroke-width:0.5;stroke-miterlimit:10;" width="67.45" height="25.104"/>

		<rect id="tlg40" x="347.033" y="64.508" style="fill:#FFFFFF;stroke:#C0C0C0;stroke-width:0.5;stroke-miterlimit:10;" width="67.451" height="25.105"/>

		<rect id="tlg41" x="347.033" y="89.613" style="fill:#FFFFFF;stroke:#C0C0C0;stroke-width:0.5;stroke-miterlimit:10;" width="67.451" height="25.104"/>

		<rect id="tlg42" x="347.033" y="114.716" style="fill:#FFFFFF;stroke:#C0C0C0;stroke-width:0.5;stroke-miterlimit:10;" width="67.451" height="25.105"/>

		<rect id="tlg43" x="347.033" y="139.821" style="fill:#FFFFFF;stroke:#C0C0C0;stroke-width:0.5;stroke-miterlimit:10;" width="67.451" height="25.104"/>

		<rect id="tlg50" x="415.289" y="64.508" style="fill:#FFFFFF;stroke:#C0C0C0;stroke-width:0.5;stroke-miterlimit:10;" width="67.451" height="25.105"/>

		<rect id="tlg51" x="415.289" y="89.613" style="fill:#FFFFFF;stroke:#C0C0C0;stroke-width:0.5;stroke-miterlimit:10;" width="67.451" height="25.104"/>

		<rect id="tlg52" x="415.289" y="114.716" style="fill:#FFFFFF;stroke:#C0C0C0;stroke-width:0.5;stroke-miterlimit:10;" width="67.451" height="25.105"/>

		<rect id="tlg53" x="415.289" y="139.821" style="fill:#FFFFFF;stroke:#C0C0C0;stroke-width:0.5;stroke-miterlimit:10;" width="67.451" height="25.104"/>

		<rect id="tlg60" x="482.709" y="64.508" style="fill:#FFFFFF;stroke:#C0C0C0;stroke-width:0.5;stroke-miterlimit:10;" width="67.451" height="25.105"/>

		<rect id="tlg61" x="482.709" y="89.613" style="fill:#FFFFFF;stroke:#C0C0C0;stroke-width:0.5;stroke-miterlimit:10;" width="67.451" height="25.104"/>

		<rect id="tlg62" x="482.709" y="114.716" style="fill:#FFFFFF;stroke:#C0C0C0;stroke-width:0.5;stroke-miterlimit:10;" width="67.451" height="25.105"/>

		<rect id="tlg63" x="482.709" y="139.821" style="fill:#FFFFFF;stroke:#C0C0C0;stroke-width:0.5;stroke-miterlimit:10;" width="67.451" height="25.104"/>

		<rect id="tlg04" x="74.418" y="164.925" style="fill:#FFFFFF;stroke:#C0C0C0;stroke-width:0.5;stroke-miterlimit:10;" width="67.45" height="25.104"/>

		<rect id="tlg05" x="74.418" y="190.03" style="fill:#FFFFFF;stroke:#C0C0C0;stroke-width:0.5;stroke-miterlimit:10;" width="67.45" height="25.104"/>

		<rect id="tlg06" x="74.418" y="215.134" style="fill:#FFFFFF;stroke:#C0C0C0;stroke-width:0.5;stroke-miterlimit:10;" width="67.45" height="25.104"/>

		<rect id="tlg07" x="74.418" y="240.238" style="fill:#FFFFFF;stroke:#C0C0C0;stroke-width:0.5;stroke-miterlimit:10;" width="67.45" height="25.104"/>

		<rect id="tlg14" x="142.678" y="164.925" style="fill:#FFFFFF;stroke:#C0C0C0;stroke-width:0.5;stroke-miterlimit:10;" width="67.451" height="25.104"/>

		<rect id="tlg15" x="142.678" y="190.03" style="fill:#FFFFFF;stroke:#C0C0C0;stroke-width:0.5;stroke-miterlimit:10;" width="67.451" height="25.104"/>

		<rect id="tlg16" x="142.678" y="215.134" style="fill:#FFFFFF;stroke:#C0C0C0;stroke-width:0.5;stroke-miterlimit:10;" width="67.451" height="25.104"/>

		<rect id="tlg17" x="142.678" y="240.238" style="fill:#FFFFFF;stroke:#C0C0C0;stroke-width:0.5;stroke-miterlimit:10;" width="67.451" height="25.104"/>

		<rect id="tlg24" x="210.936" y="164.925" style="fill:#FFFFFF;stroke:#C0C0C0;stroke-width:0.5;stroke-miterlimit:10;" width="67.451" height="25.104"/>

		<rect id="tlg25" x="210.936" y="190.03" style="fill:#FFFFFF;stroke:#C0C0C0;stroke-width:0.5;stroke-miterlimit:10;" width="67.451" height="25.104"/>

		<rect id="tlg26" x="210.936" y="215.134" style="fill:#FFFFFF;stroke:#C0C0C0;stroke-width:0.5;stroke-miterlimit:10;" width="67.451" height="25.104"/>

		<rect id="tlg27" x="210.936" y="240.238" style="fill:#FFFFFF;stroke:#C0C0C0;stroke-width:0.5;stroke-miterlimit:10;" width="67.451" height="25.104"/>

		<rect id="tlg34" x="279.194" y="164.925" style="fill:#FFFFFF;stroke:#C0C0C0;stroke-width:0.5;stroke-miterlimit:10;" width="67.451" height="25.104"/>

		<rect id="tlg35" x="279.194" y="190.03" style="fill:#FFFFFF;stroke:#C0C0C0;stroke-width:0.5;stroke-miterlimit:10;" width="67.451" height="25.104"/>

		<rect id="tlg36" x="279.194" y="215.134" style="fill:#FFFFFF;stroke:#C0C0C0;stroke-width:0.5;stroke-miterlimit:10;" width="67.451" height="25.104"/>

		<rect id="tlg37" x="279.194" y="240.238" style="fill:#FFFFFF;stroke:#C0C0C0;stroke-width:0.5;stroke-miterlimit:10;" width="67.451" height="25.104"/>

		<rect id="tlg44" x="347.454" y="164.925" style="fill:#FFFFFF;stroke:#C0C0C0;stroke-width:0.5;stroke-miterlimit:10;" width="67.451" height="25.104"/>

		<rect id="tlg45" x="347.454" y="190.03" style="fill:#FFFFFF;stroke:#C0C0C0;stroke-width:0.5;stroke-miterlimit:10;" width="67.451" height="25.104"/>

		<rect id="tlg46" x="347.454" y="215.134" style="fill:#FFFFFF;stroke:#C0C0C0;stroke-width:0.5;stroke-miterlimit:10;" width="67.451" height="25.104"/>

		<rect id="tlg47" x="347.454" y="240.238" style="fill:#FFFFFF;stroke:#C0C0C0;stroke-width:0.5;stroke-miterlimit:10;" width="67.451" height="25.104"/>

		<rect id="tlg54" x="415.71" y="164.925" style="fill:#FFFFFF;stroke:#C0C0C0;stroke-width:0.5;stroke-miterlimit:10;" width="67.451" height="25.104"/>

		<rect id="tlg55" x="415.71" y="190.03" style="fill:#FFFFFF;stroke:#C0C0C0;stroke-width:0.5;stroke-miterlimit:10;" width="67.451" height="25.104"/>

		<rect id="tlg56" x="415.71" y="215.134" style="fill:#FFFFFF;stroke:#C0C0C0;stroke-width:0.5;stroke-miterlimit:10;" width="67.451" height="25.104"/>

		<rect id="tlg57" x="415.71" y="240.238" style="fill:#FFFFFF;stroke:#C0C0C0;stroke-width:0.5;stroke-miterlimit:10;" width="67.451" height="25.104"/>

		<rect id="tlg64" x="483.129" y="164.925" style="fill:#FFFFFF;stroke:#C0C0C0;stroke-width:0.5;stroke-miterlimit:10;" width="67.452" height="25.104"/>

		<rect id="tlg65" x="483.129" y="190.03" style="fill:#FFFFFF;stroke:#C0C0C0;stroke-width:0.5;stroke-miterlimit:10;" width="67.452" height="25.104"/>

		<rect id="tlg66" x="483.129" y="215.134" style="fill:#FFFFFF;stroke:#C0C0C0;stroke-width:0.5;stroke-miterlimit:10;" width="67.452" height="25.104"/>

		<rect id="tlg67" x="483.129" y="240.238" style="fill:#FFFFFF;stroke:#C0C0C0;stroke-width:0.5;stroke-miterlimit:10;" width="67.452" height="25.104"/>

		<rect id="tlg08" x="73.967" y="265.343" style="fill:#FFFFFF;stroke:#C0C0C0;stroke-width:0.5;stroke-miterlimit:10;" width="67.45" height="25.104"/>

		<rect id="tlg09" x="73.967" y="290.447" style="fill:#FFFFFF;stroke:#C0C0C0;stroke-width:0.5;stroke-miterlimit:10;" width="67.45" height="25.104"/>

		<rect id="tlg010" x="73.967" y="315.551" style="fill:#FFFFFF;stroke:#C0C0C0;stroke-width:0.5;stroke-miterlimit:10;" width="67.45" height="25.104"/>

		<rect id="tlg011" x="73.967" y="340.655" style="fill:#FFFFFF;stroke:#C0C0C0;stroke-width:0.5;stroke-miterlimit:10;" width="67.45" height="25.104"/>

		<rect id="tlg18" x="142.227" y="265.343" style="fill:#FFFFFF;stroke:#C0C0C0;stroke-width:0.5;stroke-miterlimit:10;" width="67.451" height="25.104"/>

		<rect id="tlg19" x="142.227" y="290.447" style="fill:#FFFFFF;stroke:#C0C0C0;stroke-width:0.5;stroke-miterlimit:10;" width="67.451" height="25.104"/>

		<rect id="tlg110" x="142.227" y="315.551" style="fill:#FFFFFF;stroke:#C0C0C0;stroke-width:0.5;stroke-miterlimit:10;" width="67.451" height="25.104"/>

		<rect id="tlg111" x="142.227" y="340.655" style="fill:#FFFFFF;stroke:#C0C0C0;stroke-width:0.5;stroke-miterlimit:10;" width="67.451" height="25.104"/>

		<rect id="tlg28" x="210.484" y="265.343" style="fill:#FFFFFF;stroke:#C0C0C0;stroke-width:0.5;stroke-miterlimit:10;" width="67.451" height="25.104"/>

		<rect id="tlg29" x="210.484" y="290.447" style="fill:#FFFFFF;stroke:#C0C0C0;stroke-width:0.5;stroke-miterlimit:10;" width="67.451" height="25.104"/>

		<rect id="tlg210" x="210.484" y="315.551" style="fill:#FFFFFF;stroke:#C0C0C0;stroke-width:0.5;stroke-miterlimit:10;" width="67.451" height="25.104"/>

		<rect id="tlg211" x="210.484" y="340.655" style="fill:#FFFFFF;stroke:#C0C0C0;stroke-width:0.5;stroke-miterlimit:10;" width="67.451" height="25.104"/>

		<rect id="tlg38" x="278.743" y="265.343" style="fill:#FFFFFF;stroke:#C0C0C0;stroke-width:0.5;stroke-miterlimit:10;" width="67.451" height="25.104"/>

		<rect id="tlg39" x="278.743" y="290.447" style="fill:#FFFFFF;stroke:#C0C0C0;stroke-width:0.5;stroke-miterlimit:10;" width="67.451" height="25.104"/>

		<rect id="tlg310" x="278.743" y="315.551" style="fill:#FFFFFF;stroke:#C0C0C0;stroke-width:0.5;stroke-miterlimit:10;" width="67.451" height="25.104"/>

		<rect id="tlg311" x="278.743" y="340.655" style="fill:#FFFFFF;stroke:#C0C0C0;stroke-width:0.5;stroke-miterlimit:10;" width="67.451" height="25.104"/>

		<rect id="tlg48" x="347.003" y="265.343" style="fill:#FFFFFF;stroke:#C0C0C0;stroke-width:0.5;stroke-miterlimit:10;" width="67.451" height="25.104"/>

		<rect id="tlg49" x="347.003" y="290.447" style="fill:#FFFFFF;stroke:#C0C0C0;stroke-width:0.5;stroke-miterlimit:10;" width="67.451" height="25.104"/>

		<rect id="tlg410" x="347.003" y="315.551" style="fill:#FFFFFF;stroke:#C0C0C0;stroke-width:0.5;stroke-miterlimit:10;" width="67.451" height="25.104"/>

		<rect id="tlg411" x="347.003" y="340.655" style="fill:#FFFFFF;stroke:#C0C0C0;stroke-width:0.5;stroke-miterlimit:10;" width="67.451" height="25.104"/>

		<rect id="tlg58" x="415.259" y="265.343" style="fill:#FFFFFF;stroke:#C0C0C0;stroke-width:0.5;stroke-miterlimit:10;" width="67.451" height="25.104"/>

		<rect id="tlg59" x="415.259" y="290.447" style="fill:#FFFFFF;stroke:#C0C0C0;stroke-width:0.5;stroke-miterlimit:10;" width="67.451" height="25.104"/>

		<rect id="tlg510" x="415.259" y="315.551" style="fill:#FFFFFF;stroke:#C0C0C0;stroke-width:0.5;stroke-miterlimit:10;" width="67.451" height="25.104"/>

		<rect id="tlg511" x="415.259" y="340.655" style="fill:#FFFFFF;stroke:#C0C0C0;stroke-width:0.5;stroke-miterlimit:10;" width="67.451" height="25.104"/>

		<rect id="tlg68" x="482.678" y="265.343" style="fill:#FFFFFF;stroke:#C0C0C0;stroke-width:0.5;stroke-miterlimit:10;" width="67.452" height="25.104"/>

		<rect id="tlg69" x="482.678" y="290.447" style="fill:#FFFFFF;stroke:#C0C0C0;stroke-width:0.5;stroke-miterlimit:10;" width="67.452" height="25.104"/>

		<rect id="tlg610" x="482.678" y="315.551" style="fill:#FFFFFF;stroke:#C0C0C0;stroke-width:0.5;stroke-miterlimit:10;" width="67.452" height="25.104"/>

		<rect id="tlg611" x="482.678" y="340.655" style="fill:#FFFFFF;stroke:#C0C0C0;stroke-width:0.5;stroke-miterlimit:10;" width="67.452" height="25.104"/>

		<rect id="tlg012" x="74.388" y="365.759" style="fill:#FFFFFF;stroke:#C0C0C0;stroke-width:0.5;stroke-miterlimit:10;" width="67.45" height="25.105"/>

		<rect id="tlg112" x="142.648" y="365.759" style="fill:#FFFFFF;stroke:#C0C0C0;stroke-width:0.5;stroke-miterlimit:10;" width="67.451" height="25.105"/>

		<rect id="tlg212" x="210.905" y="365.759" style="fill:#FFFFFF;stroke:#C0C0C0;stroke-width:0.5;stroke-miterlimit:10;" width="67.451" height="25.105"/>

		<rect id="tlg312" x="279.164" y="365.759" style="fill:#FFFFFF;stroke:#C0C0C0;stroke-width:0.5;stroke-miterlimit:10;" width="67.45" height="25.105"/>

		<rect id="tlg412" x="347.424" y="365.759" style="fill:#FFFFFF;stroke:#C0C0C0;stroke-width:0.5;stroke-miterlimit:10;" width="67.45" height="25.105"/>

		<rect id="tlg512" x="415.68" y="365.759" style="fill:#FFFFFF;stroke:#C0C0C0;stroke-width:0.5;stroke-miterlimit:10;" width="67.45" height="25.105"/>

		<rect id="tlg612" x="483.1" y="365.759" style="fill:#FFFFFF;stroke:#C0C0C0;stroke-width:0.5;stroke-miterlimit:10;" width="67.451" height="25.105"/>

		<rect id="tlg013" x="74.388" y="390.864" style="fill:#FFFFFF;stroke:#C0C0C0;stroke-width:0.5;stroke-miterlimit:10;" width="67.45" height="25.105"/>

		<rect id="tlg113" x="142.648" y="390.864" style="fill:#FFFFFF;stroke:#C0C0C0;stroke-width:0.5;stroke-miterlimit:10;" width="67.451" height="25.105"/>

		<rect id="tlg213" x="210.905" y="390.864" style="fill:#FFFFFF;stroke:#C0C0C0;stroke-width:0.5;stroke-miterlimit:10;" width="67.451" height="25.105"/>

		<rect id="tlg313" x="279.164" y="390.864" style="fill:#FFFFFF;stroke:#C0C0C0;stroke-width:0.5;stroke-miterlimit:10;" width="67.45" height="25.105"/>

		<rect id="tlg413" x="347.424" y="390.864" style="fill:#FFFFFF;stroke:#C0C0C0;stroke-width:0.5;stroke-miterlimit:10;" width="67.45" height="25.105"/>

		<rect id="tlg513" x="415.68" y="390.864" style="fill:#FFFFFF;stroke:#C0C0C0;stroke-width:0.5;stroke-miterlimit:10;" width="67.45" height="25.105"/>

		<rect id="tlg613" x="483.1" y="390.864" style="fill:#FFFFFF;stroke:#C0C0C0;stroke-width:0.5;stroke-miterlimit:10;" width="67.451" height="25.105"/>

		<rect id="tlg014" x="74.387" y="415.97" style="fill:#FFFFFF;stroke:#C0C0C0;stroke-width:0.5;stroke-miterlimit:10;" width="67.451" height="25.105"/>

		<rect id="tlg114" x="142.647" y="415.97" style="fill:#FFFFFF;stroke:#C0C0C0;stroke-width:0.5;stroke-miterlimit:10;" width="67.451" height="25.105"/>

		<rect id="tlg214" x="210.904" y="415.97" style="fill:#FFFFFF;stroke:#C0C0C0;stroke-width:0.5;stroke-miterlimit:10;" width="67.451" height="25.105"/>

		<rect id="tlg314" x="279.164" y="415.97" style="fill:#FFFFFF;stroke:#C0C0C0;stroke-width:0.5;stroke-miterlimit:10;" width="67.45" height="25.105"/>

		<rect id="tlg414" x="347.423" y="415.97" style="fill:#FFFFFF;stroke:#C0C0C0;stroke-width:0.5;stroke-miterlimit:10;" width="67.451" height="25.105"/>

		<rect id="tlg514" x="415.679" y="415.97" style="fill:#FFFFFF;stroke:#C0C0C0;stroke-width:0.5;stroke-miterlimit:10;" width="67.451" height="25.105"/>

		<rect id="tlg614" x="483.099" y="415.97" style="fill:#FFFFFF;stroke:#C0C0C0;stroke-width:0.5;stroke-miterlimit:10;" width="67.451" height="25.105"/>
</g>
<g id="Grid">
	<g id="SundayColumn">
		<rect id="b60" x="483.549" y="64.754" style="fill:none;stroke:#C0C0C0;stroke-miterlimit:10;" width="67.451" height="376.566"/>
	</g>
	<g id="SaturdayColumn">
		<rect id="b50" x="415.29" y="64.5" style="fill:none;stroke:#C0C0C0;stroke-miterlimit:10;" width="67.45" height="376.821"/>
	</g>
	<g id="FridayColumn">
		<rect id="b40" x="347.033" y="64.5" style="fill:none;stroke:#C0C0C0;stroke-miterlimit:10;" width="67.45" height="376.821"/>
	</g>
	<g id="ThursdayColumn">
		<rect id="b30" x="278.775" y="64.5" style="fill:none;stroke:#C0C0C0;stroke-miterlimit:10;" width="67.447" height="376.821"/>
	</g>
	<g id="WednesdayColumn">
		<rect id="b20" x="210.516" y="64.5" style="fill:none;stroke:#C0C0C0;stroke-miterlimit:10;" width="67.449" height="376.82"/>
	</g>
	<g id="TuesdayColumn">
		<rect id="b10" x="142.258" y="64.5" style="fill:none;stroke:#C0C0C0;stroke-miterlimit:10;" width="67.45" height="376.821"/>
	</g>
	<g id="MondayColumn">
		<rect id="b00" x="73.999" y="64.5" style="fill:none;stroke:#C0C0C0;stroke-miterlimit:10;" width="67.449" height="376.821"/>
	</g>
</g>
<g id="LinkMenuLayer">
	<rect x="241.126" y="448.611" style="fill:none;" width="262.661" height="25.986"/>
	<text id="displayModeMonth" transform="matrix(1 0 0 1 241.126 462.2148)" style="font-family:'ArialMT'; font-size:19;">Month</text>
	<rect x="194.709" y="448.611" style="fill:none;" width="301.907" height="25.986"/>
	<text id="displayModeWeek" transform="matrix(1 0 0 1 194.709 462.2148)" style="font-family:'ArialMT'; font-size:19;">Week</text>
	<rect x="109.199" y="448.611" style="fill:none;" width="338.181" height="25.986"/>
	<text id="displayModeWorkWeek" transform="matrix(1 0 0 1 109.1992 462.2148)" style="font-family:'ArialMT'; font-size:19;">Workweek</text>
	<rect x="73.297" y="448.611" style="fill:none;" width="311.998" height="25.986"/>
	<text id="displayModeDay" transform="matrix(1 0 0 1 73.2969 462.2148)" style="font-family:'ArialMT'; font-size:19;">Day</text>
</g>
<g id="MenuLayer">

		<rect id="menuBox" x="525.181" y="448.693" style="display:none;fill:#FFFFFF;stroke:#000000;stroke-miterlimit:10;" width="25.819" height="25.822"/>
	<polygon id="menuArrow" style="display:none;stroke:#000000;stroke-miterlimit:10;" points="548.447,455.952 538.212,467.556
		527.978,455.952 	"/>
</g>
<g id="HeaderLayer">
	<rect x="517.86" y="36.016" style="fill:none;" width="65.442" height="25.984"/>
	<text id="So" transform="matrix(1 0 0 1 517.8604 49.6196)" style="font-family:'ArialMT'; font-size:19;">So#C</text>
	<rect x="450.019" y="36.016" style="fill:none;" width="65.444" height="25.984"/>
	<text id="Sa" transform="matrix(1 0 0 1 450.0186 49.6196)" style="font-family:'ArialMT'; font-size:19;">Sa#C</text>
	<rect x="382.185" y="36.016" style="fill:none;" width="65.441" height="25.984"/>
	<text id="Fr" transform="matrix(1 0 0 1 382.1846 49.6196)" style="font-family:'ArialMT'; font-size:19;">Fr#C</text>
	<rect x="313.924" y="36.016" style="fill:none;" width="65.443" height="25.984"/>
	<text id="Th" transform="matrix(1 0 0 1 313.9238 49.6196)" style="font-family:'ArialMT'; font-size:19;">Th#C</text>
	<rect x="245.778" y="36.016" style="fill:none;" width="65.444" height="25.984"/>
	<text id="We" transform="matrix(1 0 0 1 245.7778 49.6196)" style="font-family:'ArialMT'; font-size:19;">We#C</text>
	<rect x="176.987" y="36.016" style="fill:none;" width="65.444" height="25.984"/>
	<text id="Tu" transform="matrix(1 0 0 1 176.9868 49.6196)" style="font-family:'ArialMT'; font-size:19;">Tu#C</text>
	<rect x="107.692" y="36.016" style="fill:none;" width="65.442" height="25.984"/>
	<text id="Mo" transform="matrix(1 0 0 1 107.6919 49.6196)" style="font-family:'ArialMT'; font-size:19;">Mo#C</text>
	<rect x="271.756" y="5" style="fill:none;" width="389.524" height="25.985"/>
	<text id="Title" transform="matrix(1 0 0 1 271.7559 18.604)" style="font-family:'ArialMT'; font-size:19;">Title#C</text>
</g>
<g id="Components">
</g>
<g id="GridText">
	<g id="SundayCol">
		<rect x="514.008" y="71.757" style="fill:none;" width="73.147" height="49.51"/>
		<text id="t60" transform="matrix(1 0 0 1 514.0078 84.645)" style="font-family:'ArialMT'; font-size:18;">60#C</text>
	</g>
	<g id="SaturdayCol">
		<rect x="446.588" y="71.758" style="fill:none;" width="73.147" height="49.51"/>
		<text id="t50" transform="matrix(1 0 0 1 446.5879 84.6455)" style="font-family:'ArialMT'; font-size:18;">50#C</text>
	</g>
	<g id="FridayCol">
		<rect x="377.909" y="71.758" style="fill:none;" width="73.149" height="49.51"/>
		<text id="t40" transform="matrix(1 0 0 1 377.9092 84.6455)" style="font-family:'ArialMT'; font-size:18;">40#C</text>
	</g>
	<g id="ThursdayCol">
		<rect x="310.071" y="71.758" style="fill:none;" width="73.147" height="49.51"/>
		<text id="t30" transform="matrix(1 0 0 1 310.0713 84.6455)" style="font-family:'ArialMT'; font-size:18;">30#C</text>
	</g>
	<g id="WednesdayCol">
		<rect x="242.621" y="71.758" style="fill:none;" width="73.148" height="49.51"/>
		<text id="t20" transform="matrix(1 0 0 1 242.6206 84.6455)" style="font-family:'ArialMT'; font-size:18;">20#C</text>
	</g>
	<g id="TuesdayCol">
		<rect x="173.556" y="71.757" style="fill:none;" width="73.147" height="49.51"/>
		<text id="t10" transform="matrix(1 0 0 1 173.5557 84.645)" style="font-family:'ArialMT'; font-size:18;">10#C</text>
	</g>
	<g id="MondayCol">
		<rect x="107.692" y="71.757" style="fill:none;" width="73.148" height="49.511"/>
		<text id="t00" transform="matrix(1 0 0 1 107.6919 84.645)" style="font-family:'ArialMT'; font-size:18;">00#C</text>
	</g>
</g>
<g id="TimeLineText">
	<rect x="6.377" y="91.731" style="fill:none;" width="57.371" height="20.414"/>
	<text id="tlt0" transform="matrix(1 0 0 1 6.3774 104.6187)" style="fill:#9D9D9C; font-family:'ArialMT'; font-size:18;">early</text>
	<rect x="6.377" y="116.646" style="fill:none;" width="57.371" height="20.414"/>
	<text id="tlt1" transform="matrix(1 0 0 1 6.377 129.5342)" style="fill:#9D9D9C; font-family:'ArialMT'; font-size:18;">07:00</text>
	<rect x="6.377" y="142.112" style="fill:none;" width="57.371" height="20.414"/>
	<text id="tlt2" transform="matrix(1 0 0 1 6.377 154.9995)" style="fill:#9D9D9C; font-family:'ArialMT'; font-size:18;">08:00</text>
	<rect x="6.377" y="167.578" style="fill:none;" width="57.371" height="20.414"/>
	<text id="tlt3" transform="matrix(1 0 0 1 6.377 180.4658)" style="fill:#9D9D9C; font-family:'ArialMT'; font-size:18;">09:00</text>
	<rect x="6.377" y="193.044" style="fill:none;" width="57.371" height="20.414"/>
	<text id="tlt4" transform="matrix(1 0 0 1 6.377 205.9316)" style="fill:#9D9D9C; font-family:'ArialMT'; font-size:18;">10:00</text>
	<rect x="6.377" y="218.51" style="fill:none;" width="57.371" height="20.413"/>
	<text id="tlt5" transform="matrix(1 0 0 1 6.377 231.3975)" style="fill:#9D9D9C; font-family:'ArialMT'; font-size:18;">11:00</text>
	<rect x="6.377" y="243.975" style="fill:none;" width="57.371" height="20.414"/>
	<text id="tlt6" transform="matrix(1 0 0 1 6.377 256.8623)" style="fill:#9D9D9C; font-family:'ArialMT'; font-size:18;">12:00</text>
	<rect x="6.377" y="269.441" style="fill:none;" width="57.371" height="20.414"/>
	<text id="tlt7" transform="matrix(1 0 0 1 6.377 282.3286)" style="fill:#9D9D9C; font-family:'ArialMT'; font-size:18;">13:00</text>
	<rect x="6.377" y="295.354" style="fill:none;" width="57.371" height="20.414"/>
	<text id="tlt8" transform="matrix(1 0 0 1 6.377 308.2412)" style="fill:#9D9D9C; font-family:'ArialMT'; font-size:18;">14:00</text>
	<rect x="6.377" y="320.373" style="fill:none;" width="57.371" height="20.414"/>
	<text id="tlt9" transform="matrix(1 0 0 1 6.377 333.2603)" style="fill:#9D9D9C; font-family:'ArialMT'; font-size:18;">15:00</text>
	<rect x="6.377" y="345.838" style="fill:none;" width="57.371" height="20.414"/>
	<text id="tlt10" transform="matrix(1 0 0 1 6.377 358.7256)" style="fill:#9D9D9C; font-family:'ArialMT'; font-size:18;">16:00</text>
	<rect x="6.377" y="371.304" style="fill:none;" width="57.371" height="20.413"/>
	<text id="tlt11" transform="matrix(1 0 0 1 6.377 384.1914)" style="fill:#9D9D9C; font-family:'ArialMT'; font-size:18;">17:00</text>
	<rect x="6.377" y="396.771" style="fill:none;" width="57.371" height="20.413"/>
	<text id="tlt12" transform="matrix(1 0 0 1 6.377 409.6582)" style="fill:#9D9D9C; font-family:'ArialMT'; font-size:18;">18:00</text>
	<rect x="6.377" y="422.236" style="fill:none;" width="57.371" height="20.414"/>
	<text id="tlt13" transform="matrix(1 0 0 1 6.377 435.124)" style="fill:#9D9D9C; font-family:'ArialMT'; font-size:18;">late</text>
</g>
<g id="ArrowLayer">
	<g id="prevYear">
		<polygon style="stroke:#000000;stroke-miterlimit:10;" points="8.734,7.529 8.757,18.003 3.999,12.776 		"/>
		<polygon style="stroke:#000000;stroke-miterlimit:10;" points="14.365,7.529 14.388,18.003 9.629,12.776 		"/>
	</g>
	<polygon id="prevMonth" style="stroke:#000000;stroke-miterlimit:10;" points="42.651,8.026 42.673,18.5 37.915,13.273 	"/>
	<g id="nextYear">
		<polygon style="stroke:#000000;stroke-miterlimit:10;" points="546.264,18.252 546.241,7.778 551,13.005 		"/>
		<polygon style="stroke:#000000;stroke-miterlimit:10;" points="540.633,18.252 540.61,7.778 545.369,13.005 		"/>
	</g>
	<polygon id="nextMonth" style="stroke:#000000;stroke-miterlimit:10;" points="512.349,18.252 512.325,7.778 517.084,13.005 	"/>
</g>
</svg>
