<?xml version="1.0" encoding="utf-8"?>
<!-- Generator: Adobe Illustrator 15.0.2, SVG Export Plug-In . SVG Version: 6.00 Build 0)  -->
<!DOCTYPE svg PUBLIC "-//W3C//DTD SVG 1.1//EN" "http://www.w3.org/Graphics/SVG/1.1/DTD/svg11.dtd">
<svg version="1.1" xmlns="http://www.w3.org/2000/svg" xmlns:xlink="http://www.w3.org/1999/xlink" x="0px" y="0px" width="557px"
	 height="475.516px" viewBox="0 0 557 475.516" style="enable-background:new 0 0 557 475.516;" xml:space="preserve">
<g id="TimeLineGrid">

		<rect id="tlg00" x="73.535" y="64.582" style="fill:#FFFFFF;stroke:#C0C0C0;stroke-width:0.5;stroke-miterlimit:10;" width="94.594" height="25.132"/>

		<rect id="tlg01" x="73.535" y="89.714" style="fill:#FFFFFF;stroke:#C0C0C0;stroke-width:0.5;stroke-miterlimit:10;" width="94.594" height="25.131"/>

		<rect id="tlg02" x="73.535" y="114.845" style="fill:#FFFFFF;stroke:#C0C0C0;stroke-width:0.5;stroke-miterlimit:10;" width="94.594" height="25.131"/>

		<rect id="tlg03" x="73.535" y="139.976" style="fill:#FFFFFF;stroke:#C0C0C0;stroke-width:0.5;stroke-miterlimit:10;" width="94.594" height="25.131"/>

		<rect id="tlg10" x="169.265" y="64.582" style="fill:#FFFFFF;stroke:#C0C0C0;stroke-width:0.5;stroke-miterlimit:10;" width="94.595" height="25.132"/>

		<rect id="tlg11" x="169.265" y="89.714" style="fill:#FFFFFF;stroke:#C0C0C0;stroke-width:0.5;stroke-miterlimit:10;" width="94.595" height="25.131"/>

		<rect id="tlg12" x="169.265" y="114.845" style="fill:#FFFFFF;stroke:#C0C0C0;stroke-width:0.5;stroke-miterlimit:10;" width="94.595" height="25.131"/>

		<rect id="tlg13" x="169.265" y="139.976" style="fill:#FFFFFF;stroke:#C0C0C0;stroke-width:0.5;stroke-miterlimit:10;" width="94.595" height="25.131"/>

		<rect id="tlg20" x="264.991" y="64.582" style="fill:#FFFFFF;stroke:#C0C0C0;stroke-width:0.5;stroke-miterlimit:10;" width="94.596" height="25.132"/>

		<rect id="tlg21" x="264.991" y="89.714" style="fill:#FFFFFF;stroke:#C0C0C0;stroke-width:0.5;stroke-miterlimit:10;" width="94.596" height="25.131"/>

		<rect id="tlg22" x="264.991" y="114.845" style="fill:#FFFFFF;stroke:#C0C0C0;stroke-width:0.5;stroke-miterlimit:10;" width="94.596" height="25.131"/>

		<rect id="tlg23" x="264.991" y="139.976" style="fill:#FFFFFF;stroke:#C0C0C0;stroke-width:0.5;stroke-miterlimit:10;" width="94.596" height="25.131"/>

		<rect id="tlg30" x="360.719" y="64.582" style="fill:#FFFFFF;stroke:#C0C0C0;stroke-width:0.5;stroke-miterlimit:10;" width="94.596" height="25.132"/>

		<rect id="tlg31" x="360.719" y="89.714" style="fill:#FFFFFF;stroke:#C0C0C0;stroke-width:0.5;stroke-miterlimit:10;" width="94.596" height="25.131"/>

		<rect id="tlg32" x="360.719" y="114.845" style="fill:#FFFFFF;stroke:#C0C0C0;stroke-width:0.5;stroke-miterlimit:10;" width="94.596" height="25.131"/>

		<rect id="tlg33" x="360.719" y="139.976" style="fill:#FFFFFF;stroke:#C0C0C0;stroke-width:0.5;stroke-miterlimit:10;" width="94.596" height="25.131"/>

		<rect id="tlg40" x="456.447" y="64.582" style="fill:#FFFFFF;stroke:#C0C0C0;stroke-width:0.5;stroke-miterlimit:10;" width="94.596" height="25.132"/>

		<rect id="tlg41" x="456.447" y="89.714" style="fill:#FFFFFF;stroke:#C0C0C0;stroke-width:0.5;stroke-miterlimit:10;" width="94.596" height="25.131"/>

		<rect id="tlg42" x="456.447" y="114.845" style="fill:#FFFFFF;stroke:#C0C0C0;stroke-width:0.5;stroke-miterlimit:10;" width="94.596" height="25.131"/>

		<rect id="tlg43" x="456.447" y="139.976" style="fill:#FFFFFF;stroke:#C0C0C0;stroke-width:0.5;stroke-miterlimit:10;" width="94.596" height="25.131"/>

		<rect id="tlg04" x="73.125" y="165.107" style="fill:#FFFFFF;stroke:#C0C0C0;stroke-width:0.5;stroke-miterlimit:10;" width="94.595" height="25.131"/>

		<rect id="tlg05" x="73.125" y="190.239" style="fill:#FFFFFF;stroke:#C0C0C0;stroke-width:0.5;stroke-miterlimit:10;" width="94.595" height="25.13"/>

		<rect id="tlg06" x="73.125" y="215.369" style="fill:#FFFFFF;stroke:#C0C0C0;stroke-width:0.5;stroke-miterlimit:10;" width="94.595" height="25.132"/>

		<rect id="tlg07" x="73.125" y="240.501" style="fill:#FFFFFF;stroke:#C0C0C0;stroke-width:0.5;stroke-miterlimit:10;" width="94.595" height="25.131"/>

		<rect id="tlg14" x="168.855" y="165.107" style="fill:#FFFFFF;stroke:#C0C0C0;stroke-width:0.5;stroke-miterlimit:10;" width="94.595" height="25.131"/>

		<rect id="tlg15" x="168.855" y="190.239" style="fill:#FFFFFF;stroke:#C0C0C0;stroke-width:0.5;stroke-miterlimit:10;" width="94.595" height="25.13"/>

		<rect id="tlg16" x="168.855" y="215.369" style="fill:#FFFFFF;stroke:#C0C0C0;stroke-width:0.5;stroke-miterlimit:10;" width="94.595" height="25.132"/>

		<rect id="tlg17" x="168.855" y="240.501" style="fill:#FFFFFF;stroke:#C0C0C0;stroke-width:0.5;stroke-miterlimit:10;" width="94.595" height="25.131"/>

		<rect id="tlg24" x="264.581" y="165.107" style="fill:#FFFFFF;stroke:#C0C0C0;stroke-width:0.5;stroke-miterlimit:10;" width="94.596" height="25.131"/>

		<rect id="tlg25" x="264.581" y="190.239" style="fill:#FFFFFF;stroke:#C0C0C0;stroke-width:0.5;stroke-miterlimit:10;" width="94.596" height="25.13"/>

		<rect id="tlg26" x="264.581" y="215.369" style="fill:#FFFFFF;stroke:#C0C0C0;stroke-width:0.5;stroke-miterlimit:10;" width="94.596" height="25.132"/>

		<rect id="tlg27" x="264.581" y="240.501" style="fill:#FFFFFF;stroke:#C0C0C0;stroke-width:0.5;stroke-miterlimit:10;" width="94.596" height="25.131"/>

		<rect id="tlg34" x="360.309" y="165.107" style="fill:#FFFFFF;stroke:#C0C0C0;stroke-width:0.5;stroke-miterlimit:10;" width="94.596" height="25.131"/>

		<rect id="tlg35" x="360.309" y="190.239" style="fill:#FFFFFF;stroke:#C0C0C0;stroke-width:0.5;stroke-miterlimit:10;" width="94.596" height="25.13"/>

		<rect id="tlg36" x="360.309" y="215.369" style="fill:#FFFFFF;stroke:#C0C0C0;stroke-width:0.5;stroke-miterlimit:10;" width="94.596" height="25.132"/>

		<rect id="tlg37" x="360.309" y="240.501" style="fill:#FFFFFF;stroke:#C0C0C0;stroke-width:0.5;stroke-miterlimit:10;" width="94.596" height="25.131"/>

		<rect id="tlg44" x="456.037" y="165.107" style="fill:#FFFFFF;stroke:#C0C0C0;stroke-width:0.5;stroke-miterlimit:10;" width="94.596" height="25.131"/>

		<rect id="tlg45" x="456.037" y="190.239" style="fill:#FFFFFF;stroke:#C0C0C0;stroke-width:0.5;stroke-miterlimit:10;" width="94.596" height="25.13"/>

		<rect id="tlg46" x="456.037" y="215.369" style="fill:#FFFFFF;stroke:#C0C0C0;stroke-width:0.5;stroke-miterlimit:10;" width="94.596" height="25.132"/>

		<rect id="tlg47" x="456.037" y="240.501" style="fill:#FFFFFF;stroke:#C0C0C0;stroke-width:0.5;stroke-miterlimit:10;" width="94.596" height="25.131"/>

		<rect id="tlg08" x="73.492" y="265.632" style="fill:#FFFFFF;stroke:#C0C0C0;stroke-width:0.5;stroke-miterlimit:10;" width="94.595" height="25.132"/>

		<rect id="tlg09" x="73.492" y="290.764" style="fill:#FFFFFF;stroke:#C0C0C0;stroke-width:0.5;stroke-miterlimit:10;" width="94.595" height="25.131"/>

		<rect id="tlg010" x="73.492" y="315.895" style="fill:#FFFFFF;stroke:#C0C0C0;stroke-width:0.5;stroke-miterlimit:10;" width="94.595" height="25.13"/>

		<rect id="tlg011" x="73.492" y="341.025" style="fill:#FFFFFF;stroke:#C0C0C0;stroke-width:0.5;stroke-miterlimit:10;" width="94.595" height="25.131"/>

		<rect id="tlg18" x="169.222" y="265.632" style="fill:#FFFFFF;stroke:#C0C0C0;stroke-width:0.5;stroke-miterlimit:10;" width="94.595" height="25.132"/>

		<rect id="tlg19" x="169.222" y="290.764" style="fill:#FFFFFF;stroke:#C0C0C0;stroke-width:0.5;stroke-miterlimit:10;" width="94.595" height="25.131"/>

		<rect id="tlg110" x="169.222" y="315.895" style="fill:#FFFFFF;stroke:#C0C0C0;stroke-width:0.5;stroke-miterlimit:10;" width="94.595" height="25.13"/>

		<rect id="tlg111" x="169.222" y="341.025" style="fill:#FFFFFF;stroke:#C0C0C0;stroke-width:0.5;stroke-miterlimit:10;" width="94.595" height="25.131"/>

		<rect id="tlg28" x="264.948" y="265.632" style="fill:#FFFFFF;stroke:#C0C0C0;stroke-width:0.5;stroke-miterlimit:10;" width="94.595" height="25.132"/>

		<rect id="tlg29" x="264.948" y="290.764" style="fill:#FFFFFF;stroke:#C0C0C0;stroke-width:0.5;stroke-miterlimit:10;" width="94.595" height="25.131"/>

		<rect id="tlg210" x="264.948" y="315.895" style="fill:#FFFFFF;stroke:#C0C0C0;stroke-width:0.5;stroke-miterlimit:10;" width="94.595" height="25.13"/>

		<rect id="tlg211" x="264.948" y="341.025" style="fill:#FFFFFF;stroke:#C0C0C0;stroke-width:0.5;stroke-miterlimit:10;" width="94.595" height="25.131"/>

		<rect id="tlg38" x="360.676" y="265.632" style="fill:#FFFFFF;stroke:#C0C0C0;stroke-width:0.5;stroke-miterlimit:10;" width="94.595" height="25.132"/>

		<rect id="tlg39" x="360.676" y="290.764" style="fill:#FFFFFF;stroke:#C0C0C0;stroke-width:0.5;stroke-miterlimit:10;" width="94.595" height="25.131"/>

		<rect id="tlg310" x="360.676" y="315.895" style="fill:#FFFFFF;stroke:#C0C0C0;stroke-width:0.5;stroke-miterlimit:10;" width="94.595" height="25.13"/>

		<rect id="tlg311" x="360.676" y="341.025" style="fill:#FFFFFF;stroke:#C0C0C0;stroke-width:0.5;stroke-miterlimit:10;" width="94.595" height="25.131"/>

		<rect id="tlg48" x="456.404" y="265.632" style="fill:#FFFFFF;stroke:#C0C0C0;stroke-width:0.5;stroke-miterlimit:10;" width="94.596" height="25.132"/>

		<rect id="tlg49" x="456.404" y="290.764" style="fill:#FFFFFF;stroke:#C0C0C0;stroke-width:0.5;stroke-miterlimit:10;" width="94.596" height="25.131"/>

		<rect id="tlg410" x="456.404" y="315.895" style="fill:#FFFFFF;stroke:#C0C0C0;stroke-width:0.5;stroke-miterlimit:10;" width="94.596" height="25.13"/>

		<rect id="tlg411" x="456.404" y="341.025" style="fill:#FFFFFF;stroke:#C0C0C0;stroke-width:0.5;stroke-miterlimit:10;" width="94.596" height="25.131"/>

		<rect id="tlg012" x="73.082" y="366.156" style="fill:#FFFFFF;stroke:#C0C0C0;stroke-width:0.5;stroke-miterlimit:10;" width="94.594" height="25.133"/>

		<rect id="tlg112" x="168.812" y="366.156" style="fill:#FFFFFF;stroke:#C0C0C0;stroke-width:0.5;stroke-miterlimit:10;" width="94.595" height="25.133"/>

		<rect id="tlg212" x="264.538" y="366.156" style="fill:#FFFFFF;stroke:#C0C0C0;stroke-width:0.5;stroke-miterlimit:10;" width="94.595" height="25.133"/>

		<rect id="tlg312" x="360.266" y="366.156" style="fill:#FFFFFF;stroke:#C0C0C0;stroke-width:0.5;stroke-miterlimit:10;" width="94.595" height="25.133"/>

		<rect id="tlg412" x="455.994" y="366.156" style="fill:#FFFFFF;stroke:#C0C0C0;stroke-width:0.5;stroke-miterlimit:10;" width="94.596" height="25.133"/>

		<rect id="tlg013" x="73.082" y="391.289" style="fill:#FFFFFF;stroke:#C0C0C0;stroke-width:0.5;stroke-miterlimit:10;" width="94.594" height="25.132"/>

		<rect id="tlg113" x="168.812" y="391.289" style="fill:#FFFFFF;stroke:#C0C0C0;stroke-width:0.5;stroke-miterlimit:10;" width="94.595" height="25.132"/>

		<rect id="tlg213" x="264.538" y="391.289" style="fill:#FFFFFF;stroke:#C0C0C0;stroke-width:0.5;stroke-miterlimit:10;" width="94.595" height="25.132"/>

		<rect id="tlg313" x="360.266" y="391.289" style="fill:#FFFFFF;stroke:#C0C0C0;stroke-width:0.5;stroke-miterlimit:10;" width="94.595" height="25.132"/>

		<rect id="tlg413" x="455.994" y="391.289" style="fill:#FFFFFF;stroke:#C0C0C0;stroke-width:0.5;stroke-miterlimit:10;" width="94.596" height="25.132"/>

		<rect id="tlg014" x="72.858" y="416.421" style="fill:#FFFFFF;stroke:#C0C0C0;stroke-width:0.5;stroke-miterlimit:10;" width="94.594" height="25.133"/>

		<rect id="tlg114" x="168.588" y="416.421" style="fill:#FFFFFF;stroke:#C0C0C0;stroke-width:0.5;stroke-miterlimit:10;" width="94.596" height="25.133"/>

		<rect id="tlg214" x="264.314" y="416.421" style="fill:#FFFFFF;stroke:#C0C0C0;stroke-width:0.5;stroke-miterlimit:10;" width="94.596" height="25.133"/>

		<rect id="tlg314" x="360.042" y="416.421" style="fill:#FFFFFF;stroke:#C0C0C0;stroke-width:0.5;stroke-miterlimit:10;" width="94.596" height="25.133"/>

		<rect id="tlg414" x="455.771" y="416.421" style="fill:#FFFFFF;stroke:#C0C0C0;stroke-width:0.5;stroke-miterlimit:10;" width="94.596" height="25.133"/>
</g>
<g id="Grid">
	<g id="FridayColumn">
		<rect id="b40" x="456.242" y="64.5" style="fill:none;stroke:#C0C0C0;stroke-miterlimit:10;" width="94.758" height="376.821"/>
	</g>
	<g id="ThursdayColumn">
		<rect id="b30" x="360.35" y="64.5" style="fill:none;stroke:#C0C0C0;stroke-miterlimit:10;" width="94.753" height="376.821"/>
	</g>
	<g id="WednesdayColumn">
		<rect id="b20" x="264.455" y="64.5" style="fill:none;stroke:#C0C0C0;stroke-miterlimit:10;" width="94.755" height="376.82"/>
	</g>
	<g id="TuesdayColumn">
		<rect id="b10" x="168.562" y="64.5" style="fill:none;stroke:#C0C0C0;stroke-miterlimit:10;" width="94.757" height="376.821"/>
	</g>
	<g id="MondayColumn">
		<rect id="b00" x="72.667" y="64.5" style="fill:none;stroke:#C0C0C0;stroke-miterlimit:10;" width="94.757" height="376.821"/>
	</g>
</g>
<g id="LinkMenuLayer">
	<rect x="259.311" y="448.611" style="fill:none;" width="294.476" height="25.986"/>
	<text id="displayModeMonth" transform="matrix(1 0 0 1 259.311 462.2148)" style="font-family:'ArialMT'; font-size:19;">Month</text>
	<rect x="207.271" y="448.611" style="fill:none;" width="338.477" height="25.986"/>
	<text id="displayModeWeek" transform="matrix(1 0 0 1 207.2715 462.2148)" style="font-family:'ArialMT'; font-size:19;">Week</text>
	<rect x="111.404" y="448.611" style="fill:none;" width="379.144" height="25.986"/>
	<text id="displayModeWorkWeek" transform="matrix(1 0 0 1 111.4043 462.2148)" style="font-family:'ArialMT'; font-size:19;">Workweek</text>
	<rect x="71.153" y="448.611" style="fill:none;" width="349.789" height="25.986"/>
	<text id="displayModeDay" transform="matrix(1 0 0 1 71.1533 462.2148)" style="font-family:'ArialMT'; font-size:19;">Day</text>
</g>
<g id="MenuLayer">

		<rect id="menuBox" x="525.181" y="448.693" style="display:none;fill:#FFFFFF;stroke:#000000;stroke-miterlimit:10;" width="25.819" height="25.822"/>
	<polygon id="menuArrow" style="display:none;stroke:#000000;stroke-miterlimit:10;" points="548.447,455.952 538.212,467.556
		527.978,455.952 	"/>
</g>
<g id="HeaderLayer">
	<rect x="502.225" y="36.016" style="fill:none;" width="74.772" height="25.984"/>
	<text id="Fr" transform="matrix(1 0 0 1 502.2246 49.6196)" style="font-family:'ArialMT'; font-size:19;">Fr#C</text>
	<rect x="407.34" y="36.016" style="fill:none;" width="74.774" height="25.984"/>
	<text id="Th" transform="matrix(1 0 0 1 407.3398 49.6196)" style="font-family:'ArialMT'; font-size:19;">Th#C</text>
	<rect x="309.51" y="36.016" style="fill:none;" width="74.774" height="25.984"/>
	<text id="We" transform="matrix(1 0 0 1 309.5098 49.6196)" style="font-family:'ArialMT'; font-size:19;">We#C</text>
	<rect x="216.52" y="36.016" style="fill:none;" width="74.775" height="25.984"/>
	<text id="Tu" transform="matrix(1 0 0 1 216.5195 49.6196)" style="font-family:'ArialMT'; font-size:19;">Tu#C</text>
	<rect x="120.045" y="36.016" style="fill:none;" width="74.774" height="25.984"/>
	<text id="Mo" transform="matrix(1 0 0 1 120.0449 49.6196)" style="font-family:'ArialMT'; font-size:19;">Mo#C</text>
	<rect x="271.756" y="5" style="fill:none;" width="389.524" height="25.985"/>
	<text id="Title" transform="matrix(1 0 0 1 271.7559 18.604)" style="font-family:'ArialMT'; font-size:19;">Title#C</text>
</g>
<g id="Components">
</g>
<g id="GridText">
	<g id="SundayCol">
	</g>
	<g id="SaturdayCol">
	</g>
	<g id="FridayCol">
		<rect x="503.621" y="71.758" style="fill:none;" width="75.563" height="49.51"/>
		<text id="t40" transform="matrix(1 0 0 1 503.6211 84.6455)" style="font-family:'ArialMT'; font-size:18;">40#C</text>
	</g>
	<g id="ThursdayCol">
		<rect x="407.974" y="71.758" style="fill:none;" width="75.562" height="49.51"/>
		<text id="t30" transform="matrix(1 0 0 1 407.9736 84.6455)" style="font-family:'ArialMT'; font-size:18;">30#C</text>
	</g>
	<g id="WednesdayCol">
		<rect x="311.612" y="71.758" style="fill:none;" width="75.561" height="49.51"/>
		<text id="t20" transform="matrix(1 0 0 1 311.6113 84.6455)" style="font-family:'ArialMT'; font-size:18;">20#C</text>
	</g>
	<g id="TuesdayCol">
		<rect x="215.887" y="71.758" style="fill:none;" width="75.561" height="49.51"/>
		<text id="t10" transform="matrix(1 0 0 1 215.8867 84.6455)" style="font-family:'ArialMT'; font-size:18;">10#C</text>
	</g>
	<g id="MondayCol">
		<rect x="120.789" y="71.757" style="fill:none;" width="75.562" height="49.511"/>
		<text id="t00" transform="matrix(1 0 0 1 120.7891 84.645)" style="font-family:'ArialMT'; font-size:18;">00#C</text>
	</g>
</g>
<g id="TimeLineText">
	<rect x="6.378" y="93.04" style="fill:none;" width="57.371" height="20.321"/>
	<text id="tlt0" transform="matrix(1 0 0 1 6.3779 105.9272)" style="fill:#9D9D9C; font-family:'ArialMT'; font-size:18;">early</text>
	<rect x="6.378" y="117.841" style="fill:none;" width="57.371" height="20.32"/>
	<text id="tlt1" transform="matrix(1 0 0 1 6.3779 130.729)" style="fill:#9D9D9C; font-family:'ArialMT'; font-size:18;">07:00</text>
	<rect x="6.378" y="143.19" style="fill:none;" width="57.371" height="20.321"/>
	<text id="tlt2" transform="matrix(1 0 0 1 6.3779 156.0781)" style="fill:#9D9D9C; font-family:'ArialMT'; font-size:18;">08:00</text>
	<rect x="6.378" y="168.541" style="fill:none;" width="57.371" height="20.32"/>
	<text id="tlt3" transform="matrix(1 0 0 1 6.3779 181.4282)" style="fill:#9D9D9C; font-family:'ArialMT'; font-size:18;">09:00</text>
	<rect x="6.378" y="193.89" style="fill:none;" width="57.371" height="20.32"/>
	<text id="tlt4" transform="matrix(1 0 0 1 6.3779 206.7773)" style="fill:#9D9D9C; font-family:'ArialMT'; font-size:18;">10:00</text>
	<rect x="6.378" y="219.239" style="fill:none;" width="57.371" height="20.321"/>
	<text id="tlt5" transform="matrix(1 0 0 1 6.3779 232.1265)" style="fill:#9D9D9C; font-family:'ArialMT'; font-size:18;">11:00</text>
	<rect x="6.378" y="244.588" style="fill:none;" width="57.371" height="20.32"/>
	<text id="tlt6" transform="matrix(1 0 0 1 6.3779 257.4761)" style="fill:#9D9D9C; font-family:'ArialMT'; font-size:18;">12:00</text>
	<rect x="6.378" y="269.938" style="fill:none;" width="57.371" height="20.321"/>
	<text id="tlt7" transform="matrix(1 0 0 1 6.3779 282.8257)" style="fill:#9D9D9C; font-family:'ArialMT'; font-size:18;">13:00</text>
	<rect x="6.378" y="295.732" style="fill:none;" width="57.371" height="20.321"/>
	<text id="tlt8" transform="matrix(1 0 0 1 6.3779 308.6196)" style="fill:#9D9D9C; font-family:'ArialMT'; font-size:18;">14:00</text>
	<rect x="6.378" y="320.637" style="fill:none;" width="57.371" height="20.32"/>
	<text id="tlt9" transform="matrix(1 0 0 1 6.3779 333.5249)" style="fill:#9D9D9C; font-family:'ArialMT'; font-size:18;">15:00</text>
	<rect x="6.378" y="345.986" style="fill:none;" width="57.371" height="20.32"/>
	<text id="tlt10" transform="matrix(1 0 0 1 6.3779 358.874)" style="fill:#9D9D9C; font-family:'ArialMT'; font-size:18;">16:00</text>
	<rect x="6.378" y="371.335" style="fill:none;" width="57.371" height="20.321"/>
	<text id="tlt11" transform="matrix(1 0 0 1 6.3779 384.2227)" style="fill:#9D9D9C; font-family:'ArialMT'; font-size:18;">17:00</text>
	<rect x="6.378" y="396.687" style="fill:none;" width="57.371" height="20.319"/>
	<text id="tlt12" transform="matrix(1 0 0 1 6.3779 409.5742)" style="fill:#9D9D9C; font-family:'ArialMT'; font-size:18;">18:00</text>
	<rect x="6.378" y="422.035" style="fill:none;" width="57.371" height="20.321"/>
	<text id="tlt13" transform="matrix(1 0 0 1 6.3779 434.9229)" style="fill:#9D9D9C; font-family:'ArialMT'; font-size:18;">late</text>
</g>
<g id="ArrowLayer">
	<g id="prevYear">
		<polygon style="stroke:#000000;stroke-miterlimit:10;" points="8.734,7.529 8.757,18.003 3.999,12.776 		"/>
		<polygon style="stroke:#000000;stroke-miterlimit:10;" points="14.365,7.529 14.388,18.003 9.629,12.776 		"/>
	</g>
	<polygon id="prevMonth" style="stroke:#000000;stroke-miterlimit:10;" points="42.651,8.026 42.673,18.5 37.915,13.273 	"/>
	<g id="nextYear">
		<polygon style="stroke:#000000;stroke-miterlimit:10;" points="546.264,18.252 546.241,7.778 551,13.005 		"/>
		<polygon style="stroke:#000000;stroke-miterlimit:10;" points="540.633,18.252 540.61,7.778 545.369,13.005 		"/>
	</g>
	<polygon id="nextMonth" style="stroke:#000000;stroke-miterlimit:10;" points="512.349,18.252 512.325,7.778 517.084,13.005 	"/>
</g>
</svg>
