<!-- Generated by IcoMoon.io -->
<svg version="1.1" xmlns="http://www.w3.org/2000/svg" width="30" height="28" viewBox="0 0 30 28">
<title>uE003-calendar</title>
<path d="M27.25 3.5h-3.5v-3.5h-3.5v3.5h-3.5v-3.5h-3.5v3.5h-3.5v-3.5h-3.5v3.5h-3.5c-0.968 0-1.75 0.782-1.75 1.75v21c0 0.968 0.782 1.75 1.75 1.75h24.5c0.968 0 1.75-0.782 1.75-1.75v-21c0-0.968-0.782-1.75-1.75-1.75zM25.5 24.5h-21v-15.75h21v15.75zM8 12.25v3.5h3.5v-3.5h-3.5zM13.25 12.25v3.5h3.5v-3.5h-3.5zM8 17.5v3.5h3.5v-3.5h-3.5zM13.25 17.5v3.5h3.5v-3.5h-3.5zM18.5 12.25v3.5h3.5v-3.5h-3.5zM18.5 17.5v3.5h3.5v-3.5h-3.5z"></path>
</svg>
