<?xml version="1.0" encoding="utf-8"?>
<!-- Generator: Adobe Illustrator 25.3.1, SVG Export Plug-In . SVG Version: 6.00 Build 0)  -->
<svg version="1.1" id="Layer_1" xmlns="http://www.w3.org/2000/svg" xmlns:xlink="http://www.w3.org/1999/xlink" x="0px" y="0px"
	 viewBox="0 0 23.8305 24" style="enable-background:new 0 0 23.8305 24;" xml:space="preserve">
<g>
	<rect y="0.2962" width="16.709" height="1.4995"/>
	<rect y="7.5994" width="16.709" height="1.4995"/>
	<rect y="14.9007" width="16.709" height="1.501"/>
	<rect y="22.2034" width="16.709" height="1.501"/>
	<path d="M23.8271,4.6971c0.0869-2.3223-1.7275-4.2959-4.0498-4.4009l-0.165-0.0073V1.786l0.1484,0.0098
		c1.4961,0.0967,2.6475,1.3945,2.5664,2.9102c0.082,1.4985-1.0693,2.7969-2.5664,2.8936l-0.1484,0.0098v1.4971l0.165-0.0073
		C22.1006,8.994,23.915,7.0198,23.8271,4.6971z"/>
	<path d="M19.7773,14.9007l-0.165-0.0068v1.498l0.1484,0.0088c1.4971,0.0967,2.6484,1.3945,2.5664,2.9111
		c0.0811,1.498-1.0703,2.7959-2.5664,2.8926l-0.1484,0.0088v1.498l0.165-0.0068c2.3242-0.1055,4.1406-2.083,4.0498-4.3955
		C23.9189,16.9837,22.1025,15.0062,19.7773,14.9007z"/>
</g>
</svg>
