<!-- Generated by IcoMoon.io -->
<svg version="1.1" xmlns="http://www.w3.org/2000/svg" width="28" height="28" viewBox="0 0 28 28">
<title>uE006-group</title>
<path d="M17.755 5.758h-17.755v-2.543h17.755v2.543zM17.755 9.62h-17.755v2.543h17.755v-2.543zM17.755 15.93h-17.755v2.543h17.755v-2.543zM20.557 1.943v1.695c1.207 0 3.179 2.203 3.179 3.944h1.695c0-2.582-2.643-5.639-4.874-5.639zM25.431 7.582h-1.695c0 1.834-1.927 4.157-3.108 4.157v1.695c2.2 0 4.804-3.172 4.804-5.852zM17.755 22.241h-17.755v2.543h17.755v-2.543zM20.557 14.659v1.695c1.207 0 3.179 2.203 3.179 3.944h1.695c0-2.582-2.643-5.639-4.874-5.639zM25.431 20.298h-1.695c0 1.834-1.927 4.157-3.108 4.157v1.695c2.2 0 4.804-3.172 4.804-5.852z"></path>
</svg>
