<?xml version="1.0" encoding="utf-8"?>
<!-- Generator: Adobe Illustrator 15.1.0, SVG Export Plug-In . SVG Version: 6.00 Build 0)  -->
<!DOCTYPE svg PUBLIC "-//W3C//DTD SVG 1.1//EN" "http://www.w3.org/Graphics/SVG/1.1/DTD/svg11.dtd">
<svg version="1.1" id="Layer_2" xmlns="http://www.w3.org/2000/svg" xmlns:xlink="http://www.w3.org/1999/xlink" x="0px" y="0px"
	 width="97.875px" height="97.875px" viewBox="0 0 97.875 97.875" enable-background="new 0 0 97.875 97.875" xml:space="preserve">
<path d="M97.872,17.213V11.25c0-4.526-3.025-8.196-6.766-8.196H74.458h-6.953h-37.81h-6.956H6.848c-3.74,0-6.772,3.67-6.772,8.196
	v5.963v5.976V84.85c0,4.528,3.032,8.194,6.772,8.194h84.259c3.739,0,6.771-3.666,6.771-8.194V17.213H97.872z M23.96,86.277H6.093
	V68.411H23.96V86.277z M23.96,63.895H6.093V46.026H23.96V63.895z M23.96,41.66H6.093V23.793H23.96V41.66z M46.343,86.277
	L46.343,86.277h-17.87V68.411h17.87V86.277z M46.343,41.66L46.343,41.66h-17.87V23.793h17.87V41.66z M68.726,86.277H50.854V68.411
	h17.872V86.277z M68.726,63.895H50.854V46.026h17.872V63.895z M68.726,41.66H50.854V23.793h17.872V41.66z M91.106,86.277H73.239
	V68.411h17.867V86.277z M91.106,63.895H73.239V46.026h17.867V63.895z M91.106,41.66H73.239V23.793h17.867V41.66z"/>
</svg>
