<?xml version="1.0" encoding="utf-8"?>
<!-- Generator: Adobe Illustrator 15.1.0, SVG Export Plug-In . SVG Version: 6.00 Build 0)  -->
<!DOCTYPE svg PUBLIC "-//W3C//DTD SVG 1.1//EN" "http://www.w3.org/Graphics/SVG/1.1/DTD/svg11.dtd">
<svg version="1.1" id="Layer_2" xmlns="http://www.w3.org/2000/svg" xmlns:xlink="http://www.w3.org/1999/xlink" x="0px" y="0px"
	 width="99px" height="99.092px" viewBox="0 0 99 99.092" enable-background="new 0 0 99 99.092" xml:space="preserve">
<path d="M62.834,20.378H0v-9h62.834V20.378z M62.834,34.045H0v9h62.834V34.045z M62.834,56.378H0v9h62.834V56.378z M72.75,6.878v6
	c4.273,0,11.25,7.797,11.25,13.957h6C90,17.696,80.648,6.878,72.75,6.878z M90,26.834h-6c0,6.492-6.82,14.71-11,14.71v6
	C80.785,47.544,90,36.319,90,26.834z M62.834,78.712H0v9h62.834V78.712z M72.75,51.878v6c4.273,0,11.25,7.797,11.25,13.957h6
	C90,62.696,80.648,51.878,72.75,51.878z M90,71.835h-6c0,6.492-6.82,14.711-11,14.711v6C80.785,92.546,90,81.319,90,71.835z"/>
</svg>
