<?xml version="1.0" encoding="utf-8"?>
<!-- Generator: Adobe Illustrator 15.1.0, SVG Export Plug-In . SVG Version: 6.00 Build 0)  -->
<!DOCTYPE svg PUBLIC "-//W3C//DTD SVG 1.1//EN" "http://www.w3.org/Graphics/SVG/1.1/DTD/svg11.dtd">
<svg version="1.1" id="Layer_1" xmlns="http://www.w3.org/2000/svg" xmlns:xlink="http://www.w3.org/1999/xlink" x="0px" y="0px"
	 width="215.43px" height="217.25px" viewBox="0 13.139 215.43 217.25" enable-background="new 0 13.139 215.43 217.25"
	 xml:space="preserve">
<title>aggregation-plus_1</title>
<g id="Schrift">
	<rect x="0.15" y="16.209" width="149.976" height="10.835"/>
	<rect x="0.15" y="83.013" width="149.976" height="10.834"/>
	<rect x="0.15" y="149.826" width="87.117" height="10.835"/>
	<rect x="0.15" y="216.641" width="87.117" height="10.834"/>
	<path d="M215.246,55.029c0.81-20.547-15.125-37.89-35.666-38.819v10.835c14.551,0.939,25.63,13.426,24.832,27.984
		c0.798,14.56-10.281,27.045-24.832,27.984v10.834C200.121,92.918,216.056,75.574,215.246,55.029z"/>
	<polygon points="141.105,146.67 133.444,154.331 161.537,182.423 133.452,210.508 141.113,218.169 169.197,190.084 197.29,218.176 
		204.951,210.516 176.858,182.423 204.951,154.331 197.29,146.67 169.197,174.763 	"/>
</g>
</svg>
