<svg xmlns="http://www.w3.org/2000/svg" viewBox="0 0 19.88437 20"><title>aggregation-plus_1</title><g id="Schrift"><rect x="0.01387" y="0.24561" width="13.84277" height="1"/><rect x="0.01387" y="6.41162" width="13.84277" height="1"/><rect x="0.01387" y="12.57861" width="8.04102" height="1"/><rect x="0.01387" y="18.74561" width="8.04102" height="1"/><path d="M19.86738,3.82861a3.45059,3.45059,0,0,0-3.292-3.583v1a2.45376,2.45376,0,0,1,2.292,2.583,2.45376,2.45376,0,0,1-2.292,2.583v1A3.45059,3.45059,0,0,0,19.86738,3.82861Z"/><polygon points="16.117 11.42 15.117 11.42 15.117 15.087 11.451 15.087 11.451 16.087 15.117 16.087 15.117 19.754 16.117 19.754 16.117 16.087 19.784 16.087 19.784 15.087 16.117 15.087 16.117 11.42"/></g></svg>