<?xml version="1.0" encoding="utf-8"?>
<!-- Generator: Adobe Illustrator 15.1.0, SVG Export Plug-In . SVG Version: 6.00 Build 0)  -->
<!DOCTYPE svg PUBLIC "-//W3C//DTD SVG 1.1//EN" "http://www.w3.org/Graphics/SVG/1.1/DTD/svg11.dtd">
<svg version="1.1" id="Layer_2" xmlns="http://www.w3.org/2000/svg" xmlns:xlink="http://www.w3.org/1999/xlink" x="0px" y="0px"
	 width="97.875px" height="97.875px" viewBox="0 0 97.875 97.875" enable-background="new 0 0 97.875 97.875" xml:space="preserve">
<path d="M97.875,48.937c0,26.983-21.953,48.938-48.938,48.938C21.954,97.875,0,75.92,0,48.937C0,21.955,21.954,0,48.938,0
	S97.875,21.953,97.875,48.937 M7.835,48.937c0,22.666,18.438,41.103,41.102,41.103c22.665,0,41.104-18.438,41.104-41.103
	c0-22.664-18.439-41.102-41.104-41.102C26.272,7.835,7.835,26.271,7.835,48.937 M25.282,42.16c-4.178-0.004-7.568,3.395-7.571,7.587
	c-0.003,4.193,3.381,7.599,7.559,7.603c4.179,0.003,7.569-3.396,7.572-7.591S29.46,42.162,25.282,42.16 M48.943,42.152
	c-4.179-0.004-7.568,3.396-7.571,7.588c-0.003,4.193,3.381,7.6,7.559,7.604c4.18,0.002,7.569-3.396,7.572-7.593
	C56.506,45.559,53.121,42.154,48.943,42.152 M73.971,42.154c-4.179-0.004-7.568,3.395-7.57,7.587
	c-0.004,4.192,3.381,7.599,7.559,7.604c4.18,0.002,7.568-3.396,7.572-7.592C81.534,45.559,78.148,42.156,73.971,42.154"/>
</svg>
