<?xml version="1.0" encoding="utf-8"?>
<!-- Generator: Adobe Illustrator 15.1.0, SVG Export Plug-In . SVG Version: 6.00 Build 0)  -->
<!DOCTYPE svg PUBLIC "-//W3C//DTD SVG 1.1//EN" "http://www.w3.org/Graphics/SVG/1.1/DTD/svg11.dtd">
<svg version="1.1" id="Layer_2" xmlns="http://www.w3.org/2000/svg" xmlns:xlink="http://www.w3.org/1999/xlink" x="0px" y="0px"
	 width="97.875px" height="97.875px" viewBox="0 0 97.875 97.875" enable-background="new 0 0 97.875 97.875" xml:space="preserve">
<path display="none" fill="#5F5F5F" d="M48.967,7.034C72.25,7.053,91.184,25.941,91.165,49.141
	c-0.019,23.205-18.982,42.068-42.267,42.048C25.605,91.17,6.678,72.275,6.697,49.073C6.716,25.872,25.674,7.015,48.967,7.034
	 M48.973,0.437C22.032,0.415,0.097,22.23,0.075,49.067C0.053,75.909,21.952,97.768,48.893,97.788
	c26.938,0.022,48.871-21.799,48.895-48.641C97.809,22.31,75.911,0.459,48.973,0.437"/>
<path d="M48.938,97.875C21.955,97.875,0,75.922,0,48.937C0,21.954,21.955,0,48.938,0C75.92,0,97.875,21.954,97.875,48.938
	S75.922,97.875,48.938,97.875 M48.938,7.835c-22.665,0-41.103,18.438-41.103,41.102c0,22.665,18.438,41.104,41.103,41.104
	c22.663,0,41.102-18.439,41.102-41.104C90.04,26.272,71.603,7.835,48.938,7.835 M39.201,75.504l21.723,0.02l0.007-8.657L55.5,66.859
	l0.021-27.052L39.23,39.795l-0.008,9.739l6.517,0.006l-0.014,17.313l-6.517-0.006L39.201,75.504z M55.715,25.282
	c0.004-4.178-3.394-7.568-7.587-7.571s-7.598,3.381-7.602,7.559c-0.003,4.179,3.396,7.569,7.59,7.572
	C52.31,32.845,55.713,29.46,55.715,25.282"/>
</svg>
