<svg xmlns="http://www.w3.org/2000/svg" width="20" height="20" viewBox="0 0 20 20">
  <defs>
    <style>
      .cls-1 {
        fill-rule: evenodd;
      }
    </style>
  </defs>
  <title>uE003-calendar_1</title>
  <g id="Work_file" data-name="Work file">
    <g id="Icon_Work_file" data-name="Icon Work file">
      <g id="uE003-calendar">
        <path class="cls-1" d="M19.166.80152H.834a.83114.83114,0,0,0-.83392.83825V18.36023a.83582.83582,0,0,0,.83392.83826H19.166a.83115.83115,0,0,0,.83393-.83826V1.63977A.83582.83582,0,0,0,19.166.80152ZM4.98816,17.811H1.32788V14.1507H4.98816Zm0-4.59332H1.32788V9.55744H4.98816Zm0-4.54541H1.32788V5.012H4.98816ZM9.55749,17.811H5.89721V14.1507H9.55749Zm0-9.13873H5.89721V5.012H9.55749ZM14.043,17.811H10.38275V14.1507H14.043Zm.0838-4.59332H10.46661V9.55744h3.66022Zm0-4.54541H10.46661V5.012h3.66022ZM18.61236,17.811H14.95215V14.1507h3.66021Zm.0838-4.59332H15.036V9.55744h3.66021Zm0-4.54541H15.036V5.012h3.66021Z"/>
      </g>
    </g>
  </g>
</svg>
