<!-- Generated by IcoMoon.io -->
<svg version="1.1" xmlns="http://www.w3.org/2000/svg" width="28" height="28" viewBox="0 0 28 28">
<title>uE001-error</title>
<path fill="#000" d="M14 28c-7.719 0-14-6.28-14-14s6.281-14 14-14c7.719 0 14 6.281 14 14s-6.28 14-14 14zM14 2.241c-6.484 0-11.759 5.275-11.759 11.758s5.275 11.759 11.759 11.759c6.484 0 11.758-5.275 11.758-11.759s-5.274-11.758-11.758-11.758zM14 15.637c-0.835 0-1.512-0.649-1.512-1.449v-6.376c0-0.8 0.677-1.449 1.512-1.449s1.511 0.649 1.511 1.449v6.376c0.001 0.8-0.677 1.448-1.511 1.448zM14 21.637c-0.399 0-0.786-0.16-1.071-0.441-0.281-0.281-0.441-0.671-0.441-1.070s0.16-0.789 0.441-1.070 0.671-0.442 1.071-0.442c0.399 0 0.786 0.161 1.069 0.442 0.281 0.284 0.442 0.671 0.442 1.070s-0.161 0.786-0.442 1.070c-0.283 0.281-0.674 0.441-1.069 0.441z"></path>
</svg>
