<?xml version="1.0" encoding="utf-8"?>
<!-- Generator: Adobe Illustrator 18.1.1, SVG Export Plug-In . SVG Version: 6.00 Build 0)  -->
<!DOCTYPE svg PUBLIC "-//W3C//DTD SVG 1.1//EN" "http://www.w3.org/Graphics/SVG/1.1/DTD/svg11.dtd">
<svg version="1.1" id="Ebene_1" xmlns="http://www.w3.org/2000/svg" xmlns:xlink="http://www.w3.org/1999/xlink" x="0px" y="0px"
	 viewBox="8.2 21.8 83.6 76.9" enable-background="new 8.2 21.8 83.6 76.9" xml:space="preserve">
<path fill="#1D1D1B" d="M91.8,21.8H8.2v76.9h83.6L91.8,21.8z M66.9,54.8H51.6V39.5h15.3V54.8z M66.9,73.8H51.6V58.5h15.3V73.8z
	 M47.8,54.8L47.8,54.8H32.5V39.5h15.3V54.8z M28.6,92.9H13.4V77.7h15.3V92.9z M28.6,73.8H13.4V58.5h15.3V73.8z M28.6,54.8H13.4V39.5
	h15.3V54.8z M47.8,92.9L47.8,92.9H32.5V77.7h15.3V92.9z M51.6,92.9V77.7h15.3v15.3H51.6z M86,92.9H70.7V77.7H86V92.9z M86,73.8H70.7
	V58.5H86V73.8z M86,54.8H70.7V39.5H86V54.8z"/>
</svg>
