<?xml version="1.0" encoding="utf-8"?>
<!-- Generator: Adobe Illustrator 15.1.0, SVG Export Plug-In . SVG Version: 6.00 Build 0)  -->
<!DOCTYPE svg PUBLIC "-//W3C//DTD SVG 1.1//EN" "http://www.w3.org/Graphics/SVG/1.1/DTD/svg11.dtd">
<svg version="1.1" id="Layer_1" xmlns="http://www.w3.org/2000/svg" xmlns:xlink="http://www.w3.org/1999/xlink" x="0px" y="0px"
	 width="193.921px" height="243.779px" viewBox="0 0 193.921 243.779" enable-background="new 0 0 193.921 243.779"
	 xml:space="preserve">
<title>fx_1</title>
<path d="M45.722,20.142c-12.21,8.987-18.908,23.647-17.708,38.762v26.118H0.151v11.085h27.862v132.641h11.084V96.107h44.824V85.022
	H39.097V58.904C38.033,47.469,42.903,36.286,52,29.277c12.869-7.114,28.191-8.295,41.998-3.236l3.962-10.348
	C80.76,9.277,61.589,10.909,45.722,20.142z"/>
<polygon points="137.061,159.072 106.176,189.956 113.896,197.677 144.781,166.792 175.667,197.678 183.389,189.956 
	152.503,159.071 183.39,128.185 175.669,120.464 144.782,151.35 113.896,120.464 106.175,128.186 "/>
</svg>
