<?xml version="1.0" encoding="utf-8"?>
<!-- Generator: Adobe Illustrator 15.1.0, SVG Export Plug-In . SVG Version: 6.00 Build 0)  -->
<!DOCTYPE svg PUBLIC "-//W3C//DTD SVG 1.1//EN" "http://www.w3.org/Graphics/SVG/1.1/DTD/svg11.dtd">
<svg version="1.1" id="Layer_2" xmlns="http://www.w3.org/2000/svg" xmlns:xlink="http://www.w3.org/1999/xlink" x="0px" y="0px"
	 width="97.875px" height="97.875px" viewBox="0 0 97.875 97.875" enable-background="new 0 0 97.875 97.875" xml:space="preserve">
<path d="M24.359,41.644C22.71,34.647,38.343,27.24,35.47,17.775C33.17,10.223,19.349-6.007,9.121,2.948
	C-1.112,11.902-9.74,38.438,24.15,73.292c33.892,34.847,59.466,23.34,65.224,18.543c5.758-4.793,10.604-13.08,7.353-17.909
	c-3.442-5.119-12.701-13.769-18.874-13.146c-6.146,0.615-8.316,4.738-12.773,9.309c-4.469,4.578-8.639,7.043-15.987,0
	C41.731,63.057,25.609,46.952,24.359,41.644"/>
</svg>
