<?xml version="1.0" encoding="utf-8"?>
<!-- Generator: Adobe Illustrator 15.1.0, SVG Export Plug-In . SVG Version: 6.00 Build 0)  -->
<!DOCTYPE svg PUBLIC "-//W3C//DTD SVG 1.1//EN" "http://www.w3.org/Graphics/SVG/1.1/DTD/svg11.dtd">
<svg version="1.1" id="Layer_2" xmlns="http://www.w3.org/2000/svg" xmlns:xlink="http://www.w3.org/1999/xlink" x="0px" y="0px"
	 width="97.875px" height="97.875px" viewBox="0 0 97.875 97.875" enable-background="new 0 0 97.875 97.875" xml:space="preserve">
<g>
	<path d="M65.657,19.036L1,83.693l13.556,13.556l64.659-64.657L65.657,19.036z M56.271,32.592l9.386-9.386l9.387,9.386l-9.387,9.386
		L56.271,32.592z"/>
	<polygon points="24.992,30.306 33.766,23.88 42.542,30.153 39.19,19.937 47.961,13.452 37.117,13.452 33.766,3.137 30.415,13.452 
		19.568,13.452 28.345,19.909 	"/>
	<polygon points="78.2,64.414 76.185,58.217 74.17,64.414 67.655,64.414 72.926,67.622 70.913,73.389 76.185,69.495 81.456,73.341 
		79.441,67.631 84.715,64.414 	"/>
	<polygon points="96.394,8.432 88.116,8.432 85.557,0.558 82.997,8.432 74.72,8.432 81.418,13.036 78.858,20.801 85.557,15.854 
		92.252,20.671 89.695,13.056 	"/>
</g>
</svg>
