<svg xmlns="http://www.w3.org/2000/svg" width="40" height="40" viewBox="0 0 40 40">
  <title>uE124-folder-large_1</title>
  <g id="Schrift">
    <path d="M36.60878,7.7981H15.05409L11.68886,3.69068H.02089V32.70631A3.37547,3.37547,0,0,0,3.392,36.0774H36.60878a3.37463,3.37463,0,0,0,3.37012-3.37109V11.1692A3.37463,3.37463,0,0,0,36.60878,7.7981ZM10.74159,5.69068,14.10683,9.7981h22.502a1.372,1.372,0,0,1,1.37012,1.3711v4.54785H2.02089V5.69068ZM36.60878,34.0774H3.392a1.37287,1.37287,0,0,1-1.3711-1.37109V17.71705h35.958V32.70631A1.372,1.372,0,0,1,36.60878,34.0774Z"/>
  </g>
</svg>
