<?xml version="1.0" encoding="utf-8"?>
<!-- Generator: Adobe Illustrator 15.1.0, SVG Export Plug-In . SVG Version: 6.00 Build 0)  -->
<!DOCTYPE svg PUBLIC "-//W3C//DTD SVG 1.1//EN" "http://www.w3.org/Graphics/SVG/1.1/DTD/svg11.dtd">
<svg version="1.1" id="Layer_2" xmlns="http://www.w3.org/2000/svg" xmlns:xlink="http://www.w3.org/1999/xlink" x="0px" y="0px"
	 width="97.875px" height="97.875px" viewBox="0 0 97.875 97.875" enable-background="new 0 0 97.875 97.875" xml:space="preserve">
<g>
	<path d="M28.054,52.588c-0.239-8.369-0.526-18.516-0.526-25.906h-0.096c-1.149,6.943-2.441,14.51-4.069,22.789l-5.698,29.11h-3.159
		L9.24,50.007c-1.532-8.544-2.776-16.201-3.686-23.323H5.458c-0.096,7.477-0.335,17.449-0.622,26.53L3.974,78.938H0l2.25-60h5.313
		l5.506,29.02c1.34,7.39,2.393,13.975,3.256,20.208h0.096c0.861-6.053,2.01-12.639,3.446-20.208l5.746-29.02h5.313l2.012,60h-4.118
		L28.054,52.588z"/>
	<path d="M48.026,60.064l-3.351,18.873h-4.308l11.011-60h4.978l11.012,60h-4.452l-3.447-18.873H48.026z M58.656,54.012l-3.209-17.27
		c-0.718-3.916-1.197-7.477-1.675-10.95h-0.097c-0.479,3.474-0.959,7.213-1.629,10.861l-3.159,17.356h9.768V54.012z"/>
	<path d="M93.038,78.938l-4.165-13.263c-1.677-5.074-2.682-8.369-3.687-11.84h-0.096c-0.909,3.471-1.867,6.675-3.496,11.928
		l-3.876,13.175H72.93l9.863-30.357l-9.479-29.643h4.836l4.261,14.067c1.195,3.916,2.105,6.942,2.969,10.148h0.143
		c0.91-3.561,1.725-6.319,2.921-10.148l4.357-14.067h4.834l-9.813,29.2l10.053,30.8H93.038z"/>
</g>
</svg>
