<?xml version="1.0" encoding="utf-8"?>
<!-- Generator: Adobe Illustrator 25.3.1, SVG Export Plug-In . SVG Version: 6.00 Build 0)  -->
<svg version="1.1" id="Layer_1" xmlns="http://www.w3.org/2000/svg" xmlns:xlink="http://www.w3.org/1999/xlink" x="0px" y="0px"
	 viewBox="0 0 23.9878 24" style="enable-background:new 0 0 23.9878 24;" xml:space="preserve">
<path d="M23.7561,22.6383l-6.3964-6.4018l0.2949-0.3884c1.3306-1.7462,2.0338-3.8194,2.0338-5.9968
	C19.6879,4.419,15.2718,0,9.8444,0C4.4161,0,0,4.4191,0,9.8514s4.4161,9.8513,9.8445,9.8513c2.1745,0,4.2463-0.7037,5.9924-2.0353
	l0.3869-0.2959l6.3974,6.3998C22.7594,23.9105,22.9774,24,23.176,24s0.4146-0.0905,0.5499-0.2258
	c0.1684-0.1616,0.2589-0.3601,0.2618-0.5733C23.9897,22.9868,23.908,22.7863,23.7561,22.6383z M18.1,9.8514
	c0,4.5543-3.7036,8.2599-8.2555,8.2599s-8.255-3.7056-8.255-8.2599c0-4.5553,3.7031-8.2613,8.255-8.2613S18.1,5.2961,18.1,9.8514z"
	/>
</svg>
