<?xml version="1.0" encoding="utf-8"?>
<!-- Generator: Adobe Illustrator 15.1.0, SVG Export Plug-In . SVG Version: 6.00 Build 0)  -->
<!DOCTYPE svg PUBLIC "-//W3C//DTD SVG 1.1//EN" "http://www.w3.org/Graphics/SVG/1.1/DTD/svg11.dtd">
<svg version="1.1" id="Layer_1" xmlns="http://www.w3.org/2000/svg" xmlns:xlink="http://www.w3.org/1999/xlink" x="0px" y="0px"
	 width="40px" height="40px" viewBox="0 0 40 40" enable-background="new 0 0 40 40" xml:space="preserve">
<title>uE11F-wand-large_1</title>
<g>
	<path d="M29.544,28.017l-0.748-0.748l0.641-0.842c2.22-2.913,3.392-6.371,3.392-10C32.828,7.369,25.465,0,16.415,0
		C7.364,0,0,7.369,0,16.427c0,9.057,7.364,16.425,16.415,16.425c3.625,0,7.079-1.173,9.991-3.393l0.842-0.644l0.749,0.751
		l10.256,10.26c0.184,0.184,0.486,0.308,0.752,0.308c0.263,0,0.563-0.124,0.747-0.309c0.236-0.226,0.358-0.495,0.36-0.782
		c0.004-0.288-0.107-0.558-0.312-0.762L29.544,28.017z M16.415,30.69c-7.86,0-14.254-6.399-14.254-14.264
		c0-7.866,6.394-14.264,14.254-14.264c7.859,0,14.255,6.398,14.255,14.264C30.67,24.291,24.274,30.69,16.415,30.69z"/>
</g>
</svg>
