<?xml version="1.0" encoding="utf-8"?>
<!-- Generator: Adobe Illustrator 15.1.0, SVG Export Plug-In . SVG Version: 6.00 Build 0)  -->
<!DOCTYPE svg PUBLIC "-//W3C//DTD SVG 1.1//EN" "http://www.w3.org/Graphics/SVG/1.1/DTD/svg11.dtd">
<svg version="1.1" id="Ebene_1" xmlns="http://www.w3.org/2000/svg" xmlns:xlink="http://www.w3.org/1999/xlink" x="0px" y="0px"
	 width="16px" height="12px" viewBox="0 0 16 12" enable-background="new 0 0 16 12" xml:space="preserve">
<g>
	<path d="M0,3h1.271l1.271,4.482L3.813,3h1.213v5.996H4.042V4.999L2.888,9H2.08L0.923,5v4H0V3z"/>
	<path d="M7.739,3h0.984l1.903,5.996H9.531L9.127,7.62H7.394L6.989,8.997H5.892L7.739,3z M8.838,6.586L8.202,4.449L7.625,6.586
		H8.838z"/>
	<path d="M13.055,5.827L11.438,3h1.213l1.039,1.93L14.73,3h1.097L14.21,5.896L16,9h-1.213l-1.213-2.207L12.42,9h-1.154L13.055,5.827
		z"/>
</g>
</svg>
