<!-- Generated by IcoMoon.io -->
<svg version="1.1" xmlns="http://www.w3.org/2000/svg" width="37" height="28" viewBox="0 0 37 28">
<title>uE027-max</title>
<path d="M0 7h2.966l2.966 10.458 2.966-10.458h2.83v13.991h-2.296v-9.326l-2.693 9.336h-1.885l-2.7-9.333v9.333h-2.154v-14z"></path>
<path d="M18.058 7h2.296l4.44 13.991h-2.555l-0.943-3.211h-4.044l-0.945 3.213h-2.56l4.31-13.993zM20.622 15.367l-1.484-4.986-1.346 4.986h2.83z"></path>
<path d="M30.462 13.596l-3.773-6.596h2.83l2.424 4.503 2.427-4.503h2.56l-3.773 6.757 4.177 7.243h-2.83l-2.83-5.15-2.693 5.15h-2.693l4.174-7.404z"></path>
</svg>
