<?xml version="1.0" encoding="utf-8"?>
<!-- Generator: Adobe Illustrator 15.1.0, SVG Export Plug-In . SVG Version: 6.00 Build 0)  -->
<!DOCTYPE svg PUBLIC "-//W3C//DTD SVG 1.1//EN" "http://www.w3.org/Graphics/SVG/1.1/DTD/svg11.dtd">
<svg version="1.1" id="Layer_2" xmlns="http://www.w3.org/2000/svg" xmlns:xlink="http://www.w3.org/1999/xlink" x="0px" y="0px"
	 width="97.875px" height="97.875px" viewBox="0 0 97.875 97.875" enable-background="new 0 0 97.875 97.875" xml:space="preserve">
<path d="M94.443,11.434L87.951,4.72L73.726,18.475C66.881,12.831,58.11,9.44,48.548,9.44C26.68,9.44,8.952,27.167,8.952,49.036
	c0,9.084,3.066,17.448,8.21,24.128L3.432,86.44l6.492,6.715l13.764-13.309c6.797,5.49,15.441,8.784,24.86,8.784
	c21.868,0,39.595-17.727,39.595-39.595c0-8.939-2.965-17.184-7.962-23.812L94.443,11.434z M16.973,49.035
	c0-17.493,14.182-31.676,31.676-31.676c7.301,0,14.02,2.477,19.377,6.627L22.961,67.559C19.197,62.348,16.973,55.952,16.973,49.035z
	 M80.325,49.035c0,17.494-14.185,31.676-31.677,31.676c-7.206,0-13.847-2.41-19.169-6.464l45.01-43.52
	C78.159,35.897,80.325,42.211,80.325,49.035z"/>
</svg>
