<?xml version="1.0" encoding="utf-8"?>
<!-- Generator: Adobe Illustrator 15.1.0, SVG Export Plug-In . SVG Version: 6.00 Build 0)  -->
<!DOCTYPE svg PUBLIC "-//W3C//DTD SVG 1.1//EN" "http://www.w3.org/Graphics/SVG/1.1/DTD/svg11.dtd">
<svg version="1.1" id="Layer_2" xmlns="http://www.w3.org/2000/svg" xmlns:xlink="http://www.w3.org/1999/xlink" x="0px" y="0px"
	 width="97.875px" height="97.875px" viewBox="0 0 97.875 97.875" enable-background="new 0 0 97.875 97.875" xml:space="preserve">
<path d="M41.497,63.907v6.702v18.25v6.703H0v-6.703v-18.25v-6.702h12.13h16.872H41.497z M85.379,63.907H68.51H56.379v6.702v18.25
	v6.703h41.496V63.907H85.379z M89.44,63.907H64.813c-4.641,0-8.436,3.018-8.436,6.704v18.248c0,3.688,3.795,6.703,8.436,6.703H89.44
	c4.641,0,8.436-3.017,8.436-6.703V70.611C97.877,66.925,94.081,63.907,89.44,63.907 M23.357,55.313c0-1.775,2.158-3.276,4.714-3.276
	h40.62c2.56,0,4.718,1.501,4.718,3.276v8.597h7.439v-8.597c0-5.065-5.453-9.188-12.157-9.188H52.103v-11.47h17.045
	c0,0-0.017-3.016-0.017-6.702V9.703V3H27.635v6.703v18.25c0,3.687-0.016,6.702-0.016,6.702h17.044v11.47h-16.59
	c-6.701,0-12.154,4.12-12.154,9.188v8.597h7.439L23.357,55.313L23.357,55.313z"/>
</svg>
