<svg xmlns="http://www.w3.org/2000/svg" viewBox="0 0 20 20"><title>data-picker-1_1</title><g id="Schrift"><path d="M9.9952.07109A9.9209,9.9209,0,1,0,19.91708,9.992,9.93175,9.93175,0,0,0,9.9952.07109Zm0,18.8418A8.9209,8.9209,0,1,1,18.91708,9.992,8.93107,8.93107,0,0,1,9.9952,18.91289Z"/><path d="M9.9952,4.326a5.66651,5.66651,0,1,0,5.667,5.666A5.67273,5.67273,0,0,0,9.9952,4.326Zm0,10.333a4.66651,4.66651,0,1,1,4.667-4.667A4.67163,4.67163,0,0,1,9.9952,14.659Z"/><path d="M9.99551,8.34648A1.64575,1.64575,0,1,0,11.64138,9.992,1.65033,1.65033,0,0,0,9.99551,8.34648Z"/></g></svg>