<!-- Generated by IcoMoon.io -->
<svg version="1.1" xmlns="http://www.w3.org/2000/svg" width="28" height="28" viewBox="0 0 28 28">
<title>uE021-world</title>
<path d="M14 0c-7.72 0-14 6.28-14 14s6.28 14 14 14c7.72 0 14-6.28 14-14s-6.28-14-14-14zM25.607 12.833h-4.055c-0.161-3.745-1.086-7.023-2.498-9.332 3.573 1.728 6.142 5.211 6.553 9.332zM12.833 2.683v10.15h-4.054c0.244-5.214 2.088-9.030 4.054-10.15zM12.833 15.167v10.15c-1.966-1.12-3.81-4.936-4.054-10.15h4.054zM15.167 25.317v-10.15h4.054c-0.244 5.214-2.088 9.030-4.054 10.15zM15.167 12.833v-10.15c1.966 1.12 3.81 4.936 4.054 10.15h-4.054zM8.945 3.501c-1.41 2.309-2.337 5.587-2.498 9.332h-4.054c0.411-4.121 2.98-7.604 6.552-9.332zM2.393 15.167h4.055c0.161 3.745 1.086 7.023 2.498 9.332-3.574-1.728-6.143-5.211-6.553-9.332zM19.055 24.499c1.411-2.309 2.337-5.587 2.498-9.332h4.055c-0.412 4.121-2.981 7.604-6.553 9.332z"></path>
</svg>
