<!-- Generated by IcoMoon.io -->
<svg version="1.1" xmlns="http://www.w3.org/2000/svg" width="28" height="28" viewBox="0 0 28 28">
<title>uE023-graph</title>
<path fill="#000" d="M11.871 18.282v9.056h-11.871v-9.056h11.871zM24.425 18.282h-8.296v9.056h11.871v-9.056h-3.575zM25.587 18.282h-7.045c-1.328 0-2.413 0.863-2.413 1.918v5.22c0 1.055 1.086 1.918 2.413 1.918h7.045c1.328 0 2.413-0.863 2.413-1.918v-5.22c0-1.054-1.086-1.918-2.413-1.918zM6.682 15.824c0-0.508 0.617-0.937 1.349-0.937h11.621c0.732 0 1.35 0.429 1.35 0.937v2.459h2.128v-2.459c0-1.449-1.56-2.628-3.478-2.628h-4.745v-3.281h4.876c0 0-0.005-0.863-0.005-1.917v-7.139h-11.871v7.139c0 1.055-0.005 1.917-0.005 1.917h4.876v3.281h-4.746c-1.917 0-3.477 1.179-3.477 2.628v2.459h2.128l-0-2.459z"></path>
</svg>
