<svg xmlns="http://www.w3.org/2000/svg" width="18.93133" height="20" viewBox="0 0 18.93133 20">
  <title>uE021-world_1</title>
  <g id="Work_file" data-name="Work file">
    <g id="Icon_Work_file" data-name="Icon Work file">
      <g id="uE021-world">
        <path d="M18.92865,10.00013A9.46783,9.46783,0,0,0,9.5174.544C9.50885.544,9.50068.54163,9.49213.54163L9.48462.54236l-.014-.00073a9.45825,9.45825,0,0,0,0,18.9165l.014-.00073.00751.00073c.00855,0,.01672-.00232.02527-.00238A9.46741,9.46741,0,0,0,18.92865,10.00013Zm-1.02533-.5H14.413A12.59185,12.59185,0,0,0,12.1308,1.97669,8.4655,8.4655,0,0,1,17.90332,9.50013ZM8.97065,1.629V9.50013H5.57074C5.68555,5.51355,7.15094,2.17542,8.97065,1.629Zm0,8.87116v7.87066c-1.81971-.54645-3.2851-3.88458-3.39991-7.87066Zm1,7.88525V10.50013h3.44287C13.29779,14.51777,11.81018,17.87946,9.97065,18.38538Zm0-8.88525V1.61438c1.83953.50592,3.32714,3.86762,3.44287,7.88575ZM6.87348,1.95362C5.544,3.5246,4.65564,6.27253,4.57129,9.50013H1.038A8.46714,8.46714,0,0,1,6.87348,1.95362ZM1.038,10.50013H4.57129c.08435,3.22741.97266,5.975,2.302,7.546A8.46691,8.46691,0,0,1,1.038,10.50013ZM12.13105,18.023A12.59056,12.59056,0,0,0,14.413,10.50013h3.49035A8.46509,8.46509,0,0,1,12.13105,18.023Z"/>
      </g>
    </g>
  </g>
</svg>
