<?xml version="1.0" encoding="utf-8"?>
<!-- Generator: Adobe Illustrator 15.1.0, SVG Export Plug-In . SVG Version: 6.00 Build 0)  -->
<!DOCTYPE svg PUBLIC "-//W3C//DTD SVG 1.1//EN" "http://www.w3.org/Graphics/SVG/1.1/DTD/svg11.dtd">
<svg version="1.1" id="Layer_2" xmlns="http://www.w3.org/2000/svg" xmlns:xlink="http://www.w3.org/1999/xlink" x="0px" y="0px"
	 width="97.875px" height="97.875px" viewBox="0 0 97.875 97.875" enable-background="new 0 0 97.875 97.875" xml:space="preserve">
<path d="M48.938,0C21.95,0,0,21.95,0,48.926c0,26.987,21.95,48.938,48.938,48.938c26.988,0,48.938-21.95,48.938-48.938
	C97.875,21.95,75.926,0,48.938,0 M39.618,8.009c-4.516,4.492-8.23,9.89-10.958,15.868H15.287
	C21.161,16.007,29.739,10.261,39.618,8.009 M12.27,28.52h14.498c-2.043,5.688-3.25,11.793-3.482,18.084H7.034
	C7.383,40.07,9.251,33.929,12.27,28.52 M12.27,69.333c-3.018-5.41-4.887-11.551-5.236-18.085h16.251
	c0.232,6.292,1.439,12.396,3.47,18.085H12.27z M15.276,73.977H28.66c2.728,5.989,6.442,11.388,10.958,15.879
	C29.727,87.604,21.161,81.857,15.276,73.977 M46.616,89.879c-5.306-4.203-9.658-9.658-12.827-15.902h12.827V89.879z M46.616,69.333
	H31.701c-2.206-5.631-3.517-11.759-3.762-18.085h18.678L46.616,69.333L46.616,69.333z M46.616,46.605H27.939
	c0.244-6.327,1.555-12.456,3.772-18.085h14.904L46.616,46.605 M46.616,23.877H33.802c3.169-6.233,7.521-11.688,12.815-15.878
	L46.616,23.877L46.616,23.877z M85.606,28.52c3.02,5.41,4.889,11.549,5.234,18.084H74.59c-0.23-6.291-1.438-12.397-3.481-18.084
	H85.606 M82.588,23.877H69.217c-2.729-5.978-6.442-11.375-10.957-15.868C68.138,10.261,76.715,16.007,82.588,23.877 M51.26,7.999
	c5.293,4.19,9.646,9.646,12.814,15.878H51.26V7.999z M51.26,28.52h14.904c2.217,5.63,3.528,11.758,3.771,18.084H51.26V28.52z
	 M51.26,51.247h18.677c-0.243,6.327-1.556,12.455-3.772,18.084H51.26V51.247z M51.26,89.868V73.977h12.814
	C60.917,80.208,56.564,85.665,51.26,89.868 M58.26,89.855c4.515-4.492,8.229-9.891,10.957-15.879h13.384
	C76.715,81.857,68.148,87.604,58.26,89.855 M85.606,69.333H71.12c2.031-5.688,3.238-11.793,3.471-18.085h16.25
	C90.495,57.782,88.625,63.923,85.606,69.333"/>
</svg>
