<?xml version="1.0" encoding="utf-8"?>
<!-- Generator: Adobe Illustrator 25.3.1, SVG Export Plug-In . SVG Version: 6.00 Build 0)  -->
<svg version="1.1" id="Layer_1" xmlns="http://www.w3.org/2000/svg" xmlns:xlink="http://www.w3.org/1999/xlink" x="0px" y="0px"
	 viewBox="0 0 23.9756 24" style="enable-background:new 0 0 23.9756 24;" xml:space="preserve">
<path d="M21.8213,4.6175H9.1338L7.1411,2.1854H0v17.3384c0.0015,1.1855,0.9678,2.1523,2.1538,2.1543h19.6675
	c1.1865-0.002,2.1533-0.9688,2.1543-2.1543V6.7708C23.9746,5.5853,23.0078,4.619,21.8213,4.6175z M1.5,3.6849h4.9312l1.9448,2.374
	l0.0474,0.0586h13.3989c0.3594,0,0.6523,0.2939,0.6523,0.6533V9.306H1.5V3.6849z M22.4746,10.806v8.7178
	c0,0.3594-0.293,0.6533-0.6533,0.6533H2.1543c-0.3604,0-0.6538-0.2939-0.6543-0.6533V10.806H22.4746z"/>
</svg>
