<svg xmlns="http://www.w3.org/2000/svg" viewBox="0 0 20 20"><title>data-picker-1_1</title><g id="Schrift"><path d="M10.01266-.00606a9.99805,9.99805,0,1,0,9.998,9.998A10.00989,10.00989,0,0,0,10.01266-.00606Zm0,18.8418A8.84375,8.84375,0,1,1,18.85641,9.992,8.8546,8.8546,0,0,1,10.01266,18.83574Z"/><path d="M10.01266,4.19218A5.8003,5.8003,0,1,0,15.81247,9.992,5.80693,5.80693,0,0,0,10.01266,4.19218Zm0,10.333A4.53272,4.53272,0,1,1,14.54489,9.992,4.53784,4.53784,0,0,1,10.01266,14.52519Z"/><path d="M10.01236,8.34648a1.64575,1.64575,0,1,0,1.64581,1.64575A1.65059,1.65059,0,0,0,10.01236,8.34648Z"/></g></svg>