<!-- Generated by IcoMoon.io -->
<svg version="1.1" xmlns="http://www.w3.org/2000/svg" width="28" height="28" viewBox="0 0 28 28">
<title>uE020-target</title>
<path fill="#000" d="M14 0c-7.721 0-14 6.279-14 14s6.279 14 14 14c7.721 0 14-6.279 14-14s-6.279-14-14-14zM14 1.75c6.777 0 12.25 5.474 12.25 12.25s-5.474 12.25-12.25 12.25c-6.776 0-12.25-5.474-12.25-12.25s5.474-12.25 12.25-12.25zM14 5.25c-4.823 0-8.75 3.927-8.75 8.75s3.927 8.75 8.75 8.75c4.822 0 8.75-3.928 8.75-8.75s-3.928-8.75-8.75-8.75zM14 7c3.876 0 7.001 3.124 7.001 7s-3.125 7-7.001 7c-3.876 0-7-3.124-7-7s3.124-7 7-7zM14 10.5c-1.934 0-3.5 1.566-3.5 3.5s1.565 3.5 3.5 3.5c1.935 0 3.5-1.566 3.5-3.5s-1.565-3.5-3.5-3.5z"></path>
</svg>
