<?xml version="1.0" encoding="utf-8"?>
<!-- Generator: Adobe Illustrator 15.1.0, SVG Export Plug-In . SVG Version: 6.00 Build 0)  -->
<!DOCTYPE svg PUBLIC "-//W3C//DTD SVG 1.1//EN" "http://www.w3.org/Graphics/SVG/1.1/DTD/svg11.dtd">
<svg version="1.1" id="Layer_1" xmlns="http://www.w3.org/2000/svg" xmlns:xlink="http://www.w3.org/1999/xlink" x="0px" y="0px"
	 width="28.829px" height="40px" viewBox="5.638 0 28.829 40" enable-background="new 5.638 0 28.829 40" xml:space="preserve">
<title>uE11F-wand-large_1</title>
<polygon points="32.399,35.349 14.078,35.349 12.713,35.349 11.72,35.349 11.72,34.355 11.72,34.192 11.72,33.835 11.948,33.561 
	23.132,20.056 23.235,19.932 23.135,19.805 12.532,6.424 12.318,6.153 12.318,5.807 12.318,5.59 12.318,4.597 13.311,4.597 
	30.66,4.597 30.86,4.597 30.86,4.397 30.86,2.867 30.86,2.667 30.66,2.667 8.358,2.667 8.158,2.667 8.158,2.867 8.158,4.413 
	8.158,4.482 8.201,4.537 20.015,19.494 20.513,20.123 20.002,20.742 7.55,35.799 7.504,35.854 7.504,35.927 7.504,37.132 
	7.504,37.332 7.705,37.332 32.399,37.332 32.6,37.332 32.6,37.132 32.6,35.549 32.6,35.349 "/>
</svg>
