<svg xmlns="http://www.w3.org/2000/svg" width="35.08886" height="40" viewBox="0 0 35.08886 40">
  <title>uE11B-star-large_1</title>
  <g id="Work_file" data-name="Work file">
    <path d="M27.851,37.34692a.99834.99834,0,0,1-.52734-.15039l-9.76172-6.05371L7.80116,37.19653a.99994.99994,0,0,1-1.50195-1.07226L8.975,24.42993.39784,16.79223A1.00053,1.00053,0,0,1,.95058,15.051L12.29335,13.7688,16.63613,3.11938a.99992.99992,0,0,1,1.85156,0L22.83144,13.7688,34.17519,15.051a1.00011,1.00011,0,0,1,.56836,1.72657L26.516,24.429l2.3164,11.72461a1.00008,1.00008,0,0,1-.98144,1.19336ZM17.56191,28.96606a.99846.99846,0,0,1,.52734.15039l8.335,5.169L24.4457,24.26977a1.00138,1.00138,0,0,1,.30078-.92578l7.042-6.5498L22.017,15.6897a1.001,1.001,0,0,1-.81348-.61622l-3.6416-8.92773-3.64063,8.92773a1.00278,1.00278,0,0,1-.81347.61622l-9.708,1.09765,7.34668,6.542a.9986.9986,0,0,1,.30957.96973L8.78261,34.23364l8.25195-5.11719A.99846.99846,0,0,1,17.56191,28.96606Z"/>
  </g>
</svg>
