<?xml version="1.0" encoding="utf-8"?>
<!-- Generator: Adobe Illustrator 15.1.0, SVG Export Plug-In . SVG Version: 6.00 Build 0)  -->
<!DOCTYPE svg PUBLIC "-//W3C//DTD SVG 1.1//EN" "http://www.w3.org/Graphics/SVG/1.1/DTD/svg11.dtd">
<svg version="1.1" id="Layer_2" xmlns="http://www.w3.org/2000/svg" xmlns:xlink="http://www.w3.org/1999/xlink" x="0px" y="0px"
	 width="97.875px" height="97.875px" viewBox="0 0 97.875 97.875" enable-background="new 0 0 97.875 97.875" xml:space="preserve">
<path d="M48.938,0C21.948,0,0,21.948,0,48.938s21.948,48.938,48.938,48.938c26.99,0,48.938-21.948,48.938-48.938S75.928,0,48.938,0
	 M48.938,6.117c23.688,0,42.82,19.134,42.82,42.821c0,23.686-19.135,42.821-42.82,42.821c-23.686,0-42.82-19.135-42.82-42.821
	C6.117,25.251,25.251,6.117,48.938,6.117 M48.938,18.352c-16.858,0-30.586,13.728-30.586,30.586S32.08,79.523,48.938,79.523
	c16.857,0,30.587-13.729,30.587-30.585C79.524,32.08,65.795,18.352,48.938,18.352 M48.938,24.469
	c13.549,0,24.471,10.92,24.471,24.469c0,13.548-10.922,24.469-24.471,24.469c-13.548,0-24.469-10.921-24.469-24.469
	C24.469,35.389,35.389,24.469,48.938,24.469 M48.938,36.704c-6.762,0-12.234,5.475-12.234,12.234
	c0,6.762,5.472,12.235,12.234,12.235c6.764,0,12.234-5.473,12.234-12.235C61.172,42.179,55.7,36.704,48.938,36.704"/>
</svg>
