<svg xmlns="http://www.w3.org/2000/svg" width="34.96501" height="40" viewBox="0 0 34.96501 40">
  <title>uE11C-starmarked-large_1</title>
  <g id="Work_file" data-name="Work file">
    <path d="M27.82009,37.36157a.90713.90713,0,0,1-.47754-.13672l-9.85742-6.1416-9.8584,6.1416a.90328.90328,0,0,1-1.3584-.9668L8.97145,24.39477l-8.665-7.75a.90329.90329,0,0,1,.501-1.57031l11.45508-1.30078L16.64821,2.97a.90385.90385,0,0,1,.83692-.56348h0A.90285.90285,0,0,1,18.322,2.97l4.38477,10.80371,11.45507,1.30078a.90323.90323,0,0,1,.51465,1.55762L26.36892,24.3938l2.33789,11.89062a.90455.90455,0,0,1-.88672,1.07715Zm-10.335-8.24609a.90458.90458,0,0,1,.47754.13672L26.533,34.592,24.4988,24.25024a.90336.90336,0,0,1,.27051-.834l7.24414-6.76758-10.043-1.14063a.90171.90171,0,0,1-.73535-.55761l-3.75-9.23926-3.751,9.23926a.90171.90171,0,0,1-.73535.55761L3.01345,16.64184,10.573,23.40356a.9031.9031,0,0,1,.27832.87305L8.51149,34.54516l8.4961-5.293A.90453.90453,0,0,1,17.48513,29.11548Z"/>
    <path d="M16.533,24.51a.86906.86906,0,0,1-.57031-.20313l-1.61719-1.38672a.9031.9031,0,1,1,1.17578-1.37109l1.03223.88477,3.46289-2.957a.90331.90331,0,0,1,1.17187,1.375l-4.02148,3.42774A.98359.98359,0,0,1,16.533,24.51Z"/>
  </g>
</svg>
