<svg xmlns="http://www.w3.org/2000/svg" viewBox="0 0 19.93627 20"><title>average_1</title><g id="Work_file" data-name="Work file"><g id="Icon_Work_file" data-name="Icon Work file"><g id="uE203-group"><path d="M19.90805.70455l-.70787-.7039L16.13881,3.07977A9.26749,9.26749,0,0,0,3.08793,16.20628L.023,19.28906l.70787.70391,3.0646-3.08254A9.26751,9.26751,0,0,0,16.84662,3.78367ZM1.68342,9.99632A8.27158,8.27158,0,0,1,15.43515,3.78758L3.79141,15.49872A8.24164,8.24164,0,0,1,1.68342,9.99632Zm16.57,0A8.27132,8.27132,0,0,1,4.49879,16.20311L16.14284,4.49148A8.24172,8.24172,0,0,1,18.25345,9.99632Z"/></g></g></g></svg>