<?xml version="1.0" encoding="utf-8"?>
<!-- Generator: Adobe Illustrator 15.1.0, SVG Export Plug-In . SVG Version: 6.00 Build 0)  -->
<!DOCTYPE svg PUBLIC "-//W3C//DTD SVG 1.1//EN" "http://www.w3.org/Graphics/SVG/1.1/DTD/svg11.dtd">
<svg version="1.1" id="Layer_2" xmlns="http://www.w3.org/2000/svg" xmlns:xlink="http://www.w3.org/1999/xlink" x="0px" y="0px"
	 width="97.875px" height="97.875px" viewBox="0 0 97.875 97.875" enable-background="new 0 0 97.875 97.875" xml:space="preserve">
<path d="M94.823,8.918h-77.03c-1.719,0-3.116,1.398-3.116,3.116v11.62H3.055c-1.718,0.001-3.116,1.398-3.116,3.117v59.071
	c0,1.719,1.398,3.115,3.116,3.115h77.029c1.72,0,3.115-1.398,3.115-3.115V74.221h11.62c1.72,0,3.116-1.396,3.116-3.115V12.034
	C97.938,10.315,96.54,8.918,94.823,8.918z M76.969,82.725H6.171V47.117h0.031v-6.232H6.171V29.888h25.644v3.091v7.906v6.232h45.154
	V82.725z M76.969,40.885H38.02V29.888h38.949V40.885z M91.706,67.986h-8.504V26.771c0-1.719-1.397-3.116-3.115-3.116H20.909v-8.504
	h70.796V67.986z"/>
</svg>
