<svg xmlns="http://www.w3.org/2000/svg" width="17.91213" height="20" viewBox="0 0 17.91213 20">
  <title>uE031-gear_1</title>
  <g id="Work_file" data-name="Work file">
    <g id="Icon_Work_file" data-name="Icon Work file">
      <g id="uE031-gear">
        <path d="M8.91285,13.26087A3.33566,3.33566,0,0,1,5.56617,9.86438a3.347,3.347,0,1,1,6.69336-.01269,3.33409,3.33409,0,0,1-3.34668,3.40918Zm0-5.79346a2.34719,2.34719,0,0,0-2.34668,2.397,2.35306,2.35306,0,0,0,4.03418,1.68946,2.31507,2.31507,0,0,0,.65918-1.68946A2.34389,2.34389,0,0,0,8.91285,7.46741Z"/>
        <path d="M10.55055,19.44739H7.27516a1.50644,1.50644,0,0,1-1.05469-.44971,1.41725,1.41725,0,0,1-.42773-.99218l-.1211-1.43262c-.18164-.0957-.35351-.1958-.51855-.30225l-1.2793.57715a1.47912,1.47912,0,0,1-1.8916-.53076l-.06641-.09912L.2361,13.32825a1.558,1.558,0,0,1,.43066-2.064l1.23144-.90235c-.001-.09228-.002-.19629-.002-.31689,0-.13916,0-.23291.002-.31641L.66578,8.82483A1.56905,1.56905,0,0,1,.26442,6.715L1.88258,3.9303A1.46559,1.46559,0,0,1,3.6609,3.16419l.14453.04834,1.34277.605A5.58114,5.58114,0,0,1,5.7,3.47718l.18457-1.54A1.4979,1.4979,0,0,1,7.364.55286h3.2754a1.50467,1.50467,0,0,1,1.05468.44971,1.41948,1.41948,0,0,1,.42774.9917l.12011,1.43261q.25782.13551.49317.28516l1.29-.64258A1.48959,1.48959,0,0,1,15.93141,3.59l.06738.10107,1.68066,2.89112a1.55549,1.55549,0,0,1-.43457,2.06347L16.01637,9.547c.001.0918.002.1958.002.31738,0,.17676-.001.28223-.00293.38575l1.1709,1.03466a1.56524,1.56524,0,0,1,.375,2.09034L15.9441,16.15979a1.46767,1.46767,0,0,1-1.77636.76709l-.14649-.0498-1.34375-.60449a5.67114,5.67114,0,0,1-.52637.32715L12.033,17.9972A1.497,1.497,0,0,1,10.55055,19.44739ZM5.25563,15.12708l.23339.165a6.07527,6.07527,0,0,0,.874.50928l.25781.124L6.79078,17.966a.454.454,0,0,0,.13867.32617.50064.50064,0,0,0,.34571.15527h3.27539a.51442.51442,0,0,0,.48437-.49219l.168-2.01269.26758-.12061a4.05034,4.05034,0,0,0,.67871-.40039l.41016-.29541,1.89648.84424c.15625.03516.49121.019.58789-.23828l1.66992-2.88721a.58275.58275,0,0,0-.15234-.77929l-.02539-.021L14.99,10.67933l.02246-.377c.00489-.12695.00586-.228.00586-.438,0-.23584-.00195-.39941-.00879-.53808l-.01465-.27,1.65137-1.21143a.56606.56606,0,0,0,.169-.7583L15.13356,4.194a.51156.51156,0,0,0-.65821-.23144L12.655,4.86878l-.24316-.1709a6.07749,6.07749,0,0,0-.86036-.49951l-.25878-.124-.169-2.04052a.455.455,0,0,0-.13769-.32569.501.501,0,0,0-.34668-.15527H7.364a.51611.51611,0,0,0-.48437.46973L6.62672,4.1471l-.25879.11572a4.08778,4.08778,0,0,0-.69238.40576l-.41113.29834L3.37184,4.12073c-.16114-.04053-.49219-.02148-.58887.23682L1.11207,7.24524a.58179.58179,0,0,0,.15332.7793L2.92067,9.23792,2.90211,9.609c-.00488.13184-.00586.23-.00586.436,0,.23388.00195.39844.00879.5376l.01465.27L1.26735,12.06409a.56819.56819,0,0,0-.168.75928L2.781,15.715a.51955.51955,0,0,0,.65918.23193Z"/>
      </g>
    </g>
  </g>
</svg>
