<?xml version="1.0" encoding="utf-8"?>
<!-- Generator: Adobe Illustrator 19.0.0, SVG Export Plug-In . SVG Version: 6.00 Build 0)  -->
<!DOCTYPE svg PUBLIC "-//W3C//DTD SVG 1.1//EN" "http://www.w3.org/Graphics/SVG/1.1/DTD/svg11.dtd">
<svg version="1.1" id="Ebene_1" xmlns="http://www.w3.org/2000/svg" xmlns:xlink="http://www.w3.org/1999/xlink" x="0px" y="0px"
	 viewBox="-572.1 821.8 22 20" style="enable-background:new -572.1 821.8 22 20;" xml:space="preserve">
<style type="text/css">
	.st0{fill:#FFFFFF;}
</style>
<path class="st0" d="M-550.6,824.7h-11.5c-0.2,0-0.3-2.9-2.5-2.9h-6c-0.8,0-1.5,0.7-1.5,1.5v17c0,1.5,1.3,1.5,2.1,1.5h17.8
	c0.8,0,2.1,0,2.1-1.5v-14.1c0-0.8-0.7-1.5-1.5-1.5 M-569.9,823.4h4.3c1.8,0,2,2.9,2,2.9h11.4c0.3,0,0.5,0.2,0.5,0.5v2.4h-18.8v-5.3
	C-570.4,823.6-570.2,823.4-569.9,823.4 M-552.1,840.2h-17.8c-0.3,0-0.5-0.2-0.5-0.5v-8.9h18.8v8.9
	C-551.6,840-551.8,840.2-552.1,840.2"/>
</svg>
