<?xml version="1.0" encoding="utf-8"?>
<!-- Generator: Adobe Illustrator 15.1.0, SVG Export Plug-In . SVG Version: 6.00 Build 0)  -->
<!DOCTYPE svg PUBLIC "-//W3C//DTD SVG 1.1//EN" "http://www.w3.org/Graphics/SVG/1.1/DTD/svg11.dtd">
<svg version="1.1" id="Layer_3" xmlns="http://www.w3.org/2000/svg" xmlns:xlink="http://www.w3.org/1999/xlink" x="0px" y="0px"
	 width="97.875px" height="97.875px" viewBox="0 0 97.875 97.875" enable-background="new 0 0 97.875 97.875" xml:space="preserve">
<g>
	<path d="M87.438,71.138c0,0-14.87-4.769-21.45-6.887c-5.585,4.249-12.041,6.752-17.55,6.752c-5.509,0-11.965-2.503-17.55-6.752
		c-6.581,2.118-21.45,6.887-21.45,6.887s-6,2.399-6,5.399v13.2c0,1.4,1.556,2.7,3,2.7h42h42c1.444,0,3-1.3,3-2.7v-13.2
		C93.438,73.537,87.438,71.138,87.438,71.138z"/>
	<path d="M48.438,13.538c-11.05,0-20,8.643-20,17.747v12.138c0,9.195,12.486,18.115,20,18.115c7.514,0,20-8.92,20-18.115V31.377
		C68.438,22.181,59.487,13.538,48.438,13.538z"/>
</g>
</svg>
