<?xml version="1.0" encoding="utf-8"?>
<!-- Generator: Adobe Illustrator 25.3.1, SVG Export Plug-In . SVG Version: 6.00 Build 0)  -->
<svg version="1.1" id="Layer_1" xmlns="http://www.w3.org/2000/svg" xmlns:xlink="http://www.w3.org/1999/xlink" x="0px" y="0px"
	 viewBox="0 0 23.873 24" style="enable-background:new 0 0 23.873 24;" xml:space="preserve">
<path d="M23.873,1.0508L22.8159,0l-3.6134,3.6344c-2.1871-1.9093-4.9708-2.8673-7.8856-2.7138
	c-2.9537,0.1613-5.6684,1.4633-7.6432,3.666c-3.7669,4.2028-3.782,10.5063-0.0564,14.7242L0,22.9497L1.0566,24l3.6168-3.6388
	c2.1856,1.9102,4.98,2.8799,7.8842,2.7167c2.9547-0.1593,5.6694-1.4604,7.6447-3.6631c3.7728-4.2043,3.7874-10.5102,0.0573-14.7296
	L23.873,1.0508z M18.1502,4.6925L4.6686,18.2537c-1.505-1.7383-2.3328-3.9526-2.3333-6.2544v-0.0005
	C2.3314,9.438,3.3249,7.0284,5.133,5.2143c1.8082-1.8136,4.2144-2.8148,6.7756-2.8192c0.0058,0,0.0107,0,0.0155,0
	C14.2103,2.3951,16.414,3.2098,18.1502,4.6925z M21.5441,11.9993v0.0005c0.0087,5.2872-4.2848,9.5954-9.5714,9.6051
	c-0.0058,0-0.0107,0-0.0155,0c-2.2896,0-4.4952-0.8152-6.2319-2.3008L19.2074,5.7434C20.7143,7.4807,21.5431,9.696,21.5441,11.9993z
	"/>
</svg>
