<!-- Generated by IcoMoon.io -->
<svg version="1.1" xmlns="http://www.w3.org/2000/svg" width="28" height="28" viewBox="0 0 28 28">
<title>uE030-detach</title>
<path d="M27.127 2.551h-22.037c-0.492 0-0.891 0.4-0.891 0.891v3.324h-3.325c-0.491 0-0.891 0.4-0.891 0.892v16.899c0 0.492 0.4 0.891 0.891 0.891h22.036c0.492 0 0.891-0.4 0.891-0.891v-3.325h3.324c0.492 0 0.891-0.399 0.891-0.891v-16.899c0.001-0.492-0.399-0.891-0.89-0.891zM22.019 23.666h-20.254v-10.187h0.009v-1.783h-0.009v-3.146h7.336v4.929h12.918v10.187zM22.019 11.696h-11.142v-3.146h11.142v3.146zM26.235 19.449h-2.433v-11.791c0-0.492-0.4-0.891-0.891-0.891h-16.93v-2.433h20.253v15.115z"></path>
</svg>
