<svg xmlns="http://www.w3.org/2000/svg" width="18.9748" height="20" viewBox="0 0 18.9748 20">
  <title>uE030-detach_1</title>
  <g id="Work_file" data-name="Work file">
    <g id="Icon_Work_file" data-name="Icon Work file">
      <g id="uE030-detach">
        <path d="M17.77737,2.28968H4.07424A1.18781,1.18781,0,0,0,2.88772,3.4762V5.18128h-1.375A1.50539,1.50539,0,0,0,.00881,6.6847v9.522a1.5054,1.5054,0,0,0,1.50391,1.50342H14.58205A1.50455,1.50455,0,0,0,16.085,16.20667V14.819h1.69239a1.18781,1.18781,0,0,0,1.18652-1.18652V3.4762A1.18781,1.18781,0,0,0,17.77737,2.28968ZM14.58205,16.71009H1.51272a.50378.50378,0,0,1-.50391-.50342V6.6847a.50409.50409,0,0,1,.50391-.50342H6.27834V8.3888a1.1877,1.1877,0,0,0,1.18653,1.186H15.085v6.63184A.50357.50357,0,0,1,14.58205,16.71009ZM15.085,8.57483H7.46487a.18672.18672,0,0,1-.18653-.186V6.18128h7.30371a.50388.50388,0,0,1,.50293.50342Zm2.87891,5.05762a.18681.18681,0,0,1-.18652.18652H16.085V6.6847a1.50455,1.50455,0,0,0-1.50293-1.50342H3.88772V3.4762a.18681.18681,0,0,1,.18652-.18652H17.77737a.18681.18681,0,0,1,.18652.18652Z"/>
      </g>
    </g>
  </g>
</svg>
