<!-- Generated by IcoMoon.io -->
<svg version="1.1" xmlns="http://www.w3.org/2000/svg" width="28" height="28" viewBox="0 0 28 28">
<title>uE031-gear</title>
<path d="M14 19.303c-2.929 0-5.303-2.374-5.303-5.303s2.374-5.303 5.303-5.303c2.929 0 5.303 2.374 5.303 5.303s-2.374 5.303-5.303 5.303zM14 17.182c1.757 0 3.182-1.425 3.182-3.182s-1.425-3.182-3.182-3.182c-1.757 0-3.182 1.425-3.182 3.182s1.425 3.182 3.182 3.182z"></path>
<path d="M23.961 14c0 0.581-0.052 1.163-0.154 1.748l2.588 1.495c0.507 0.293 0.681 0.942 0.388 1.449l-2.545 4.409c-0.293 0.507-0.941 0.681-1.449 0.388l-2.586-1.493c-0.902 0.748-1.925 1.339-3.028 1.747v2.985c0 0.586-0.475 1.061-1.061 1.061h-5.091c-0.586 0-1.061-0.475-1.061-1.061v-2.986c-1.104-0.408-2.128-0.999-3.029-1.747l-2.585 1.492c-0.507 0.293-1.156 0.119-1.449-0.388l-2.545-4.409c-0.293-0.507-0.119-1.156 0.388-1.449l2.586-1.493c-0.102-0.583-0.155-1.165-0.155-1.747s0.053-1.165 0.155-1.748l-2.586-1.493c-0.507-0.293-0.681-0.942-0.388-1.449l2.545-4.409c0.293-0.507 0.942-0.681 1.449-0.388l2.584 1.492c0.902-0.748 1.925-1.34 3.028-1.748v-2.985c0-0.586 0.475-1.061 1.061-1.061h5.091c0.586 0 1.061 0.475 1.061 1.061v2.986c1.104 0.408 2.128 0.999 3.029 1.747l2.584-1.492c0.507-0.293 1.156-0.119 1.449 0.388l2.545 4.409c0.293 0.507 0.119 1.156-0.388 1.449l-2.586 1.493c0.102 0.583 0.155 1.164 0.155 1.748zM22.082 17.201c-0.408-0.236-0.612-0.713-0.5-1.171 0.17-0.693 0.258-1.366 0.258-2.030 0-0.667-0.088-1.338-0.26-2.023-0.115-0.459 0.088-0.939 0.498-1.176l2.335-1.348-1.485-2.572-2.331 1.346c-0.411 0.237-0.929 0.173-1.27-0.158-0.979-0.951-2.18-1.647-3.503-2.021-0.457-0.129-0.772-0.546-0.772-1.021v-2.695h-2.97v2.693c0 0.474-0.315 0.891-0.771 1.020-1.323 0.375-2.525 1.072-3.505 2.023-0.34 0.33-0.858 0.395-1.269 0.157l-2.331-1.346-1.485 2.572 2.335 1.348c0.41 0.237 0.614 0.717 0.498 1.176-0.172 0.685-0.26 1.356-0.26 2.023 0 0.666 0.089 1.338 0.26 2.023 0.115 0.459-0.088 0.939-0.498 1.176l-2.335 1.348 1.485 2.572 2.333-1.347c0.411-0.237 0.929-0.173 1.269 0.158 0.979 0.951 2.18 1.647 3.503 2.021 0.457 0.129 0.772 0.546 0.772 1.021v2.695h2.97v-2.693c0-0.474 0.315-0.891 0.771-1.020 1.322-0.375 2.523-1.071 3.505-2.022 0.34-0.33 0.858-0.394 1.268-0.157l2.333 1.347 1.485-2.572-2.335-1.348z"></path>
</svg>
