<svg xmlns="http://www.w3.org/2000/svg" viewBox="0 0 24.42721 20"><title>max_1</title><g id="Work_file" data-name="Work file"><g id="Icon_Work_file" data-name="Icon Work file"><g id="uE203-group"><polygon points="21.642 9.835 24.235 5.802 23.045 5.802 21.047 8.909 19.049 5.802 17.86 5.802 20.452 9.835 17.664 14.17 18.854 14.17 21.047 10.76 23.24 14.17 24.43 14.17 21.642 9.835"/><path d="M12.45752,5.80229,9.26459,14.17h1.07l.91595-2.40015h3.52167l.916,2.40015h1.07L13.56519,5.80229Zm-.82544,4.96753,1.37928-3.61426,1.37921,3.61426Z"/><polygon points="4.152 12.544 1.653 5.809 0 5.809 0 14.17 1 14.17 1 6.922 3.689 14.17 4.615 14.17 7.304 6.922 7.304 14.17 8.304 14.17 8.304 5.809 6.651 5.809 4.152 12.544"/></g></g></g></svg>