<?xml version="1.0" encoding="utf-8"?>
<!-- Generator: Adobe Illustrator 15.1.0, SVG Export Plug-In . SVG Version: 6.00 Build 0)  -->
<!DOCTYPE svg PUBLIC "-//W3C//DTD SVG 1.1//EN" "http://www.w3.org/Graphics/SVG/1.1/DTD/svg11.dtd">
<svg version="1.1" id="Layer_3" xmlns="http://www.w3.org/2000/svg" xmlns:xlink="http://www.w3.org/1999/xlink" x="0px" y="0px"
	 width="97.875px" height="97.875px" viewBox="0 0 97.875 97.875" enable-background="new 0 0 97.875 97.875" xml:space="preserve">
<path d="M48.938,30.239c5.141,0,9.35-4.207,9.35-9.35c0-5.144-4.207-9.349-9.35-9.349c-5.142,0-9.349,4.206-9.349,9.35
	C39.589,26.033,43.795,30.239,48.938,30.239z M48.938,39.589c-5.142,0-9.35,4.206-9.35,9.349s4.208,9.35,9.35,9.35
	c5.143,0,9.35-4.208,9.35-9.35S54.08,39.589,48.938,39.589z M48.938,67.636c-5.142,0-9.35,4.207-9.35,9.35
	c0,5.142,4.208,9.349,9.35,9.349c5.143,0,9.35-4.208,9.35-9.351C58.287,71.842,54.08,67.636,48.938,67.636z"/>
</svg>
