<?xml version="1.0" encoding="utf-8"?>
<!-- Generator: Adobe Illustrator 21.1.0, SVG Export Plug-In . SVG Version: 6.00 Build 0)  -->
<svg version="1.1" id="Ebene_1" xmlns="http://www.w3.org/2000/svg" xmlns:xlink="http://www.w3.org/1999/xlink" x="0px" y="0px"
	 viewBox="0 0 22.4 22.4" style="enable-background:new 0 0 22.4 22.4;" xml:space="preserve">
<title>edit</title>
<desc>Created with Sketch.</desc>
<path d="M22.2,4.7l-4.5-4.5c-0.3-0.3-0.8-0.3-1.1,0L1.7,15.1c-0.1,0.1-0.2,0.2-0.2,0.3l-1.5,6c0,0.3,0,0.6,0.2,0.8
	c0.1,0.1,0.3,0.2,0.5,0.2c0.1,0,0.1,0,0.2,0l6-1.5c0.1,0,0.3-0.1,0.3-0.2l12-12l0,0l0,0l3-3C22.5,5.5,22.5,5,22.2,4.7z M6.3,19.5
	l-4.6,1.1L2.8,16L14.2,4.8l3.4,3.4L6.3,19.5z M18.7,7.1l-3.4-3.4l1.9-1.9l3.4,3.4L18.7,7.1z"/>
</svg>
