<svg xmlns="http://www.w3.org/2000/svg" xmlns:xlink="http://www.w3.org/1999/xlink" preserveAspectRatio="xMidYMid" width="23" height="21" viewBox="0 0 23 21">
  <defs>
    <style>
      .cls-1 {
        fill: #fff;
        fill-rule: evenodd;
      }
    </style>
  </defs>
  <path d="M22.477,3.045 L10.730,3.045 C10.520,3.045 10.416,0.000 8.116,0.000 L1.568,0.000 C0.732,0.000 -0.000,0.735 -0.000,1.789 L-0.000,19.639 C-0.000,21.000 1.359,21.000 2.195,21.000 L20.805,21.000 C21.641,21.000 23.000,21.000 23.000,19.425 L23.000,4.620 C23.000,3.780 22.268,3.045 21.432,3.045 M2.530,1.968 L6.778,1.968 C8.660,1.968 8.869,5.013 8.869,5.013 L20.535,5.013 C20.848,5.013 21.057,5.223 21.057,5.538 L21.057,8.500 L1.903,8.500 L1.903,2.493 C2.007,2.178 2.216,1.968 2.530,1.968 M20.639,18.845 L2.530,18.845 C2.216,18.845 2.007,18.635 2.007,18.320 L1.955,10.500 L21.110,10.500 L21.162,18.320 C21.162,18.635 20.953,18.845 20.639,18.845 " class="cls-1"/>
</svg>
