<svg xmlns="http://www.w3.org/2000/svg" xmlns:xlink="http://www.w3.org/1999/xlink" preserveAspectRatio="xMidYMid" width="20.876" height="20.938" viewBox="0 0 20.876 20.938">
  <defs>
    <style>
      .cls-1 {
        fill: #5c5c5c;
        fill-rule: evenodd;
      }
    </style>
  </defs>
  <path d="M20.562,18.997 L15.523,13.954 C16.638,12.490 17.311,10.655 17.311,8.680 C17.311,3.893 13.433,0.012 8.650,0.012 C3.866,0.012 -0.012,3.893 -0.012,8.680 C-0.012,13.466 3.866,17.347 8.650,17.347 C10.624,17.347 12.458,16.673 13.921,15.558 L18.960,20.600 C19.169,20.809 19.471,20.925 19.750,20.925 C20.028,20.925 20.330,20.809 20.539,20.600 C21.004,20.158 21.004,19.438 20.562,18.997 ZM2.241,8.680 C2.241,5.148 5.120,2.266 8.650,2.266 C12.179,2.266 15.059,5.148 15.059,8.680 C15.059,12.212 12.179,15.093 8.650,15.093 C5.120,15.093 2.241,12.212 2.241,8.680 Z" class="cls-1"/>
</svg>
