<?xml version="1.0" encoding="UTF-8" standalone="no"?>
<svg
   xmlns:dc="http://purl.org/dc/elements/1.1/"
   xmlns:cc="http://creativecommons.org/ns#"
   xmlns:rdf="http://www.w3.org/1999/02/22-rdf-syntax-ns#"
   xmlns:svg="http://www.w3.org/2000/svg"
   xmlns="http://www.w3.org/2000/svg"
   version="1.1"
   id="Layer_2"
   x="0px"
   y="0px"
   width="97.875px"
   height="97.875px"
   viewBox="0 0 97.875 97.875"
   enable-background="new 0 0 97.875 97.875"
   xml:space="preserve"><metadata
     id="metadata3360"><rdf:RDF><cc:Work
         rdf:about=""><dc:format>image/svg+xml</dc:format><dc:type
           rdf:resource="http://purl.org/dc/dcmitype/StillImage" /><dc:title></dc:title></cc:Work></rdf:RDF></metadata><defs
     id="defs3358" /><path
     display="none"
     fill="#5F5F5F"
     d="M48.967,7.034C72.25,7.053,91.184,25.941,91.165,49.141  c-0.019,23.205-18.982,42.068-42.267,42.048C25.605,91.17,6.678,72.275,6.697,49.073C6.716,25.872,25.674,7.015,48.967,7.034   M48.973,0.437C22.032,0.415,0.097,22.23,0.075,49.067C0.053,75.909,21.952,97.768,48.893,97.788  c26.938,0.022,48.871-21.799,48.895-48.641C97.809,22.31,75.911,0.459,48.973,0.437"
     id="path3352" /><rect
     transform="matrix(0.70710678,-0.70710678,0.70710678,0.70710678,0,0)"
     y="21.642284"
     x="-4.7392139"
     height="97.30925"
     width="10"
     id="rect4151"
     style="fill:#000000;fill-opacity:1;stroke:none;stroke-opacity:1" /><rect
     transform="matrix(-0.70710678,-0.70710678,0.70710678,-0.70710678,0,0)"
     y="-48.393837"
     x="-75.296913"
     height="97.30925"
     width="10"
     id="rect4151-1"
     style="fill:#000000;fill-opacity:1;stroke:none;stroke-opacity:1" /></svg>