<?xml version="1.0" encoding="UTF-8" standalone="no"?>
<svg
   xmlns:dc="http://purl.org/dc/elements/1.1/"
   xmlns:cc="http://creativecommons.org/ns#"
   xmlns:rdf="http://www.w3.org/1999/02/22-rdf-syntax-ns#"
   xmlns:svg="http://www.w3.org/2000/svg"
   xmlns="http://www.w3.org/2000/svg"
   xml:space="preserve"
   enable-background="new 0 0 97.875 97.875"
   viewBox="0 0 97.875 97.875"
   height="97.875px"
   width="97.875px"
   y="0px"
   x="0px"
   id="Layer_2"
   version="1.1"><metadata
     id="metadata3360"><rdf:RDF><cc:Work
         rdf:about=""><dc:format>image/svg+xml</dc:format><dc:type
           rdf:resource="http://purl.org/dc/dcmitype/StillImage" /><dc:title></dc:title></cc:Work></rdf:RDF></metadata><defs
     id="defs3358" /><path
     id="path3352"
     d="M48.967,7.034C72.25,7.053,91.184,25.941,91.165,49.141  c-0.019,23.205-18.982,42.068-42.267,42.048C25.605,91.17,6.678,72.275,6.697,49.073C6.716,25.872,25.674,7.015,48.967,7.034   M48.973,0.437C22.032,0.415,0.097,22.23,0.075,49.067C0.053,75.909,21.952,97.768,48.893,97.788  c26.938,0.022,48.871-21.799,48.895-48.641C97.809,22.31,75.911,0.459,48.973,0.437"
     fill="#5F5F5F"
     display="none" /><path
     id="path3371"
     d="M 48.933594 -0.125 A 49 49 0 0 0 -0.06640625 48.875 A 49 49 0 0 0 48.933594 97.875 A 49 49 0 0 0 49.027344 97.871094 L 49.027344 89.871094 A 41 41 0 0 1 48.933594 89.875 A 41 41 0 0 1 7.9335938 48.875 A 41 41 0 0 1 48.933594 7.875 A 41 41 0 0 1 89.933594 48.875 L 97.933594 48.875 A 49 49 0 0 0 48.933594 -0.125 z "
     style="fill:#000000;fill-opacity:1;fill-rule:evenodd;stroke:none;stroke-width:1px;stroke-linecap:butt;stroke-linejoin:miter;stroke-opacity:1" /></svg>