<?xml version="1.0" encoding="utf-8"?>
<!-- Generator: Adobe Illustrator 21.1.0, SVG Export Plug-In . SVG Version: 6.00 Build 0)  -->
<svg version="1.1" id="Ebene_1" xmlns="http://www.w3.org/2000/svg" xmlns:xlink="http://www.w3.org/1999/xlink" x="0px" y="0px"
	 viewBox="0 0 45.1 49" style="enable-background:new 0 0 45.1 49;" xml:space="preserve">
<title>Brief</title>
<desc>Created with Sketch.</desc>
<path d="M43.7,18.3L43,17.7l-2,1.6V4c0-2.2-1.8-4-4-4H8C5.8,0,4,1.8,4,4v15.3l-2.1-1.7l-0.6,0.7c-0.8,0.9-1.3,2-1.3,3.3v22.7
	C0,46.9,2.1,49,4.7,49h35.7c2.6,0,4.7-2.1,4.7-4.7V21.6C45,20.4,44.5,19.2,43.7,18.3z M43,21.6v22.2L32.5,28.5l10.2-8
	C42.9,20.8,43,21.2,43,21.6z M6,4c0-1.1,0.9-2,2-2h29c1.1,0,2,0.9,2,2v16.8l-9.3,7.3L22.5,34l-6.7-5.4l0,0l-0.3-0.2l-0.3-0.2L6,20.9
	V4z M2,21.6c0-0.4,0.1-0.8,0.2-1.2L13.1,29l-11,16.1c0-0.3-0.1-0.5-0.1-0.8C2,44.3,2,21.6,2,21.6z M40.3,47H4.7
	c-0.4,0-0.9-0.1-1.2-0.3l11.2-16.4l7.8,6.4l8.4-6.9l0,0l11.3,16.5C41.7,46.7,41.1,47,40.3,47z"/>
</svg>
