<?xml version="1.0" encoding="UTF-8" standalone="no"?>
<svg
   xmlns:dc="http://purl.org/dc/elements/1.1/"
   xmlns:cc="http://creativecommons.org/ns#"
   xmlns:rdf="http://www.w3.org/1999/02/22-rdf-syntax-ns#"
   xmlns:svg="http://www.w3.org/2000/svg"
   xmlns="http://www.w3.org/2000/svg"
   xmlns:sodipodi="http://sodipodi.sourceforge.net/DTD/sodipodi-0.dtd"
   xmlns:inkscape="http://www.inkscape.org/namespaces/inkscape"
   version="1.1"
   id="Layer_2"
   x="0px"
   y="0px"
   width="97.875px"
   height="97.875px"
   viewBox="0 0 97.875 97.875"
   enable-background="new 0 0 97.875 97.875"
   xml:space="preserve"
   inkscape:version="0.91 r13725"
   sodipodi:docname="uE045-remove.svg"><sodipodi:namedview
     pagecolor="#ffffff"
     bordercolor="#666666"
     borderopacity="1"
     objecttolerance="10"
     gridtolerance="10"
     guidetolerance="10"
     inkscape:pageopacity="0"
     inkscape:pageshadow="2"
     inkscape:window-width="2560"
     inkscape:window-height="1378"
     id="namedview4142"
     showgrid="false"
     inkscape:zoom="6.1864623"
     inkscape:cx="85.582904"
     inkscape:cy="38.226481"
     inkscape:window-x="-8"
     inkscape:window-y="-8"
     inkscape:window-maximized="1"
     inkscape:current-layer="Layer_2" /><metadata
     id="metadata3360"><rdf:RDF><cc:Work
         rdf:about=""><dc:format>image/svg+xml</dc:format><dc:type
           rdf:resource="http://purl.org/dc/dcmitype/StillImage" /><dc:title /></cc:Work></rdf:RDF></metadata><defs
     id="defs3358" /><path
     display="none"
     fill="#5F5F5F"
     d="M48.967,7.034C72.25,7.053,91.184,25.941,91.165,49.141  c-0.019,23.205-18.982,42.068-42.267,42.048C25.605,91.17,6.678,72.275,6.697,49.073C6.716,25.872,25.674,7.015,48.967,7.034   M48.973,0.437C22.032,0.415,0.097,22.23,0.075,49.067C0.053,75.909,21.952,97.768,48.893,97.788  c26.938,0.022,48.871-21.799,48.895-48.641C97.809,22.31,75.911,0.459,48.973,0.437"
     id="path3352" /><path
     style="fill:#000000;fill-opacity:1;stroke:none;stroke-opacity:1"
     d="M 25.234375 18.164062 L 18.164062 25.234375 L 41.867188 48.9375 L 18.164062 72.640625 L 25.234375 79.710938 L 48.9375 56.007812 L 72.640625 79.710938 L 79.710938 72.640625 L 56.007812 48.9375 L 79.710938 25.234375 L 72.640625 18.164062 L 48.9375 41.867188 L 25.234375 18.164062 z "
     id="rect4151" /></svg>