<!-- Generated by IcoMoon.io -->
<svg version="1.1" xmlns="http://www.w3.org/2000/svg" width="31" height="28" viewBox="0 0 31 28">
<title>uE043-folder</title>
<path d="M29.969 4.060h-15.663c-0.28 0-0.419-4.060-3.485-4.060h-8.731c-1.115 0-2.091 0.98-2.091 2.385v23.8c0 1.815 1.812 1.815 2.927 1.815h24.813c1.115 0 2.927 0 2.927-2.1v-19.74c0-1.12-0.976-2.1-2.091-2.1zM3.373 2.624h5.664c2.509 0 2.788 4.060 2.788 4.060h15.555c0.417 0 0.696 0.28 0.696 0.7v3.949h-25.539v-8.009c0.139-0.42 0.417-0.7 0.836-0.7zM27.519 25.127h-24.145c-0.419 0-0.697-0.28-0.697-0.7l-0.069-10.427h25.54l0.069 10.427c0 0.42-0.279 0.7-0.697 0.7z"></path>
</svg>
