<?xml version="1.0" encoding="utf-8"?>
<!-- Generator: Adobe Illustrator 15.1.0, SVG Export Plug-In . SVG Version: 6.00 Build 0)  -->
<!DOCTYPE svg PUBLIC "-//W3C//DTD SVG 1.1//EN" "http://www.w3.org/Graphics/SVG/1.1/DTD/svg11.dtd">
<svg version="1.1" id="Layer_3" xmlns="http://www.w3.org/2000/svg" xmlns:xlink="http://www.w3.org/1999/xlink" x="0px" y="0px"
	 width="97.875px" height="97.875px" viewBox="0 0 97.875 97.875" enable-background="new 0 0 97.875 97.875" xml:space="preserve">
<g>
	<path d="M96.17,88.681L72.616,65.127c5.21-6.838,8.357-15.413,8.357-24.64C80.974,18.127,62.848,0,40.487,0
		C18.127,0,0,18.127,0,40.487c0,22.36,18.127,40.487,40.487,40.487c9.227,0,17.802-3.148,24.64-8.358L88.681,96.17
		c0.978,0.978,2.388,1.521,3.69,1.521s2.714-0.543,3.691-1.521C98.233,94.108,98.233,90.744,96.17,88.681z M10.528,40.487
		c0-16.499,13.46-29.958,29.959-29.958s29.958,13.458,29.958,29.958S56.986,70.446,40.487,70.446S10.528,56.986,10.528,40.487z"/>
</g>
</svg>
