<?xml version="1.0" encoding="utf-8"?>
<!-- Generator: Adobe Illustrator 19.0.0, SVG Export Plug-In . SVG Version: 6.00 Build 0)  -->
<!DOCTYPE svg PUBLIC "-//W3C//DTD SVG 1.1//EN" "http://www.w3.org/Graphics/SVG/1.1/DTD/svg11.dtd">
<svg version="1.1" id="Your_Icon" xmlns="http://www.w3.org/2000/svg" xmlns:xlink="http://www.w3.org/1999/xlink" x="0px" y="0px"
	 viewBox="0 0 100 100" style="enable-background:new 0 0 100 100;" xml:space="preserve">
<style type="text/css">
	.st0{fill:#FFFFFF;}
</style>
<g>
	<path class="st0" d="M93.6,86.7L71.9,65c4.8-6.3,7.7-14.2,7.7-22.7C79.6,21.7,62.9,5,42.3,5C21.7,5,5,21.7,5,42.3
		s16.7,37.3,37.3,37.3c8.5,0,16.4-2.9,22.7-7.7l21.7,21.7c0.9,0.9,2.2,1.4,3.4,1.4c1.2,0,2.5-0.5,3.4-1.4
		C95.5,91.7,95.5,88.6,93.6,86.7z M14.7,42.3c0-15.2,12.4-27.6,27.6-27.6s27.6,12.4,27.6,27.6S57.5,69.9,42.3,69.9
		S14.7,57.5,14.7,42.3z"/>
</g>
</svg>
