<?xml version="1.0" encoding="utf-8"?>
<!-- Generator: Adobe Illustrator 19.0.0, SVG Export Plug-In . SVG Version: 6.00 Build 0)  -->
<!DOCTYPE svg PUBLIC "-//W3C//DTD SVG 1.1//EN" "http://www.w3.org/Graphics/SVG/1.1/DTD/svg11.dtd">
<svg version="1.1" id="Ebene_1" xmlns="http://www.w3.org/2000/svg" xmlns:xlink="http://www.w3.org/1999/xlink" x="0px" y="0px"
	 viewBox="-285 408.9 24 24" style="enable-background:new -285 408.9 24 24;" xml:space="preserve">
<style type="text/css">
	.st0{fill:#FFFFFF;}
</style>
<path class="st0" d="M-273,416.9c1.1,0,2-0.9,2-2c0-1.1-0.9-2-2-2s-2,0.9-2,2C-275,416-274.1,416.9-273,416.9z M-273,418.9
	c-1.1,0-2,0.9-2,2c0,1.1,0.9,2,2,2s2-0.9,2-2C-271,419.8-271.9,418.9-273,418.9z M-273,424.9c-1.1,0-2,0.9-2,2c0,1.1,0.9,2,2,2
	s2-0.9,2-2C-271,425.8-271.9,424.9-273,424.9z"/>
</svg>
