<?xml version="1.0" encoding="utf-8"?>
<!-- Generator: Adobe Illustrator 21.1.0, SVG Export Plug-In . SVG Version: 6.00 Build 0)  -->
<svg version="1.1" id="Ebene_1" xmlns="http://www.w3.org/2000/svg" xmlns:xlink="http://www.w3.org/1999/xlink" x="0px" y="0px"
	 viewBox="0 0 58 47" style="enable-background:new 0 0 58 47;" xml:space="preserve">
<title>Group 14</title>
<desc>Created with Sketch.</desc>
<g>
	<path d="M40.6,0.3c-0.9-0.4-1.9-0.4-2.6,0.1L24.4,9.2H12.6C5.7,9.2,0,14.9,0,21.9C0,28,4.3,33.2,10.1,34.4l0.1,0.3
		c0.5,1.6,2.6,8,2.6,8c0.5,1.3,1.8,4.3,4.5,4.3c0.6,0,1.3-0.2,2-0.5c4.1-2.1,2.8-6.2,1.4-10.9c0,0-0.2-0.8-0.3-1H24l0,0h0.2L38,43.5
		c0.5,0.4,1.1,0.5,1.4,0.5c0.4,0,0.8-0.1,1.2-0.3c0.8-0.4,1.4-1.3,1.4-2.3V2.6C42,1.7,41.5,0.9,40.6,0.3z M2,21.9
		c0-5,3.4-9.2,8-10.4v20.8C5.4,31.1,2,26.9,2,21.9z M18.8,36.2c1.5,4.9,2.1,7.3-0.4,8.6c-0.4,0.2-0.7,0.3-1,0.3
		c-1.4,0-2.3-2.2-2.7-3.2c0,0-1.3-3.5-2.4-7.2h6.1L18.8,36.2z M20.8,32.7L12,32.6V11.2c0.2,0,0.4,0,0.6,0H24v21.5H20.8z M40,41.4
		c0,0.2-0.1,0.4-0.3,0.5s-0.4,0.1-0.6,0L26,33.5V10.6l13.2-8.5C39.3,2,39.5,2,39.6,2C39.7,2.1,40,2.3,40,2.6V41.4z"/>
	<path d="M51.7,8.3c-0.4-0.4-1-0.4-1.4,0s-0.4,1,0,1.4C53.9,13.3,55.9,18,56,23c0,5-2,9.7-5.6,13.3c-0.4,0.4-0.4,1,0,1.4
		c0.2,0.2,0.5,0.3,0.7,0.3c0.3,0,0.5-0.1,0.7-0.3c4-3.9,6.2-9.2,6.2-14.7C57.9,17.5,55.7,12.3,51.7,8.3z"/>
</g>
</svg>
