<?xml version="1.0" encoding="utf-8"?>
<!-- Generator: Adobe Illustrator 21.1.0, SVG Export Plug-In . SVG Version: 6.00 Build 0)  -->
<svg version="1.1" id="Ebene_1" xmlns="http://www.w3.org/2000/svg" xmlns:xlink="http://www.w3.org/1999/xlink" x="0px" y="0px"
	 viewBox="0 0 17.9 20" style="enable-background:new 0 0 17.9 20;" xml:space="preserve">
<title>Shape</title>
<desc>Created with Sketch.</desc>
<g id="Präsentation-UGM">
	<g id="CMS_Template" transform="translate(-1689.000000, -923.000000)">
		<path id="Shape" d="M1704,937.1c-0.8,0-1.4,0.3-2,0.8l-7.1-4.2c0-0.2,0.1-0.5,0.1-0.7s0-0.5-0.1-0.7l7-4.1c0.5,0.5,1.2,0.8,2,0.8
			c1.7,0,3-1.3,3-3s-1.3-3-3-3s-3,1.3-3,3c0,0.2,0,0.5,0.1,0.7l-7,4.1c-0.5-0.5-1.2-0.8-2-0.8c-1.7,0-3,1.3-3,3s1.3,3,3,3
			c0.8,0,1.5-0.3,2-0.8l7.1,4.2c-0.1,0.2-0.1,0.4-0.1,0.7c0,1.6,1.3,2.9,2.9,2.9s2.9-1.3,2.9-2.9
			C1706.9,938.5,1705.6,937.1,1704,937.1z"/>
	</g>
</g>
</svg>
