<?xml version="1.0" encoding="utf-8"?>
<!-- Generator: Adobe Illustrator 21.1.0, SVG Export Plug-In . SVG Version: 6.00 Build 0)  -->
<svg version="1.1" id="Ebene_1" xmlns="http://www.w3.org/2000/svg" xmlns:xlink="http://www.w3.org/1999/xlink" x="0px" y="0px"
	 viewBox="0 0 21.2 19" style="enable-background:new 0 0 21.2 19;" xml:space="preserve">
<title>Delete-Editor</title>
<desc>Created with Sketch.</desc>
<g>
	<path d="M17.8,5.8c-0.4,0-0.8,0.3-0.8,0.8v9.1c0,1-0.8,1.9-1.9,1.9H6c-1,0-1.9-0.8-1.9-1.9V6.6c0-0.4-0.2-0.8-0.7-0.8
		S2.7,6.1,2.7,6.6v9.1C2.7,17.5,4.2,19,6,19h9.1c1.9,0,3.4-1.5,3.4-3.4v-9C18.5,6.1,18.2,5.8,17.8,5.8z"/>
	<path d="M20.3,3.5h-5.7V0.8c0-0.4-0.3-0.8-0.8-0.8H7.3C6.9,0,6.6,0.3,6.6,0.8v2.7H0.8C0.3,3.5,0,3.8,0,4.2S0.3,5,0.8,5h19.6
		c0.4,0,0.8-0.3,0.8-0.8S20.7,3.5,20.3,3.5z M8.1,1.5h5v2h-5V1.5z"/>
</g>
</svg>
