<?xml version="1.0" encoding="utf-8"?>
<!-- Generator: Adobe Illustrator 21.1.0, SVG Export Plug-In . SVG Version: 6.00 Build 0)  -->
<svg version="1.1" id="Ebene_1" xmlns="http://www.w3.org/2000/svg" xmlns:xlink="http://www.w3.org/1999/xlink" x="0px" y="0px"
	 viewBox="0 0 36.4 50.2" style="enable-background:new 0 0 36.4 50.2;" xml:space="preserve">
<title>Social_Media</title>
<desc>Created with Sketch.</desc>
<g id="Präsentation-UGM">
	<g id="CMS_Wizard_V2" transform="translate(-597.000000, -580.000000)">
		<g id="Social_Media" transform="translate(597.000000, 580.000000)">
			<g id="Shape">
				<g>
					<path d="M9.6,28.9h0.3l0,0l14.2,11.3L24,40.5c-0.5,1-0.8,2-0.8,3.1c0,3.7,2.9,6.6,6.6,6.6s6.6-3,6.6-6.6c0-3.7-2.9-6.7-6.6-6.7
						c-1.5,0-3.1,0.6-4.2,1.6l-0.3,0.2l-0.2-0.1l-13.7-11l0.3-0.3c1-1.3,1.6-2.7,1.6-4.3c0-1.5-0.5-2.9-1.5-4.2l-0.2-0.3l5.2-6.3
						l0.3,0.2c1,0.5,2.1,0.8,3.2,0.8c3.6,0,6.6-3,6.6-6.6S23.8,0,20.2,0s-6.6,3-6.6,6.6c0,1.5,0.5,2.9,1.5,4.2l0.2,0.3l-5.2,6.2
						l-0.3-0.2c-1-0.5-2.1-0.8-3.2-0.8c-3.6,0-6.6,3-6.6,6.6c0,3.7,2.9,6.6,6.6,6.6C7.7,29.6,8.7,29.4,9.6,28.9L9.6,28.9z
						 M29.8,48.6c-2.7,0-4.9-2.2-4.9-4.9s2.2-4.9,4.9-4.9s4.9,2.2,4.9,4.9S32.5,48.6,29.8,48.6z M6.6,28c-2.7,0-4.9-2.2-4.9-4.9
						s2.2-4.9,4.9-4.9s4.9,2.2,4.9,4.9S9.3,28,6.6,28z M20.2,11.5c-2.7,0-4.9-2.2-4.9-4.9s2.2-4.9,4.9-4.9s4.9,2.2,4.9,4.9
						S22.9,11.5,20.2,11.5z"/>
				</g>
			</g>
		</g>
	</g>
</g>
</svg>
