<?xml version="1.0" encoding="utf-8"?>
<!-- Generator: Adobe Illustrator 21.1.0, SVG Export Plug-In . SVG Version: 6.00 Build 0)  -->
<svg version="1.1" id="Ebene_1" xmlns="http://www.w3.org/2000/svg" xmlns:xlink="http://www.w3.org/1999/xlink" x="0px" y="0px"
	 viewBox="0 0 21.5 23.5" style="enable-background:new 0 0 21.5 23.5;" xml:space="preserve">
<title>SocialFollow</title>
<desc>Created with Sketch.</desc>
<g>
	<path d="M3.3,15.1c1.5-0.5,4-1.1,6.7-1.1c3.4,0,6-3.8,6-7V6c0-3.3-2.7-6-6-6S4,2.7,4,6v1c0,1.9,0.9,3.9,2.3,5.3
		c-1.4,0.2-2.7,0.6-3.6,0.9C1.1,13.8,0,15.3,0,17v5h10v-2H2v-3C2,16.2,2.5,15.4,3.3,15.1z M6,7V6c0-2.2,1.8-4,4-4s4,1.8,4,4v1
		c0,2.3-1.8,5-4,5S6,9.3,6,7z"/>
	<path d="M20,20.5c-0.4,0-0.7,0.1-0.9,0.3l-2.6-1.6c0-0.1,0.1-0.2,0-0.5l2.6-1.7c0.3,0.2,0.6,0.3,0.9,0.3c0.8,0,1.5-0.7,1.5-1.5
		s-0.7-1.5-1.5-1.5s-1.5,0.7-1.5,1.5c0,0.1,0,0.3,0.1,0.4L16,17.9c-0.3-0.2-0.6-0.4-1-0.4c-0.8,0-1.5,0.7-1.5,1.5s0.7,1.5,1.5,1.5
		c0.4,0,0.7-0.1,1-0.4l2.6,1.6c0,0.1,0,0.2,0,0.3c0,0.8,0.7,1.5,1.5,1.5s1.4-0.8,1.4-1.6S20.9,20.5,20,20.5z"/>
</g>
</svg>
