<svg xmlns="http://www.w3.org/2000/svg" viewBox="0 0 17.722 20"><title>zahlen-list_1</title><g id="Schrift"><rect x="6.80917" y="2.01445" width="10.9082" height="1"/><rect x="6.80917" y="9.43047" width="10.9082" height="1"/><rect x="6.80917" y="16.94804" width="10.9082" height="1"/><path d="M1.07919,1.47246q.10254-.082.36572-.34571l-.01709.51954-.01025.47558v2.8916H2.47372V.0164H1.60556L-.0043,1.29863.505,1.9334Z"/><path d="M1.32529,11.52812l.64257-.60449a9.22884,9.22884,0,0,0,.897-.90625,2.47965,2.47965,0,0,0,.376-.62012A1.72325,1.72325,0,0,0,3.3624,8.7498a1.27229,1.27229,0,0,0-.19825-.70508A1.32285,1.32285,0,0,0,2.607,7.56621a1.91241,1.91241,0,0,0-.82714-.16992,2.709,2.709,0,0,0-.64258.06933,2.23643,2.23643,0,0,0-.52979.2002,3.7527,3.7527,0,0,0-.61181.44433l.57421.68067a2.91938,2.91938,0,0,1,.57081-.37989,1.27241,1.27241,0,0,1,.564-.13378.64362.64362,0,0,1,.44238.14746.56647.56647,0,0,1,.166.44824,1.0328,1.0328,0,0,1-.0752.38867,1.75086,1.75086,0,0,1-.24609.40918q-.17065.21972-.728.791L.00937,11.73027v.73438H3.50253V11.576H1.32529Z"/><path d="M2.22763,17.33672v-.02051A1.46985,1.46985,0,0,0,3.024,16.865a1.17663,1.17663,0,0,0,.28369-.7959,1.00716,1.00716,0,0,0-.44971-.875,2.10158,2.10158,0,0,0-1.2251-.31446,2.71512,2.71512,0,0,0-1.63037.49219l.48877.72754a2.4384,2.4384,0,0,1,.56592-.28418,1.6239,1.6239,0,0,1,.50049-.082q.71118,0,.71094.56836a.5484.5484,0,0,1-.26807.52051,1.79615,1.79615,0,0,1-.84961.15234H.76474V17.784h.37939a2.12739,2.12739,0,0,1,.916.14746.51552.51552,0,0,1,.28711.499.651.651,0,0,1-.24951.57031,1.33789,1.33789,0,0,1-.77246.17773,2.68789,2.68789,0,0,1-.69043-.09179,3.28519,3.28519,0,0,1-.63916-.23926v.89941a3.63252,3.63252,0,0,0,1.44238.26953A2.412,2.412,0,0,0,2.93173,19.615a1.33555,1.33555,0,0,0,.523-1.123,1.03049,1.03049,0,0,0-.311-.78809A1.593,1.593,0,0,0,2.22763,17.33672Z"/></g></svg>