<?xml version="1.0" encoding="utf-8"?>
<!-- Generator: Adobe Illustrator 21.1.0, SVG Export Plug-In . SVG Version: 6.00 Build 0)  -->
<svg version="1.1" id="Ebene_1" xmlns="http://www.w3.org/2000/svg" xmlns:xlink="http://www.w3.org/1999/xlink" x="0px" y="0px"
	 viewBox="0 0 54 49" style="enable-background:new 0 0 54 49;" xml:space="preserve">
<title>SMS</title>
<desc>Created with Sketch.</desc>
<g id="Präsentation-UGM">
	<g id="CMS_Wizard_V2" transform="translate(-1092.000000, -274.000000)">
		<g id="SMS" transform="translate(1093.000000, 275.000000)">
			<g id="Bubble">
				<path d="M45.5,48c-0.3,0-0.6-0.1-0.8-0.4L33.5,33.1h-27c-4.1,0-7.5-3.3-7.5-7.4V6.4C-1,2.3,2.4-1,6.5-1h39C49.6-1,53,2.3,53,6.4
					v19.3c0,3.8-2.8,6.9-6.5,7.3v14c0,0.4-0.3,0.8-0.7,0.9C45.7,48,45.6,48,45.5,48z M6.5,1C3.5,1,1,3.4,1,6.4v19.3
					c0,3,2.5,5.4,5.5,5.4H34c0.3,0,0.6,0.1,0.8,0.4l9.7,12.6v-12c0-0.6,0.4-1,1-1c3,0,5.5-2.4,5.5-5.4V6.4c0-3-2.5-5.4-5.5-5.4H6.5z
					"/>
			</g>
		</g>
	</g>
</g>
<g id="Oval-9">
	<circle cx="16" cy="17" r="3"/>
</g>
<g id="Oval-9-Copy">
	<circle cx="27" cy="17" r="3"/>
</g>
<g id="Oval-9-Copy-2">
	<circle cx="38" cy="17" r="3"/>
</g>
</svg>
