<svg xmlns="http://www.w3.org/2000/svg" viewBox="0 0 18.448 20"><defs><style>.cls-1{fill:#111;}</style></defs><title>bullet-list_1</title><g id="Schrift"><rect class="cls-1" x="7.54692" y="2.01445" width="10.9082" height="1"/><rect class="cls-1" x="7.54692" y="9.43047" width="10.9082" height="1"/><rect class="cls-1" x="7.54692" y="16.94804" width="10.9082" height="1"/><path class="cls-1" d="M2.13676.38457A2.12988,2.12988,0,1,0,4.26665,2.51445,2.1318,2.1318,0,0,0,2.13676.38457Zm0,3.25976A1.12988,1.12988,0,1,1,3.26665,2.51445,1.13112,1.13112,0,0,1,2.13676,3.64433Z"/><path class="cls-1" d="M2.13676,7.80058A2.12989,2.12989,0,1,0,4.26665,9.93047,2.13181,2.13181,0,0,0,2.13676,7.80058Zm0,3.25977A1.12989,1.12989,0,1,1,3.26665,9.93047,1.13113,1.13113,0,0,1,2.13676,11.06035Z"/><path class="cls-1" d="M2.13676,15.31816A2.12989,2.12989,0,1,0,4.26665,17.448,2.1318,2.1318,0,0,0,2.13676,15.31816Zm0,3.25977A1.12989,1.12989,0,1,1,3.26665,17.448,1.13113,1.13113,0,0,1,2.13676,18.57793Z"/></g></svg>