<?xml version="1.0" encoding="utf-8"?>
<!-- Generator: Adobe Illustrator 21.1.0, SVG Export Plug-In . SVG Version: 6.00 Build 0)  -->
<svg version="1.1" id="Ebene_1" xmlns="http://www.w3.org/2000/svg" xmlns:xlink="http://www.w3.org/1999/xlink" x="0px" y="0px"
	 viewBox="0 0 59 51.4" style="enable-background:new 0 0 59 51.4;" xml:space="preserve">
<style type="text/css">
	.st0{enable-background:new    ;}
</style>
<title>document_csv</title>
<desc>Created with Sketch.</desc>
<g id="Präsentation-UGM">
	<g id="CMS_Wizard_V2" transform="translate(-597.000000, -273.000000)">
		<g id="document_csv" transform="translate(597.000000, 273.000000)">
			<g id="Path">
				<path d="M41.9,42.8H2.1c-1.2,0-2.1-1-2.1-2.3V21.1c0-1.4,0.8-2.3,2.1-2.3h39.8c1.2,0,2.1,1,2.1,2.3v19.4
					C44,41.9,43.2,42.8,41.9,42.8z M41.9,20.8H2.1C2,20.8,2,20.9,2,21.1v19.4c0,0.2,0.1,0.3,0.1,0.3h39.8c0,0,0.1-0.1,0.1-0.3V21.1
					C42,20.9,41.9,20.8,41.9,20.8z"/>
			</g>
			<g class="st0">
				<path d="M12,31.4v3.4h-1.9v-9.2h3.7c1.1,0,1.9,0.3,2.5,0.8c0.6,0.5,0.9,1.3,0.9,2.1c0,0.9-0.3,1.6-0.9,2.1s-1.4,0.8-2.5,0.8
					C13.8,31.4,12,31.4,12,31.4z M12,30h1.8c0.5,0,0.9-0.1,1.2-0.4s0.4-0.6,0.4-1.1c0-0.4-0.1-0.8-0.4-1.1c-0.3-0.3-0.7-0.4-1.2-0.4
					H12V30z"/>
				<path d="M19.1,34.8v-9.2h3.2c1.1,0,2.1,0.4,2.8,1.1s1.1,1.6,1.1,2.8V31c0,1.1-0.4,2.1-1.1,2.8s-1.7,1.1-2.8,1.1L19.1,34.8
					L19.1,34.8z M21,27v6.4h1.2c0.7,0,1.2-0.2,1.6-0.7s0.6-1,0.6-1.8v-1.5c0-0.7-0.2-1.3-0.6-1.7c-0.4-0.4-0.9-0.7-1.6-0.7H21z"/>
				<path d="M33.8,31H30v3.8h-1.9v-9.2h6.4V27H30v2.5h3.9V31H33.8z"/>
			</g>
		</g>
	</g>
</g>
<path d="M45.5,0H26.7c-3.1,0-5.5,2.4-5.5,5.5v10h2v-10c0-2,1.4-3.5,3.4-3.5h16.8v6.8c0,3.4,2.8,6.2,6.1,6.2h7.2v30.9
	c0,1.8-1.7,3.4-3.4,3.4H26.7c-1.9,0-3.4-1.5-3.4-3.4h-2c0,3.1,2.4,5.5,5.5,5.5h26.7c3,0,5.5-2.5,5.5-5.5V13.3
	C58.4,12.5,45.6,0,45.5,0z M49.5,13.3c-2.2,0-4.1-2.1-4.1-4.4V2.2L48.2,5c1.7,1.7,4.1,4.2,7.4,7.4l0.8,0.9L49.5,13.3L49.5,13.3z"/>
</svg>
