<?xml version="1.0" encoding="utf-8"?>
<!-- Generator: Adobe Illustrator 21.1.0, SVG Export Plug-In . SVG Version: 6.00 Build 0)  -->
<svg version="1.1" id="Ebene_1" xmlns="http://www.w3.org/2000/svg" xmlns:xlink="http://www.w3.org/1999/xlink" x="0px" y="0px"
	 viewBox="0 0 53.9 37.9" style="enable-background:new 0 0 53.9 37.9;" xml:space="preserve">
<title>E-Mail</title>
<desc>Created with Sketch.</desc>
<path d="M48.6,0H5.4C2.4,0,0,2.4,0,5.4v27.1c0,3,2.4,5.4,5.4,5.4h43.1c3,0,5.4-2.4,5.4-5.4V5.4C54,2.4,51.6,0,48.6,0z M48.6,2
	c0.3,0,0.6,0.1,0.9,0.1l-23,18.6L3.9,2.4C4.3,2.2,4.9,2,5.4,2H48.6z M2,5.4c0-0.6,0.2-1.1,0.4-1.6l13.7,11.1L2.7,34.6
	c-0.4-0.5-0.7-1.3-0.7-2V5.4z M5.4,36c-0.4,0-0.7-0.1-1.1-0.2l13.4-19.6l8.8,7.1l9.4-7.6l13.7,20.1c-0.3,0.1-0.7,0.2-1.1,0.2H5.4z
	 M52,32.6c0,0.8-0.3,1.5-0.7,2.1L37.5,14.4L51.2,3.3C51.7,3.9,52,4.6,52,5.4V32.6z"/>
</svg>
