<?xml version="1.0" encoding="utf-8"?>
<!-- Generator: Adobe Illustrator 21.0.0, SVG Export Plug-In . SVG Version: 6.00 Build 0)  -->
<!DOCTYPE svg PUBLIC "-//W3C//DTD SVG 1.1//EN" "http://www.w3.org/Graphics/SVG/1.1/DTD/svg11.dtd">
<svg version="1.1" id="Ebene_1" xmlns="http://www.w3.org/2000/svg" xmlns:xlink="http://www.w3.org/1999/xlink" x="0px" y="0px"
	 viewBox="0 0 36 29.4" style="enable-background:new 0 0 36 29.4;" xml:space="preserve">
<title>Tutorial (2)</title>
<g>
	<path d="M18.6,10.8c-3.5,0-6.4,2.8-6.5,6.3c0,2.1,1,4,2.7,5.2v4c0,0.9,0.7,1.6,1.5,1.7c0.4,0.9,1.3,1.5,2.2,1.5h0
		c1,0,1.9-0.5,2.2-1.5c0.9-0.1,1.5-0.8,1.5-1.7v-4c2.9-2,3.6-6,1.5-8.8C22.7,11.7,20.7,10.7,18.6,10.8z M15.8,24.1h5.7v1h-5.7V24.1z
		 M20.7,27l-0.6,0.1L20,27.7c-0.4,0.8-1.3,1-2.1,0.6c-0.3-0.1-0.5-0.4-0.6-0.6l-0.2-0.6L16.5,27c-0.4,0-0.7-0.4-0.7-0.8v-0.2h5.7
		v0.2C21.4,26.7,21.1,27,20.7,27z M21.8,21.5l-0.4,0.3v1.3h-5.7v-1.3l-0.4-0.3c-1.4-1-2.3-2.6-2.3-4.4c0-3,2.5-5.4,5.5-5.4l0,0
		c3,0,5.5,2.4,5.5,5.4C24.1,18.9,23.3,20.5,21.8,21.5z"/>
	<path d="M19.6,13.5c-0.2,0-0.4-0.1-0.7-0.1c-2.2,0-4,1.8-4,4c0,0.3,0.2,0.5,0.5,0.5c0,0,0,0,0,0c0.3,0,0.5-0.2,0.5-0.5
		c0-1.7,1.4-3,3-3c0.2,0,0.3,0,0.5,0c0,0,0,0,0,0c0.3,0,0.5-0.2,0.6-0.4C20.1,13.7,19.9,13.5,19.6,13.5z"/>
	<path d="M18.5,5.6c0.3,0,0.5-0.2,0.5-0.5V0.5C19,0.2,18.7,0,18.5,0C18.2,0,18,0.2,18,0.5v4.6C18,5.4,18.2,5.6,18.5,5.6z"/>
	<path d="M35.5,17.3h-4.2c-0.3,0-0.5,0.2-0.5,0.5c0,0.3,0.2,0.5,0.5,0.5h4.2c0.3,0,0.5-0.2,0.5-0.5C36,17.5,35.8,17.3,35.5,17.3z"/>
	<path d="M4.7,16.6H0.5c-0.3,0-0.5,0.2-0.5,0.5c0,0.3,0.2,0.5,0.5,0.5h4.2c0.3,0,0.5-0.2,0.5-0.5C5.2,16.8,5,16.6,4.7,16.6z"/>
	<path d="M29.2,9.5c0.2,0,0.3-0.1,0.4-0.2l2.3-2.9c0.2-0.2,0.1-0.5-0.1-0.7c-0.2-0.2-0.5-0.1-0.7,0.1l-2.3,2.9
		c-0.1,0.1-0.1,0.2-0.1,0.3C28.7,9.3,28.9,9.5,29.2,9.5z"/>
	<path d="M28.7,24.3C28.7,24.3,28.6,24.3,28.7,24.3c-0.2-0.2-0.5-0.3-0.7-0.1c-0.2,0.2-0.2,0.5-0.1,0.7l2.3,2.9
		c0.1,0.1,0.2,0.2,0.4,0.2c0.1,0,0.2,0,0.3-0.1c0.2-0.2,0.2-0.5,0.1-0.7L28.7,24.3z"/>
	<path d="M7.8,9.3C7.9,9.4,8,9.5,8.2,9.5c0.1,0,0.2,0,0.3-0.1c0,0,0,0,0,0c0.2-0.2,0.2-0.5,0.1-0.7L6.2,5.8C6.1,5.6,5.7,5.5,5.5,5.7
		S5.3,6.2,5.5,6.4L7.8,9.3z"/>
	<path d="M7.8,24.3l-2.3,2.9c-0.1,0.1-0.1,0.2-0.1,0.3c0,0.3,0.2,0.5,0.5,0.5C6,28,6.1,28,6.2,27.9L8.6,25c0,0,0,0,0,0
		c0.2-0.2,0.1-0.5-0.1-0.7C8.3,24.1,8,24.1,7.8,24.3z"/>
</g>
</svg>
