<?xml version="1.0" encoding="utf-8"?>
<!-- Generator: Adobe Illustrator 21.1.0, SVG Export Plug-In . SVG Version: 6.00 Build 0)  -->
<svg version="1.1" id="Ebene_1" xmlns="http://www.w3.org/2000/svg" xmlns:xlink="http://www.w3.org/1999/xlink" x="0px" y="0px"
	 viewBox="0 0 22.5 20.5" style="enable-background:new 0 0 22.5 20.5;" xml:space="preserve">
<title>Quellcode</title>
<desc>Created with Sketch.</desc>
<g>
	<polygon points="6.9,15.6 7.9,14.6 5.9,12.6 7.9,10.6 6.9,9.4 3.8,12.6 	"/>
	<polygon points="15.8,15.6 18.8,12.6 15.8,9.4 14.7,10.6 16.7,12.6 14.7,14.6 	"/>
	<rect x="6.4" y="11.8" transform="matrix(0.2425 -0.9701 0.9701 0.2425 -3.6051 20.3828)" width="9.7" height="1.5"/>
	<path d="M6.5,0H5H0v4v1.5v15h22.5v-15V4V0H6.5z M1.5,1.5H5V4H1.5V1.5z M21,19H1.5V5.5H5h1.5H21V19z M6.5,4V1.5H21V4H6.5z"/>
</g>
</svg>
