<?xml version="1.0" encoding="utf-8"?>
<!-- Generator: Adobe Illustrator 23.0.1, SVG Export Plug-In . SVG Version: 6.00 Build 0)  -->
<svg version="1.1" id="Ebene_1" xmlns="http://www.w3.org/2000/svg" xmlns:xlink="http://www.w3.org/1999/xlink" x="0px" y="0px"
	 viewBox="0 0 36 29.4" style="enable-background:new 0 0 36 29.4;" xml:space="preserve">
<title>Tutorial (2)</title>
<g>
	<path d="M18.6,10.8c-3.5,0-6.4,2.8-6.5,6.3c0,2.1,1,4,2.7,5.2v4c0,0.9,0.7,1.6,1.5,1.7c0.4,0.9,1.3,1.5,2.2,1.5l0,0
		c1,0,1.9-0.5,2.2-1.5c0.9-0.1,1.5-0.8,1.5-1.7v-4c2.9-2,3.6-6,1.5-8.8C22.7,11.7,20.7,10.7,18.6,10.8z M15.8,24.1h5.7v1h-5.7V24.1z
		 M20.7,27l-0.6,0.1L20,27.7c-0.4,0.8-1.3,1-2.1,0.6c-0.3-0.1-0.5-0.4-0.6-0.6l-0.2-0.6L16.5,27c-0.4,0-0.7-0.4-0.7-0.8V26h5.7v0.2
		C21.4,26.7,21.1,27,20.7,27z M21.8,21.5l-0.4,0.3v1.3h-5.7v-1.3l-0.4-0.3c-1.4-1-2.3-2.6-2.3-4.4c0-3,2.5-5.4,5.5-5.4l0,0
		c3,0,5.5,2.4,5.5,5.4C24.1,18.9,23.3,20.5,21.8,21.5z"/>
	<path d="M19.6,13.5c-0.2,0-0.4-0.1-0.7-0.1c-2.2,0-4,1.8-4,4c0,0.3,0.2,0.5,0.5,0.5l0,0c0.3,0,0.5-0.2,0.5-0.5c0-1.7,1.4-3,3-3
		c0.2,0,0.3,0,0.5,0l0,0c0.3,0,0.5-0.2,0.6-0.4C20.1,13.7,19.9,13.5,19.6,13.5z"/>
</g>
</svg>
