<?xml version="1.0" encoding="UTF-8" standalone="no"?>
<!-- Generated by IcoMoon.io -->

<svg
   xmlns:dc="http://purl.org/dc/elements/1.1/"
   xmlns:cc="http://creativecommons.org/ns#"
   xmlns:rdf="http://www.w3.org/1999/02/22-rdf-syntax-ns#"
   xmlns:svg="http://www.w3.org/2000/svg"
   xmlns="http://www.w3.org/2000/svg"
   xmlns:sodipodi="http://sodipodi.sourceforge.net/DTD/sodipodi-0.dtd"
   xmlns:inkscape="http://www.inkscape.org/namespaces/inkscape"
   version="1.1"
   width="28"
   height="28"
   viewBox="0 0 28 28"
   id="svg6"
   sodipodi:docname="uExxx-exclamation.svg"
   inkscape:version="0.92.4 (5da689c313, 2019-01-14)">
  <metadata
     id="metadata12">
    <rdf:RDF>
      <cc:Work
         rdf:about="">
        <dc:format>image/svg+xml</dc:format>
        <dc:type
           rdf:resource="http://purl.org/dc/dcmitype/StillImage" />
      </cc:Work>
    </rdf:RDF>
  </metadata>
  <defs
     id="defs10" />
  <sodipodi:namedview
     pagecolor="#ffffff"
     bordercolor="#666666"
     borderopacity="1"
     objecttolerance="10"
     gridtolerance="10"
     guidetolerance="10"
     inkscape:pageopacity="0"
     inkscape:pageshadow="2"
     inkscape:window-width="2560"
     inkscape:window-height="1346"
     id="namedview8"
     showgrid="true"
     showguides="true"
     inkscape:zoom="16.857143"
     inkscape:cx="19.090316"
     inkscape:cy="8.7865133"
     inkscape:window-x="-11"
     inkscape:window-y="-11"
     inkscape:window-maximized="1"
     inkscape:current-layer="svg6"
     inkscape:guide-bbox="true">
    <inkscape:grid
       type="xygrid"
       id="grid58" />
    <sodipodi:guide
       position="14,21"
       orientation="1,0"
       id="guide64"
       inkscape:locked="false" />
    <sodipodi:guide
       position="6.6292373,24.707627"
       orientation="0,1"
       id="guide82"
       inkscape:locked="false" />
    <sodipodi:guide
       position="6.4364407,3.3368644"
       orientation="0,1"
       id="guide84"
       inkscape:locked="false" />
  </sodipodi:namedview>
  <title
     id="title2">uE001-error</title>
  <g
     id="g62"
     transform="matrix(1.4000839,0,0,1.4000839,-5.6067733,-5.630479)">
    <path
       id="path46"
       d="m 14,15.637 c -0.835,0 -1.512,-0.649 -1.512,-1.449 V 7.812 c 0,-0.8 0.677,-1.449 1.512,-1.449 0.835,0 1.511,0.649 1.511,1.449 v 6.376 c 0.001,0.8 -0.677,1.448 -1.511,1.448 z"
       inkscape:connector-curvature="0" />
    <path
       id="path4"
       d="m 14,21.637 c -0.399,0 -0.786,-0.16 -1.071,-0.441 -0.281,-0.281 -0.441,-0.671 -0.441,-1.07 0,-0.399 0.16,-0.789 0.441,-1.07 0.281,-0.281 0.671,-0.442 1.071,-0.442 0.399,0 0.786,0.161 1.069,0.442 0.281,0.284 0.442,0.671 0.442,1.07 0,0.399 -0.161,0.786 -0.442,1.07 -0.283,0.281 -0.674,0.441 -1.069,0.441 z"
       inkscape:connector-curvature="0" />
  </g>
</svg>
