<?xml version="1.0" encoding="utf-8"?>
<!-- Generator: Adobe Illustrator 21.1.0, SVG Export Plug-In . SVG Version: 6.00 Build 0)  -->
<svg version="1.1" id="Ebene_1" xmlns="http://www.w3.org/2000/svg" xmlns:xlink="http://www.w3.org/1999/xlink" x="0px" y="0px"
	 viewBox="0 0 20.1 20.2" style="enable-background:new 0 0 20.1 20.2;" xml:space="preserve">
<title>Shape</title>
<desc>Created with Sketch.</desc>
<g id="Präsentation-UGM">
	<g id="CMS_Template" transform="translate(-523.000000, -506.000000)">
		<g id="Group-14" transform="translate(504.000000, 266.000000)">
			<g id="Shape">
				<path d="M26.4,256.4c-0.1,0-0.1,0-0.2,0.1c-0.1,0.1,0,0.2,0,0.2l2.9,3.5l2.6-3.4c0.1-0.1,0.1-0.2,0.1-0.3
					c-0.1-0.1-0.1-0.1-0.2-0.1h-1.9v-5.5h5.6v1.9c0,0.1,0.1,0.2,0.1,0.2s0.1,0.1,0.2,0l3.5-2.8l-3.4-2.8c-0.1-0.1-0.2-0.2-0.3-0.1
					s-0.1,0.1-0.1,0.2v1.9h-5.6v-5.6h2c0.1,0,0.1,0,0.2-0.1c0.1-0.1,0-0.2,0-0.2l-2.8-3.5l-2.8,3.4c-0.1,0.1-0.2,0.2-0.1,0.3
					s0.1,0.1,0.2,0.1h1.9v5.6h-5.5v-1.9c0-0.1-0.1-0.2-0.1-0.2s-0.1-0.1-0.2,0l-3.5,2.8l3.4,2.8c0.2,0.2,0.3,0.1,0.3,0.1
					s0.1,0,0.1-0.2v-1.9h5.5v5.5H26.4L26.4,256.4z"/>
			</g>
		</g>
	</g>
</g>
</svg>
