<?xml version="1.0" encoding="utf-8"?>
<!-- Generator: Adobe Illustrator 21.1.0, SVG Export Plug-In . SVG Version: 6.00 Build 0)  -->
<svg version="1.1" id="Ebene_1" xmlns="http://www.w3.org/2000/svg" xmlns:xlink="http://www.w3.org/1999/xlink" x="0px" y="0px"
	 viewBox="0 0 23.4 17" style="enable-background:new 0 0 23.4 17;" xml:space="preserve">
<title>eye-17 copy 5</title>
<desc>Created with Sketch.</desc>
<g id="Präsentation-UGM">
	<g id="CMS_Templateauswahl_1" transform="translate(-1155.000000, -533.000000)">
		<g id="eye-17" transform="translate(1157.000000, 535.000000)">
			<g>
				<g id="Shape">
					<path d="M9.7,15c-2.9,0-5.7-1.3-8.3-3.9c-0.8-0.8-1.5-1.7-2.2-2.6C-1,8.2-2,6.5-2,6.5s1-1.7,1.2-2c0.7-0.9,1.4-1.8,2.2-2.6
						C4-0.7,6.8-2,9.7-2s5.7,1.3,8.3,3.9c0.8,0.8,1.5,1.7,2.2,2.6c0.2,0.3,1.2,2,1.2,2s-1,1.7-1.2,2c-0.7,0.9-1.4,1.8-2.2,2.6
						C15.4,13.7,12.6,15,9.7,15z M-0.3,6.5L-0.3,6.5c0,0.1,0.5,0.8,0.7,1.1C1,8.5,1.7,9.3,2.4,10c4.6,4.6,9.9,4.6,14.5,0
						c0.7-0.7,1.4-1.5,2-2.4c0.2-0.3,0.7-1,0.7-1.1c0-0.1-0.4-0.8-0.6-1.1c-0.6-0.9-1.3-1.7-2-2.4C12.3-1.6,7.1-1.6,2.5,3
						c-0.7,0.7-1.4,1.5-2,2.4C0.2,5.7-0.2,6.4-0.3,6.5z"/>
				</g>
				<g id="Oval">
					<path d="M9.7,11c-2.5,0-4.5-2-4.5-4.5S7.2,2,9.7,2s4.5,2,4.5,4.5S12.2,11,9.7,11z M9.7,3.5c-1.7,0-3,1.3-3,3s1.3,3,3,3
						s3-1.3,3-3S11.4,3.5,9.7,3.5z"/>
				</g>
			</g>
		</g>
	</g>
</g>
</svg>
