<?xml version="1.0" encoding="utf-8"?>
<!-- Generator: Adobe Illustrator 21.1.0, SVG Export Plug-In . SVG Version: 6.00 Build 0)  -->
<svg version="1.1" id="Ebene_1" xmlns="http://www.w3.org/2000/svg" xmlns:xlink="http://www.w3.org/1999/xlink" x="0px" y="0px"
	 viewBox="0 0 24 23" style="enable-background:new 0 0 24 23;" xml:space="preserve">
<title>Video</title>
<desc>Created with Sketch.</desc>
<g>
	<path d="M24,9.5l-7,3V9H0v14h17v-3.5l7,3V9.5z M15,21H2V11h13V21z M22,19.5l-5-2.1v-2.7l5-2.1V19.5z"/>
	<path d="M4,8c2.2,0,4-1.8,4-4S6.2,0,4,0S0,1.8,0,4S1.8,8,4,8z M4,2c1.1,0,2,0.9,2,2S5.1,6,4,6S2,5.1,2,4S2.9,2,4,2z"/>
	<path d="M12,8c1.7,0,3-1.3,3-3s-1.3-3-3-3S9,3.3,9,5S10.3,8,12,8z M12,4c0.6,0,1,0.4,1,1s-0.4,1-1,1s-1-0.4-1-1S11.4,4,12,4z"/>
</g>
</svg>
