<?xml version="1.0" encoding="utf-8"?>
<!-- Generator: Adobe Illustrator 25.3.1, SVG Export Plug-In . SVG Version: 6.00 Build 0)  -->
<svg version="1.1" id="Layer_1" xmlns="http://www.w3.org/2000/svg" xmlns:xlink="http://www.w3.org/1999/xlink" x="0px" y="0px"
	 viewBox="0 0 24.0365 24" style="enable-background:new 0 0 24.0365 24;" xml:space="preserve">
<g>
	<rect y="0.1921" width="16.757" height="1.2105"/>
	<rect y="7.6562" width="16.757" height="1.2105"/>
	<rect y="15.1215" width="9.7339" height="1.2105"/>
	<rect y="22.5868" width="9.7339" height="1.2106"/>
	<path d="M24.0332,4.5294c0.0905-2.2957-1.6899-4.2335-3.985-4.3373v1.2105c1.6259,0.105,2.8637,1.5,2.7745,3.1268
		c0.0892,1.6268-1.1487,3.0218-2.7745,3.1268v1.2105C22.3433,8.7629,24.1237,6.8251,24.0332,4.5294z"/>
	<polygon points="19.4933,13.719 18.2827,13.719 18.2827,18.1579 13.845,18.1579 13.845,19.3684 18.2827,19.3684 18.2827,23.8075 
		19.4933,23.8075 19.4933,19.3684 23.9323,19.3684 23.9323,18.1579 19.4933,18.1579 	"/>
</g>
</svg>
