<?xml version="1.0" encoding="utf-8"?>
<!-- Generator: Adobe Illustrator 25.3.1, SVG Export Plug-In . SVG Version: 6.00 Build 0)  -->
<svg version="1.1" id="Layer_1" xmlns="http://www.w3.org/2000/svg" xmlns:xlink="http://www.w3.org/1999/xlink" x="0px" y="0px"
	 viewBox="0 0 24.0005 24" style="enable-background:new 0 0 24.0005 24;" xml:space="preserve">
<g>
	<path d="M12,18.3155c-0.221,0-0.4401-0.0908-0.6006-0.2493c-0.1529-0.1524-0.2417-0.3694-0.2417-0.5935
		c0-0.2231,0.0893-0.4401,0.2453-0.5965c0.1565-0.1565,0.374-0.2463,0.597-0.2463c0.221,0,0.4391,0.0908,0.597,0.2473
		c0.1544,0.1565,0.2443,0.3745,0.2443,0.5955c0,0.221-0.0903,0.4401-0.2488,0.6006C12.4385,18.2257,12.221,18.3155,12,18.3155z"/>
	<path d="M12,12.9543c-0.4643,0-0.8423-0.3528-0.8423-0.7863V6.4707c0-0.433,0.378-0.7853,0.8423-0.7853
		c0.4638,0,0.8413,0.3523,0.8413,0.7853v5.6973c0,0.1988-0.0797,0.3886-0.2251,0.5345c-0.1615,0.162-0.3805,0.2508-0.6162,0.2508
		V12.9543z"/>
	<path d="M12,24.0002c-6.6168,0-11.9997-5.3839-11.9997-12.0008C0.0002,5.3831,5.3831,0.0002,12,0.0002
		c6.6173,0,12.0013,5.3829,12.0013,11.9992C24.0012,18.6163,18.6173,24.0002,12,24.0002z M12,0.9849
		c-6.0738,0-11.0151,4.9408-11.0151,11.0136S5.9262,23.0121,12,23.0121c6.0723,0,11.0121-4.9408,11.0121-11.0136
		S18.0723,0.9849,12,0.9849z"/>
</g>
</svg>
