<?xml version="1.0" encoding="utf-8"?>
<!--
  - Copyright (c) 2010, 2023 BSI Business Systems Integration AG
  -
  - This program and the accompanying materials are made
  - available under the terms of the Eclipse Public License 2.0
  - which is available at https://www.eclipse.org/legal/epl-2.0/
  -
  - SPDX-License-Identifier: EPL-2.0
  -->

<!-- Generator: Adobe Illustrator 25.4.1, SVG Export Plug-In . SVG Version: 6.00 Build 0)  -->
<svg version="1.1" id="Ebene_1" xmlns="http://www.w3.org/2000/svg" x="0px" y="0px"
     viewBox="0 0 23 24" style="enable-background:new 0 0 23 24;" xml:space="preserve">
<g>
	<path d="M12.095,15.919c-0.165-0.11-0.358-0.169-0.556-0.169c-0.265,0-0.52,0.105-0.707,0.293
		c-0.188,0.188-0.293,0.442-0.293,0.707c0,0.198,0.059,0.391,0.169,0.556c0.109,0.164,0.266,0.293,0.448,0.368
		c0.183,0.076,0.384,0.095,0.578,0.057c0.194-0.039,0.372-0.134,0.512-0.274s0.235-0.318,0.274-0.512
		c0.038-0.194,0.019-0.395-0.057-0.578S12.259,16.028,12.095,15.919z"/>
  <path d="M11.539,13c0.276,0,0.5-0.224,0.5-0.5V6c0-0.276-0.224-0.5-0.5-0.5s-0.5,0.224-0.5,0.5v6.5
		C11.039,12.776,11.262,13,11.539,13z"/>
  <path d="M11.5,0.5C5.159,0.5,0,5.659,0,12s5.159,11.5,11.5,11.5S23,18.341,23,12S17.841,0.5,11.5,0.5z M11.5,22.5
		C5.71,22.5,1,17.79,1,12S5.71,1.5,11.5,1.5S22,6.21,22,12S17.29,22.5,11.5,22.5z"/>
</g>
</svg>
