<?xml version="1.0" encoding="utf-8"?>
<!-- Generator: Adobe Illustrator 25.3.1, SVG Export Plug-In . SVG Version: 6.00 Build 0)  -->
<svg version="1.1" id="Layer_1" xmlns="http://www.w3.org/2000/svg" xmlns:xlink="http://www.w3.org/1999/xlink" x="0px" y="0px"
	 viewBox="0 0 24.0005 24" style="enable-background:new 0 0 24.0005 24;" xml:space="preserve">
<g>
	<polygon points="13.7322,5.9529 13.7322,5.9533 13.7322,5.9537 	"/>
	<path d="M11.792,7.3766c-0.3841-0.0005-0.7444-0.1489-1.0149-0.4184c-0.2705-0.2695-0.4189-0.6273-0.4184-1.0078
		c0.0005-0.7848,0.6435-1.4232,1.4323-1.4232c0.3831,0,0.7434,0.1484,1.0144,0.4189c0.2695,0.269,0.4189,0.6263,0.4189,1.0068
		C13.2233,6.7377,12.5809,7.3766,11.792,7.3766z"/>
	<polygon points="10.0201,18.2822 10.0206,17.0872 11.6856,17.0892 11.6901,11.6462 10.0247,11.6452 10.0257,10.172 
		13.1728,10.1741 13.1678,17.0882 14.5567,17.0902 14.5557,18.2863 	"/>
	<path d="M12,24.0002c-6.6168,0-11.9997-5.3839-11.9997-12.0008C0.0002,5.3831,5.3831,0.0002,12,0.0002
		c6.6173,0,12.0013,5.3829,12.0013,11.9992C24.0012,18.6163,18.6173,24.0002,12,24.0002z M12,0.9849
		c-6.0738,0-11.0151,4.9408-11.0151,11.0136S5.9262,23.0121,12,23.0121c6.0723,0,11.0121-4.9408,11.0121-11.0136
		S18.0723,0.9849,12,0.9849z"/>
</g>
</svg>
