<?xml version="1.0" encoding="utf-8"?>
<!-- Generator: Adobe Illustrator 25.3.1, SVG Export Plug-In . SVG Version: 6.00 Build 0)  -->
<svg version="1.1" id="Layer_1" xmlns="http://www.w3.org/2000/svg" xmlns:xlink="http://www.w3.org/1999/xlink" x="0px" y="0px"
	 viewBox="0 0 24.2105 24.2105" style="enable-background:new 0 0 24.2105 24.2105;" xml:space="preserve">
<path d="M12.1055,24.1053c-6.6171,0-12.0003-5.3827-12.0003-12.0003c0-6.6166,5.3832-11.9997,12.0003-11.9997
	c6.6176,0,12.0003,5.3832,12.0003,11.9997C24.1057,18.7226,18.7231,24.1053,12.1055,24.1053z M12.1045,1.095
	c-6.0713,0-11.0105,4.9392-11.0105,11.01c0,6.0718,4.9392,11.0115,11.0105,11.0115c6.0708,0,11.0105-4.9397,11.0105-11.0115
	C23.1149,6.0343,18.1752,1.095,12.1045,1.095z M5.8826,13.5407c-0.3804,0-0.738-0.1493-1.0074-0.4207
	c-0.2699-0.2714-0.4182-0.6326-0.4177-1.016c0.0005-0.79,0.6407-1.4322,1.4261-1.4322c0.3814,0,0.7401,0.1488,1.0094,0.4192
	c0.2699,0.2714,0.4182,0.6316,0.4177,1.015C7.3103,12.897,6.6696,13.5407,5.8826,13.5407z M11.9312,13.5397
	c-0.7875-0.001-1.4276-0.6447-1.4266-1.4367c0-0.79,0.6402-1.4332,1.4261-1.4332c0.7875,0.0005,1.4276,0.6452,1.4271,1.4362
	C13.3573,12.896,12.7171,13.5397,11.9312,13.5397z M18.3278,13.5387c-0.3814,0-0.7395-0.1493-1.0099-0.4207
	c-0.2694-0.2714-0.4187-0.6326-0.4177-1.016c0.001-0.79,0.6407-1.4322,1.4266-1.4322c0.3814,0,0.7395,0.1488,1.0089,0.4192
	c0.2694,0.2714,0.4187,0.6316,0.4177,1.016C19.7534,12.896,19.1138,13.5387,18.3278,13.5387z"/>
</svg>
