<?xml version="1.0" encoding="utf-8"?>
<!--
  - Copyright (c) 2010, 2023 BSI Business Systems Integration AG
  -
  - This program and the accompanying materials are made
  - available under the terms of the Eclipse Public License 2.0
  - which is available at https://www.eclipse.org/legal/epl-2.0/
  -
  - SPDX-License-Identifier: EPL-2.0
  -->

<!-- Generator: Adobe Illustrator 26.0.2, SVG Export Plug-In . SVG Version: 6.00 Build 0)  -->
<svg version="1.1" id="Layer_1" xmlns="http://www.w3.org/2000/svg" x="0px" y="0px"
     viewBox="0 0 23 24" style="enable-background:new 0 0 23 24;" xml:space="preserve">
<g>
	<path d="M11.5,0.5C5.16,0.5,0,5.66,0,12s5.16,11.5,11.5,11.5S23,18.34,23,12S17.84,0.5,11.5,0.5z M11.5,22.5
		C5.71,22.5,1,17.79,1,12S5.71,1.5,11.5,1.5S22,6.21,22,12S17.29,22.5,11.5,22.5z"/>
  <path d="M7.29,7.47c-0.22-0.17-0.53-0.12-0.7,0.1s-0.12,0.53,0.1,0.7l4.69,3.51v8.04c0,0.28,0.22,0.5,0.5,0.5s0.5-0.22,0.5-0.5
		v-8.29c0-0.16-0.07-0.31-0.2-0.4L7.29,7.47z"/>
</g>
</svg>
