<?xml version="1.0" encoding="utf-8"?>
<!-- Generator: Adobe Illustrator 25.3.1, SVG Export Plug-In . SVG Version: 6.00 Build 0)  -->
<svg version="1.1" id="Layer_1" xmlns="http://www.w3.org/2000/svg" x="0px" y="0px"
     viewBox="0 0 19.7754 24" style="enable-background:new 0 0 19.7754 24;" xml:space="preserve">
<path d="M2.3408,24C1.0513,23.999,0.0015,22.9482,0,21.6592V2.3447c0.0015-1.2891,1.0518-2.3394,2.3408-2.3408h10.5425
	c0.1343,0,0.2607,0.0522,0.3555,0.1475l6.3882,6.3867c0.0938,0.0928,0.1484,0.2227,0.1484,0.3555v14.7656
	c-0.002,1.2891-1.0527,2.3398-2.3413,2.3408l0,0H2.3408z M2.3408,1.0103c-0.7354,0.0005-1.334,0.5991-1.3345,1.3345v19.3145
	c0.0005,0.7344,0.5991,1.333,1.3345,1.334h15.0933c0.7358-0.001,1.3335-0.5996,1.3335-1.334V9.3398h-7.1299
	c-0.1343,0-0.2607-0.0527-0.356-0.1484c-0.0952-0.0947-0.1475-0.2207-0.147-0.3555V1.0103H2.3408z M12.1411,8.332h6.6265V7.1445
	L12.7051,1.04l-0.4619-0.0298h-0.1021V8.332z"/>
</svg>
