<?xml version="1.0" encoding="utf-8"?>
<!--
  - Copyright (c) 2010, 2023 BSI Business Systems Integration AG
  -
  - This program and the accompanying materials are made
  - available under the terms of the Eclipse Public License 2.0
  - which is available at https://www.eclipse.org/legal/epl-2.0/
  -
  - SPDX-License-Identifier: EPL-2.0
  -->

<!-- Generator: Adobe Illustrator 25.3.1, SVG Export Plug-In . SVG Version: 6.00 Build 0)  -->
<svg version="1.1" id="Layer_1" xmlns="http://www.w3.org/2000/svg" xmlns:xlink="http://www.w3.org/1999/xlink" x="0px" y="0px"
	 viewBox="0 0 23.8328 24" style="enable-background:new 0 0 23.8328 24;" xml:space="preserve">
<g>
	<rect y="0.2996" width="16.5532" height="1.0063"/>
	<rect y="7.7649" width="16.5532" height="1.0063"/>
	<rect y="15.2283" width="16.5532" height="1.0078"/>
	<rect y="22.6932" width="16.5532" height="1.0078"/>
	<path d="M20.0474,7.7571c1.6279-0.1567,2.8652-1.5845,2.7754-3.2275c0.0898-1.6323-1.1475-3.0596-2.7754-3.2158V0.3055
		c2.1816,0.1553,3.8691,2.0283,3.7822,4.2256c0.0869,2.2046-1.6006,4.0786-3.7822,4.2344V7.7571z"/>
	<path d="M20.0474,22.6853c1.6279-0.1553,2.8652-1.582,2.7754-3.2256c0.0898-1.6328-1.1475-3.0605-2.7754-3.2158v-1.0088
		c2.1816,0.1553,3.8691,2.0283,3.7822,4.2266c0.0869,2.2041-1.6006,4.0771-3.7822,4.2324V22.6853z"/>
</g>
</svg>
