<?xml version="1.0" encoding="utf-8"?>
<!-- Generator: Adobe Illustrator 25.4.1, SVG Export Plug-In . SVG Version: 6.00 Build 0)  -->
<svg version="1.1" id="Ebene_1" xmlns="http://www.w3.org/2000/svg" x="0px" y="0px"
     viewBox="0 0 23 24" style="enable-background:new 0 0 23 24;" xml:space="preserve">
<g>
	<path d="M11.117,7.674c0.183,0.076,0.384,0.095,0.578,0.057c0.194-0.039,0.372-0.134,0.512-0.274
		c0.14-0.14,0.235-0.318,0.274-0.512c0.038-0.194,0.019-0.395-0.057-0.578s-0.204-0.339-0.368-0.449
		C11.891,5.809,11.698,5.75,11.5,5.75c-0.265,0-0.52,0.105-0.707,0.293C10.605,6.23,10.5,6.485,10.5,6.75
		c0,0.198,0.059,0.391,0.169,0.556C10.778,7.47,10.935,7.598,11.117,7.674z"/>
  <path d="M11.5,0.5C5.159,0.5,0,5.659,0,12s5.159,11.5,11.5,11.5S23,18.341,23,12S17.841,0.5,11.5,0.5z M11.5,22.5
		C5.71,22.5,1,17.79,1,12S5.71,1.5,11.5,1.5S22,6.21,22,12S17.29,22.5,11.5,22.5z"/>
  <path d="M14.5,17H12v-6c0-0.276-0.224-0.5-0.5-0.5h-3C8.224,10.5,8,10.724,8,11s0.224,0.5,0.5,0.5H11V17H8.5
		C8.224,17,8,17.224,8,17.5S8.224,18,8.5,18h6c0.276,0,0.5-0.224,0.5-0.5S14.776,17,14.5,17z"/>
</g>
</svg>
