<?xml version="1.0" encoding="utf-8"?>
<!--
  - Copyright (c) 2010, 2023 BSI Business Systems Integration AG
  -
  - This program and the accompanying materials are made
  - available under the terms of the Eclipse Public License 2.0
  - which is available at https://www.eclipse.org/legal/epl-2.0/
  -
  - SPDX-License-Identifier: EPL-2.0
  -->

<!-- Generator: Adobe Illustrator 25.3.1, SVG Export Plug-In . SVG Version: 6.00 Build 0)  -->
<svg version="1.1" id="Layer_1" xmlns="http://www.w3.org/2000/svg" xmlns:xlink="http://www.w3.org/1999/xlink" x="0px" y="0px"
	 viewBox="0 0 23.981 24" style="enable-background:new 0 0 23.981 24;" xml:space="preserve">
<path d="M1.9385,21.6297C0.8711,21.6277,0.0015,20.7576,0,19.6902V2.2308h6.96L8.918,4.679l13.1255,0.0376
	c1.0674,0.0015,1.9365,0.8711,1.9375,1.9385v13.0352c-0.001,1.0674-0.8701,1.9375-1.9375,1.9395l0,0H1.9385z M1.0063,19.6902
	c0.0005,0.5137,0.4189,0.9316,0.9321,0.9316h20.105c0.5137,0,0.9307-0.418,0.9307-0.9316v-9.1738H1.0063V19.6902z M1.0063,9.5096
	h21.9678V6.6551c0-0.5127-0.417-0.9307-0.9307-0.9316H8.4233L6.4658,3.2747L1.0063,3.2371V9.5096z"/>
</svg>
