<?xml version="1.0" encoding="utf-8"?>
<!--
  - Copyright (c) 2010, 2023 BSI Business Systems Integration AG
  -
  - This program and the accompanying materials are made
  - available under the terms of the Eclipse Public License 2.0
  - which is available at https://www.eclipse.org/legal/epl-2.0/
  -
  - SPDX-License-Identifier: EPL-2.0
  -->

<!-- Generator: Adobe Illustrator 25.3.1, SVG Export Plug-In . SVG Version: 6.00 Build 0)  -->
<svg version="1.1" id="Layer_1" xmlns="http://www.w3.org/2000/svg" xmlns:xlink="http://www.w3.org/1999/xlink" x="0px" y="0px"
	 viewBox="0 0 20.9809 24" style="enable-background:new 0 0 20.9809 24;" xml:space="preserve">
<path d="M16.7177,22.3982c-0.0933,0-0.1851-0.0264-0.2656-0.0771l-5.9624-3.6973l-5.9614,3.6973
	c-0.0801,0.0498-0.1714,0.0762-0.2646,0.0762c-0.1758,0-0.3354-0.0889-0.4277-0.2383c-0.0698-0.1113-0.0928-0.249-0.0635-0.377
	l1.6328-7.1367L0.1688,9.9822c-0.1006-0.0898-0.1602-0.2129-0.168-0.3467c-0.0078-0.1348,0.0376-0.2637,0.127-0.3633
	c0.083-0.0938,0.1963-0.1523,0.3188-0.166L7.3729,8.323l2.6509-6.5015c0.0776-0.1904,0.2607-0.3135,0.4668-0.3135
	c0.0649,0,0.1289,0.0127,0.1895,0.0371c0.1245,0.0513,0.2251,0.1519,0.2759,0.2764l2.6514,6.5015l6.9258,0.7832
	c0.1338,0.0146,0.2539,0.0811,0.3379,0.1855c0.084,0.1055,0.1221,0.2373,0.1064,0.3701c-0.0137,0.1201-0.0693,0.2305-0.1572,0.3135
	l-4.98,4.6309l1.3711,7.1904c0.0537,0.2725-0.1245,0.5381-0.3965,0.5918L16.7177,22.3982z M10.4896,17.5281
	c0.0933,0,0.1851,0.0264,0.2661,0.0762l5.2437,3.252l-1.2432-6.291c-0.0337-0.1729,0.0229-0.3467,0.1514-0.4668l4.4253-4.1152
	l-6.1353-0.6934c-0.1826-0.0205-0.3398-0.1396-0.4092-0.3096l-2.2988-5.6357L8.1918,8.9803
	C8.122,9.1502,7.9652,9.2693,7.7821,9.2898L1.6796,9.9793l4.6172,4.1123c0.1372,0.1221,0.1968,0.3086,0.1558,0.4883l-1.4302,6.251
	l5.2021-3.2266C10.3051,17.5545,10.3969,17.5281,10.4896,17.5281z"/>
</svg>
