<?xml version="1.0" encoding="utf-8"?>
<!--
  - Copyright (c) 2010, 2023 BSI Business Systems Integration AG
  -
  - This program and the accompanying materials are made
  - available under the terms of the Eclipse Public License 2.0
  - which is available at https://www.eclipse.org/legal/epl-2.0/
  -
  - SPDX-License-Identifier: EPL-2.0
  -->

<!-- Generator: Adobe Illustrator 25.3.1, SVG Export Plug-In . SVG Version: 6.00 Build 0)  -->
<svg version="1.1" id="Layer_1" xmlns="http://www.w3.org/2000/svg" xmlns:xlink="http://www.w3.org/1999/xlink" x="0px" y="0px"
	 viewBox="0 0 20.9541 24" style="enable-background:new 0 0 20.9541 24;" xml:space="preserve">
<g>
	<polygon points="10.4775,17.5173 10.4776,17.5173 10.4776,17.5173 	"/>
	<path d="M16.7328,22.407c-0.082,0-0.1636-0.0234-0.2354-0.0684l-6.02-3.75l-6.0205,3.75
		c-0.0708,0.0439-0.1519,0.0674-0.2349,0.0674c-0.1553,0-0.2964-0.0781-0.3779-0.209c-0.062-0.1006-0.0825-0.2188-0.0562-0.334
		l1.6494-7.2393L0.1478,9.8933c-0.1826-0.1641-0.1982-0.4463-0.0347-0.6279C0.1859,9.1844,0.286,9.1326,0.3949,9.1199L7.3881,8.326
		l2.6777-6.5952c0.0679-0.1685,0.2295-0.2773,0.4116-0.2773c0.1816,0,0.3438,0.1089,0.4126,0.2773l2.6763,6.5952l6.9932,0.7939
		c0.1182,0.0137,0.2236,0.0723,0.2979,0.165s0.1074,0.209,0.0938,0.3271c-0.0117,0.1055-0.0605,0.2031-0.1377,0.2744l-5.0288,4.6982
		l1.3848,7.291c0.0469,0.2412-0.1113,0.4756-0.3521,0.5215L16.7328,22.407z M10.4774,17.6189c0.0835,0,0.1646,0.0234,0.2349,0.0674
		l5.3872,3.3564l-1.2769-6.4902c-0.0293-0.1494,0.022-0.3066,0.1333-0.4092l4.5469-4.248L13.204,9.1795
		c-0.1621-0.0186-0.3008-0.123-0.3618-0.2734l-2.3647-5.8257L8.1122,8.906c-0.061,0.1504-0.1997,0.2549-0.3613,0.2734L1.4804,9.8924
		l4.7456,4.2441c0.1201,0.1074,0.1724,0.2715,0.1367,0.4297l-1.4702,6.4531l5.3496-3.332
		C10.3129,17.6424,10.3939,17.6189,10.4774,17.6189z"/>
	<path d="M9.893,14.6277c-0.0991,0-0.1958-0.0352-0.2715-0.0986l-0.978-0.8389c-0.186-0.1592-0.2085-0.4404-0.0493-0.627
		c0.0845-0.0996,0.208-0.1562,0.3384-0.1562c0.106,0,0.2085,0.0381,0.2886,0.1064l0.6924,0.5938l2.1626-1.8467
		c0.0801-0.0684,0.1821-0.1055,0.2876-0.1055c0.1304,0,0.2539,0.0566,0.3389,0.1562c0.0771,0.0898,0.1147,0.2051,0.105,0.3232
		c-0.0093,0.1191-0.0645,0.2266-0.1548,0.3027l-2.4341,2.0762c-0.0874,0.0732-0.1992,0.1143-0.3135,0.1143H9.893z"/>
</g>
</svg>
