<?xml version="1.0" encoding="utf-8"?>
<!-- Generator: Adobe Illustrator 25.3.1, SVG Export Plug-In . SVG Version: 6.00 Build 0)  -->
<svg version="1.1" id="Layer_1" xmlns="http://www.w3.org/2000/svg" xmlns:xlink="http://www.w3.org/1999/xlink" x="0px" y="0px"
	 viewBox="0 0 22.71 24" style="enable-background:new 0 0 22.71 24;" xml:space="preserve">
<g>
	<path d="M12.8281,10.6829V0.802h0.5039c5.165,0.0059,9.3721,4.2124,9.3779,9.3774v0.5034H12.8281z M13.835,9.6766h7.8535
		l-0.0088-0.1099c-0.3105-4.1714-3.5645-7.4253-7.7354-7.7358L13.835,1.8225V9.6766z"/>
	<path d="M9.3774,23.5008C4.2124,23.4998,0.0059,19.2986,0,14.1341c-0.0029-2.5049,0.9697-4.8608,2.7388-6.6338
		s4.123-2.751,6.6274-2.7539h0.5249v8.8735h8.8755v0.5034c-0.0059,5.1646-4.2129,9.3716-9.3784,9.3774H9.3774z M8.7754,5.7752
		c-2.23,0.1636-4.2627,1.1855-5.7236,2.8779C1.5908,10.346,0.876,12.5061,1.04,14.7356c0.3193,4.3511,3.9824,7.7593,8.3398,7.7593
		c0.2051,0,0.4126-0.0078,0.6211-0.0234c4.1084-0.3018,7.4346-3.6279,7.7354-7.7358l0.0078-0.1094H8.8848V5.7669L8.7754,5.7752z"/>
</g>
</svg>
