<?xml version="1.0" encoding="utf-8"?>
<!--
  - Copyright (c) 2010, 2023 BSI Business Systems Integration AG
  -
  - This program and the accompanying materials are made
  - available under the terms of the Eclipse Public License 2.0
  - which is available at https://www.eclipse.org/legal/epl-2.0/
  -
  - SPDX-License-Identifier: EPL-2.0
  -->

<!-- Generator: Adobe Illustrator 26.0.2, SVG Export Plug-In . SVG Version: 6.00 Build 0)  -->
<svg version="1.1" id="Ebene_1" xmlns="http://www.w3.org/2000/svg" x="0px" y="0px"
     viewBox="0 0 24 24" style="enable-background:new 0 0 24 24;" xml:space="preserve">
<path d="M21.51,3.05H19V0.54c0-0.28-0.22-0.5-0.5-0.5S18,0.26,18,0.54v2.51H6.01V0.54c0-0.28-0.22-0.5-0.5-0.5
	c-0.28,0-0.5,0.22-0.5,0.5v2.51h-2.5c-1.38,0-2.5,1.13-2.5,2.51v15.98c0,1.38,1.12,2.51,2.5,2.51h18.99c1.38,0,2.5-1.13,2.5-2.51
	V5.55C24.01,4.17,22.88,3.05,21.51,3.05z M2.51,4.05h2.5v2.01c0,0.28,0.22,0.5,0.5,0.5c0.28,0,0.5-0.22,0.5-0.5V4.05H18v2.01
	c0,0.28,0.22,0.5,0.5,0.5S19,6.33,19,6.05V4.05h2.5c0.83,0,1.5,0.67,1.5,1.5v4.01h-22V5.55C1.01,4.72,1.68,4.05,2.51,4.05z
	 M21.51,23.03H2.51c-0.83,0-1.5-0.67-1.5-1.5V10.57h22v10.96C23.01,22.36,22.33,23.03,21.51,23.03z"/>
</svg>
