<?xml version="1.0" encoding="utf-8"?>
<!--
  - Copyright (c) 2010, 2023 BSI Business Systems Integration AG
  -
  - This program and the accompanying materials are made
  - available under the terms of the Eclipse Public License 2.0
  - which is available at https://www.eclipse.org/legal/epl-2.0/
  -
  - SPDX-License-Identifier: EPL-2.0
  -->

<!-- Generator: Adobe Illustrator 26.0.2, SVG Export Plug-In . SVG Version: 6.00 Build 0)  -->
<svg version="1.1" id="Ebene_1" xmlns="http://www.w3.org/2000/svg" x="0px" y="0px"
     viewBox="0 0 22.46 24" style="enable-background:new 0 0 22.46 24;" xml:space="preserve">
<path d="M0.45,23.24c-0.12,0-0.23-0.05-0.31-0.13c-0.11-0.11-0.15-0.27-0.12-0.43l1.77-6.9l0.03-0.09c0.02-0.04,0.04-0.07,0.08-0.11
	l13.6-13.6c0.76-0.77,1.79-1.2,2.88-1.2c1.1,0,2.13,0.42,2.89,1.19c0.78,0.79,1.2,1.83,1.19,2.93C22.45,5.98,22.01,7,21.23,7.76
	L7.66,21.33c-0.03,0.03-0.08,0.06-0.14,0.09l-6.97,1.79C0.5,23.23,0.47,23.24,0.45,23.24z M1.06,22.17l5.43-1.39l-4.04-4.03
	L1.06,22.17z M2.84,15.88l4.51,4.5L20.12,7.62l-4.5-4.5L2.84,15.88z M18.09,1.67c-0.55,0.01-1.06,0.09-1.62,0.61l-0.23,0.22L20.75,7
	l0.22-0.23c1.09-1.19,0.97-2.86-0.3-4.16c-0.62-0.61-1.42-0.95-2.28-0.95h-0.3V1.67z"/>
</svg>
