<?xml version="1.0" encoding="utf-8"?>
<!-- Generator: Adobe Illustrator 25.3.1, SVG Export Plug-In . SVG Version: 6.00 Build 0)  -->
<svg version="1.1" id="Layer_1" xmlns="http://www.w3.org/2000/svg" xmlns:xlink="http://www.w3.org/1999/xlink" x="0px" y="0px"
	 viewBox="0 0 23.8154 24" style="enable-background:new 0 0 23.8154 24;" xml:space="preserve">
<g>
	<path d="M11.9062,23.8982C5.3418,23.8973,0.0005,18.5564,0,11.9915c-0.0005-3.1807,1.2378-6.1709,3.4863-8.4204
		c2.249-2.249,5.2393-3.4883,8.4199-3.4883c6.5586,0.0068,11.9014,5.3486,11.9092,11.9077c0,6.5649-5.3418,11.9067-11.9072,11.9077
		H11.9062z M11.9072,1.0891c-6.0103,0-10.9004,4.8896-10.9009,10.8999c-0.0005,2.9116,1.1333,5.6494,3.1919,7.708
		c2.0586,2.0596,4.7964,3.1934,7.708,3.1934c6.0049-0.0059,10.8945-4.8955,10.9014-10.8999c0-6.0103-4.8896-10.9004-10.8994-10.9014
		H11.9072z"/>
	<path d="M11.9072,18.7488c-3.7261,0-6.7578-3.0312-6.7578-6.7573c-0.0005-1.8052,0.7026-3.502,1.9785-4.7783
		c1.2764-1.2764,2.9731-1.9795,4.7783-1.9795c3.7217,0.0039,6.7539,3.0352,6.7588,6.7568
		C18.665,15.7166,15.6328,18.7488,11.9072,18.7488z M11.9062,6.24c-3.1709,0-5.7505,2.5796-5.7505,5.7505
		c0,1.5361,0.5977,2.98,1.6841,4.0669c1.0859,1.0859,2.5303,1.6836,4.0664,1.6836c3.168-0.0029,5.748-2.582,5.751-5.7505
		c0-3.1704-2.5791-5.75-5.75-5.7505H11.9062z"/>
	<path d="M11.9062,13.8807c-1.042,0-1.8896-0.8477-1.8896-1.8896c-0.0005-0.5049,0.1963-0.98,0.5532-1.3369
		s0.8315-0.5537,1.3364-0.5537c1.0391,0.0029,1.8877,0.8506,1.8906,1.8906C13.7969,13.033,12.9482,13.8807,11.9062,13.8807z"/>
</g>
</svg>
