<?xml version="1.0" encoding="utf-8"?>
<!--
  - Copyright (c) 2010, 2023 BSI Business Systems Integration AG
  -
  - This program and the accompanying materials are made
  - available under the terms of the Eclipse Public License 2.0
  - which is available at https://www.eclipse.org/legal/epl-2.0/
  -
  - SPDX-License-Identifier: EPL-2.0
  -->

<!-- Generator: Adobe Illustrator 25.3.1, SVG Export Plug-In . SVG Version: 6.00 Build 0)  -->
<svg version="1.1" id="Layer_1" xmlns="http://www.w3.org/2000/svg" xmlns:xlink="http://www.w3.org/1999/xlink" x="0px" y="0px"
	 viewBox="0 0 23.9869 24" style="enable-background:new 0 0 23.9869 24;" xml:space="preserve">
<path d="M23.4205,24c-0.1323,0-0.29-0.0642-0.3814-0.1567l-6.6996-6.703l-0.5789,0.4427c-1.7373,1.3252-3.7996,2.0258-5.963,2.0258
	C4.395,19.6089,0,15.2109,0,9.8049C0,4.3984,4.395,0,9.7976,0c5.4016,0,9.7961,4.3984,9.7966,9.8049
	c0,2.1659-0.7001,4.2306-2.0243,5.9694l-0.4408,0.577l6.6991,6.7049c0.1041,0.1031,0.1605,0.2403,0.1586,0.3853
	c-0.001,0.1479-0.0642,0.2822-0.1868,0.4009C23.7076,23.9358,23.5519,24,23.4205,24z M9.7976,1.1005
	C5.0017,1.1005,1.1,5.0046,1.1,9.8039c0,4.7998,3.9017,8.7035,8.6976,8.7035s8.6981-3.9037,8.6981-8.7035
	C18.4957,5.0046,14.5935,1.1005,9.7976,1.1005z"/>
</svg>
