<?xml version="1.0" encoding="utf-8"?>
<!--
  - Copyright (c) 2010, 2023 BSI Business Systems Integration AG
  -
  - This program and the accompanying materials are made
  - available under the terms of the Eclipse Public License 2.0
  - which is available at https://www.eclipse.org/legal/epl-2.0/
  -
  - SPDX-License-Identifier: EPL-2.0
  -->

<!-- Generator: Adobe Illustrator 25.4.1, SVG Export Plug-In . SVG Version: 6.00 Build 0)  -->
<svg version="1.1" id="Ebene_1" xmlns="http://www.w3.org/2000/svg" x="0px" y="0px"
     viewBox="0 0 13.0001 24" style="enable-background:new 0 0 13.0001 24;" xml:space="preserve">
<path d="M12.5001,7.25c0.276,0,0.5-0.224,0.5-0.5V3c0-0.276-0.224-0.5-0.5-0.5h-12c-0.189,0-0.362,0.107-0.447,0.276
	c-0.085,0.17-0.067,0.372,0.047,0.524l6.525,8.7l-6.525,8.7c-0.114,0.151-0.132,0.354-0.047,0.523
	c0.085,0.17,0.258,0.277,0.447,0.277h12c0.276,0,0.5-0.224,0.5-0.5v-3.75c0-0.276-0.224-0.5-0.5-0.5s-0.5,0.224-0.5,0.5v3.25h-10.5
	l6.15-8.2c0.133-0.178,0.133-0.422,0-0.6l-6.15-8.2h10.5v3.25C12.0001,7.026,12.2241,7.25,12.5001,7.25z"/>
</svg>
