<?xml version="1.0" encoding="utf-8"?>
<!-- Generator: Adobe Illustrator 25.3.1, SVG Export Plug-In . SVG Version: 6.00 Build 0)  -->
<svg version="1.1" id="Layer_1" xmlns="http://www.w3.org/2000/svg" xmlns:xlink="http://www.w3.org/1999/xlink" x="0px" y="0px"
	 viewBox="0 0 22.6929 24" style="enable-background:new 0 0 22.6929 24;" xml:space="preserve">
<path d="M11.3735,23.3465C5.0908,23.3465,0.0015,18.2566,0,12.0022C-0.001,8.971,1.1787,6.1214,3.3218,3.9778
	c2.1431-2.144,4.9922-3.3247,8.0234-3.3252c6.2744,0.04,11.3398,5.1294,11.3477,11.3477
	c-0.0078,6.2183-5.0732,11.3071-11.292,11.3442l-0.0186,0.0029L11.3735,23.3465z M11.8481,22.285l0.1289-0.0352
	c2.2783-0.6279,4.1025-4.7725,4.2422-9.6416l0.0029-0.105h-4.374V22.285z M6.522,12.6082c0.1382,4.8105,1.939,8.9473,4.1885,9.6221
	l0.1309,0.0391v-9.7661H6.519L6.522,12.6082z M1.0347,12.6116c0.2568,4.2788,3.0571,7.9009,7.1343,9.2251l0.3413,0.1113
	l-0.2319-0.2734c-1.6313-1.9287-2.6641-5.3193-2.7622-9.0718l-0.0024-0.0996H1.0283L1.0347,12.6116z M17.2261,12.6077
	c0.0742,3.2065-0.9004,6.4194-2.7441,9.0454l-0.1787,0.2529l0.2939-0.0977c4.0322-1.3438,6.8027-4.9541,7.0576-9.1968l0.0068-0.1084
	h-4.4385L17.2261,12.6077z M14.4819,2.346c1.8701,2.665,2.8193,5.7935,2.7441,9.0464l-0.0029,0.1045h4.4385l-0.0068-0.1084
	c-0.2549-4.2427-3.0254-7.853-7.0576-9.1978l-0.293-0.0981L14.4819,2.346z M11.8481,11.4969h4.374l-0.0029-0.105
	c-0.1396-4.8701-1.9639-9.0146-4.2422-9.6411l-0.1289-0.0356V11.4969z M10.7105,1.7688c-2.2495,0.6753-4.0503,4.8125-4.1885,9.623
	l-0.0029,0.105h4.3223V1.7293L10.7105,1.7688z M8.1689,2.1624c-4.0771,1.3252-6.8774,4.9468-7.1343,9.2261l-0.0063,0.1084h4.4854
	l0.0024-0.0996c0.0981-3.752,1.1309-7.1436,2.7622-9.0718l0.2319-0.2739L8.1689,2.1624z"/>
</svg>
