<?xml version="1.0" encoding="utf-8"?>
<!-- Generator: Adobe Illustrator 25.4.1, SVG Export Plug-In . SVG Version: 6.00 Build 0)  -->
<svg version="1.1" id="Ebene_1" xmlns="http://www.w3.org/2000/svg" x="0px" y="0px"
     viewBox="0 0 19.4404 24" style="enable-background:new 0 0 19.4404 24;" xml:space="preserve">
<path d="M19.2933,2.427c-0.195-0.195-0.512-0.195-0.707,0l-3.572,3.572c-1.436-1.371-3.376-2.219-5.514-2.219c-4.411,0-8,3.589-8,8
	c0,2.138,0.848,4.077,2.218,5.514l-3.572,3.572c-0.195,0.195-0.195,0.512,0,0.707c0.098,0.098,0.226,0.146,0.354,0.146
	s0.256-0.049,0.354-0.146l3.596-3.596c1.378,1.126,3.136,1.803,5.051,1.803c4.411,0,8-3.589,8-8c0-1.914-0.677-3.672-1.803-5.051
	l3.596-3.596C19.4893,2.938,19.4893,2.622,19.2933,2.427z M2.5003,11.78c0-3.86,3.14-7,7-7c1.862,0,3.552,0.735,4.807,1.925
	l-9.882,9.882C3.2363,15.332,2.5003,13.642,2.5003,11.78z M16.5003,11.78c0,3.86-3.14,7-7,7c-1.638,0-3.144-0.57-4.337-1.516
	l9.821-9.821C15.9302,8.637,16.5003,10.142,16.5003,11.78z"/>
</svg>
