<?xml version="1.0" encoding="utf-8"?>
<!-- Generator: Adobe Illustrator 25.3.1, SVG Export Plug-In . SVG Version: 6.00 Build 0)  -->
<svg version="1.1" id="Layer_1" xmlns="http://www.w3.org/2000/svg" xmlns:xlink="http://www.w3.org/1999/xlink" x="0px" y="0px"
	 viewBox="0 0 23.7832 24" style="enable-background:new 0 0 23.7832 24;" xml:space="preserve">
<path d="M0,23.2449l3.707-3.7295l-0.0649-0.0713C-0.1973,15.2107-0.2158,8.8103,3.5986,4.555
	c2.1055-2.3486,5.124-3.6958,8.2803-3.6958c2.7412,0,5.375,1.0088,7.417,2.8398l0.0723,0.0645l3.7021-3.7241l0.7129,0.709
	l-3.7021,3.7231l0.0654,0.0718c3.8428,4.2349,3.8613,10.6382,0.042,14.895c-2.1055,2.3467-5.123,3.6934-8.2773,3.6934
	c0,0,0,0-0.001,0c-2.7417-0.001-5.3765-1.0098-7.4189-2.8428l-0.0723-0.0645l-3.7065,3.7275L0,23.2449z M5.1255,19.5135
	l0.0806,0.0713c1.8511,1.6396,4.2324,2.542,6.707,2.542c5.5928-0.0098,10.123-4.5547,10.1133-10.1313
	c-0.001-2.4893-0.917-4.8799-2.5811-6.7319L19.373,5.1834L5.1255,19.5135z M11.8633,1.8645
	C9.1611,1.8689,6.6226,2.9251,4.7153,4.8387s-2.9556,4.4551-2.9512,7.1567c0.0005,2.4878,0.916,4.8774,2.5781,6.729l0.0718,0.0801
	L18.6611,4.4749l-0.0811-0.0713c-1.8516-1.6372-4.2314-2.5391-6.7031-2.5391H11.8633z"/>
</svg>
