<?xml version="1.0" encoding="utf-8"?>
<!--
  - Copyright (c) 2010, 2023 BSI Business Systems Integration AG
  -
  - This program and the accompanying materials are made
  - available under the terms of the Eclipse Public License 2.0
  - which is available at https://www.eclipse.org/legal/epl-2.0/
  -
  - SPDX-License-Identifier: EPL-2.0
  -->

<!-- Generator: Adobe Illustrator 25.3.1, SVG Export Plug-In . SVG Version: 6.00 Build 0)  -->
<svg version="1.1" id="Layer_1" xmlns="http://www.w3.org/2000/svg" xmlns:xlink="http://www.w3.org/1999/xlink" x="0px" y="0px"
	 viewBox="0 0 29.2847 24" style="enable-background:new 0 0 29.2847 24;" xml:space="preserve">
<g>
	<polygon points="21.4634,16.9519 24.7769,11.8001 21.7046,7.0203 22.9575,7.0203 25.3755,10.868 27.8804,6.9734 29.0522,7.014
		25.9751,11.8001 29.2847,16.9461 28.0308,16.9461 25.3755,12.7317 22.6353,16.993 	"/>
	<path d="M18.9595,16.9461l-1.1094-2.9058h-4.4033l-1.1089,2.9058h-1.0771l3.7876-9.9253h1.2002l3.7871,9.9253H18.9595z
		 M13.8306,13.034h3.6357l-1.8174-4.7632L13.8306,13.034z"/>
	<polygon points="8.8418,16.9461 8.8418,8.2742 8.644,8.2386 5.4136,16.9461 4.4346,16.9461 1.2041,8.2386 1.0063,8.2742
		1.0063,16.9461 0,16.9461 0,7.0286 1.8281,7.0286 4.9243,15.3728 8.02,7.0286 9.8481,7.0286 9.8481,16.9461 	"/>
</g>
</svg>
