<?xml version="1.0" encoding="utf-8"?>
<!-- Generator: Adobe Illustrator 25.3.1, SVG Export Plug-In . SVG Version: 6.00 Build 0)  -->
<svg version="1.1" id="Layer_1" xmlns="http://www.w3.org/2000/svg" xmlns:xlink="http://www.w3.org/1999/xlink" x="0px" y="0px"
	 viewBox="0 0 21.4366 24" style="enable-background:new 0 0 21.4366 24;" xml:space="preserve">
<g>
	<path d="M10.6492,15.8455c-2.1621-0.001-3.9277-1.7598-3.9351-3.9224C6.6809,9.657,8.4246,7.8577,10.6023,7.8235c0,0,0,0,0.001,0
		c2.2061,0,3.9766,1.7441,4.0098,3.8877l0.001,0.1094c0.0234,1.0527-0.3643,2.0498-1.0898,2.8091
		c-0.7266,0.7598-1.7051,1.1914-2.7549,1.2148L10.6492,15.8455z M10.6638,8.8323c-1.623,0-2.9434,1.3203-2.9434,2.9434
		c-0.0137,0.8462,0.2793,1.5928,0.8262,2.1602s1.2822,0.8882,2.0703,0.9028c0.001,0,0.001,0,0.002,0
		c0.8408,0,1.6094-0.3232,2.1611-0.8862c0.5498-0.5615,0.8506-1.3345,0.8262-2.1196c0.0371-1.6147-1.252-2.9629-2.8721-3
		L10.6638,8.8323z"/>
	<path d="M8.6814,23.3348c-0.4482-0.0059-0.8872-0.1934-1.2036-0.5137c-0.3091-0.3008-0.4819-0.7021-0.4888-1.1318L6.842,19.948
		c-0.271-0.1963-0.4771-0.3154-0.6743-0.4434l-1.6455,0.6924c-0.2349,0.1143-0.4829,0.1709-0.7397,0.1709
		c-0.5786,0-1.1104-0.29-1.4224-0.7754L2.279,19.4705l-2.0303-3.4922c-0.4712-0.791-0.2544-1.8296,0.4927-2.3647l1.5337-1.124
		l-0.0005-0.8154l-1.5332-1.1787C-0.0242,9.9383-0.2263,8.8763,0.281,8.0779l1.9609-3.374C2.5212,4.115,3.1145,3.7395,3.7576,3.7395
		c0.1753,0,0.3491,0.0278,0.5171,0.0825L4.449,3.8802l1.6685,0.7524l0.0479-0.0332C6.3762,4.4519,6.5959,4.3162,6.823,4.1936
		l0.2764-1.9419c0.0684-0.8975,0.7949-1.5771,1.6904-1.5854h3.9639c0.4561,0.0054,0.8848,0.188,1.2051,0.5132
		c0.3076,0.3008,0.4805,0.7021,0.4883,1.1313l0.1455,1.7407c0.2598,0.1899,0.4561,0.3032,0.6436,0.4229l0.0488,0.0312l1.6133-0.8042
		c0.2363-0.1167,0.4893-0.1758,0.752-0.1758c0.5762,0,1.1094,0.2881,1.4248,0.7705l0.082,0.1235l2.0312,3.4941
		c0.4717,0.792,0.2529,1.8301-0.498,2.3638l-1.4873,1.0918l-0.0391,0.4663c0,0.2129-0.001,0.3398-0.0039,0.4644l1.4521,1.332
		c0.7461,0.5645,0.9346,1.6157,0.4355,2.3989l-1.96,3.375c-0.2803,0.5879-0.875,0.9639-1.5176,0.9639l0,0
		c-0.1738,0-0.3467-0.0273-0.5137-0.0811l-0.1758-0.0605l-1.6699-0.752l-0.0479,0.0332c-0.2021,0.1416-0.4111,0.2715-0.6279,0.3896
		l-0.1953,1.7725c-0.0293,0.9268-0.7734,1.6543-1.6943,1.6631H8.6814z M7.9934,21.6521c0,0.167,0.0728,0.3369,0.1987,0.459
		c0.125,0.1318,0.2988,0.21,0.4854,0.2168h3.9688c0.3789-0.0215,0.6729-0.3203,0.6885-0.6943l0.1982-2.3721l0.2695-0.1211
		c0.2959-0.1387,0.5781-0.3047,0.8389-0.4951l0.4482-0.3232l2.2432,0.998c0.0742,0.0195,0.1396,0.0264,0.207,0.0264
		c0.3145,0,0.5537-0.1387,0.6416-0.3711l2.0137-3.4805c0.2207-0.3555,0.1279-0.8296-0.2129-1.0771l-1.8945-1.6719l0.0615-0.374
		c0.0059-0.1567,0.0068-0.2798,0.0068-0.5361c0-0.2876-0.002-0.4868-0.0098-0.6562l-0.0186-0.3276l1.958-1.3789
		c0.3418-0.2305,0.4453-0.6938,0.2324-1.0518l-2.0361-3.501c-0.1221-0.2344-0.3672-0.3828-0.6367-0.3828
		c-0.0996,0-0.1973,0.0205-0.2891,0.061l-2.1533,1.0718l-0.2451-0.1719c-0.3311-0.2314-0.6865-0.438-1.0557-0.6138L13.6413,4.76
		l-0.1992-2.4116c0-0.1665-0.0713-0.3364-0.1973-0.459c-0.124-0.1309-0.3037-0.2109-0.4883-0.2168H8.7888
		C8.426,1.6932,8.133,1.9773,8.1013,2.3343L7.8025,4.8455L7.5417,4.9617C7.24,5.1009,6.9524,5.2693,6.6853,5.4637L6.2351,5.7903
		L3.9978,4.7898C3.9216,4.7693,3.8523,4.761,3.781,4.761c-0.3091,0-0.5454,0.1396-0.6333,0.373l-2.0151,3.48
		C0.9114,8.97,1.0046,9.4441,1.3469,9.6912l2.0034,1.4683l-0.0645,0.3623C3.28,11.6839,3.2786,11.803,3.2786,12.0545
		c0,0.2852,0.0024,0.4863,0.0107,0.6558l0.0176,0.3271l-1.9585,1.3794c-0.3403,0.2319-0.4424,0.6953-0.2305,1.0527l2.0347,3.499
		c0.127,0.2344,0.3735,0.3818,0.6426,0.3818c0.0977,0,0.1934-0.0195,0.2837-0.0576l2.147-0.9688l0.2349,0.165
		c0.3428,0.2402,0.7036,0.4502,1.0732,0.625l0.2588,0.125L7.9934,21.6521z"/>
</g>
</svg>
