<?xml version="1.0" encoding="utf-8"?>
<svg version="1.1" id="Regular" xmlns="http://www.w3.org/2000/svg" x="0px" y="0px"
     viewBox="0 0 24 24" style="enable-background:new 0 0 24 24;" xml:space="preserve">
<g>
	<path d="M16.7,7.8c0.9,0,1.7-0.3,2.3-0.9c0.6-0.6,0.9-1.4,0.9-2.3S19.6,2.9,19,2.3c-1.2-1.2-3.3-1.2-4.5,0
		c-0.6,0.6-0.9,1.4-0.9,2.3s0.3,1.7,0.9,2.3C15.1,7.4,15.9,7.8,16.7,7.8z M15.2,3c0.4-0.4,1-0.6,1.6-0.6c0.6,0,1.1,0.2,1.6,0.6
		c0.4,0.4,0.6,1,0.6,1.6s-0.2,1.1-0.6,1.6c-0.8,0.8-2.3,0.8-3.1,0c-0.4-0.4-0.6-1-0.6-1.6S14.8,3.4,15.2,3z"/>
  <path d="M23.9,15.1l-0.3-0.5c-0.8-1.2-1.8-2.2-3-3c-1.2-0.8-2.5-1.3-3.9-1.5c-2.4-0.4-4.5-1.7-6-3.6L9,4.2C8.9,4,8.5,4,8.3,4.1
		C8.1,4.3,8,4.6,8.2,4.8l1.7,2.2c1.3,1.8,3.2,3.1,5.3,3.7L13,14.6C11.6,14,10,13.8,8.5,14c-1.7,0.3-3.2,1.1-4.3,2.3
		c-0.2,0.2-0.2,0.5,0,0.7c0.1,0.1,0.2,0.1,0.3,0.1c0.1,0,0.3-0.1,0.4-0.2c1-1.1,2.3-1.8,3.8-2c1.3-0.2,2.6,0,3.7,0.4l-2.9,5
		c-0.1,0.2-0.1,0.5,0.2,0.7c0.1,0,0.2,0.1,0.3,0.1c0.2,0,0.3-0.1,0.4-0.3l5.8-10c0.1,0,0.2,0,0.3,0.1c1.3,0.2,2.5,0.7,3.5,1.4
		c1.1,0.7,2,1.6,2.7,2.7l0.3,0.5c0.1,0.1,0.3,0.2,0.4,0.2c0.1,0,0.2,0,0.3-0.1C24,15.6,24.1,15.3,23.9,15.1z"/>
  <path d="M4.6,21.6H0.5c-0.3,0-0.5,0.2-0.5,0.5c0,0.3,0.2,0.5,0.5,0.5h4.1c0.3,0,0.5-0.2,0.5-0.5C5.1,21.9,4.8,21.6,4.6,21.6z"/>
</g>
</svg>
