<?xml version="1.0" encoding="utf-8"?>
<!--
  - Copyright (c) 2010, 2023 BSI Business Systems Integration AG
  -
  - This program and the accompanying materials are made
  - available under the terms of the Eclipse Public License 2.0
  - which is available at https://www.eclipse.org/legal/epl-2.0/
  -
  - SPDX-License-Identifier: EPL-2.0
  -->

<!-- Generator: Adobe Illustrator 26.0.0, SVG Export Plug-In . SVG Version: 6.00 Build 0)  -->
<svg version="1.1" id="Layer_1" xmlns="http://www.w3.org/2000/svg" x="0px" y="0px"
     viewBox="0 0 20.84 24" style="enable-background:new 0 0 20.84 24;" xml:space="preserve">
<path d="M0,13.27c0-0.01,0,0.67,0-0.03c0-0.71,1.01-0.71,1.01,0c0,0.44,0,0.01,0,0.02c0.04,5.16,4.24,9.37,9.41,9.4
	c5.25-0.06,9.47-4.39,9.41-9.64c-0.06-5.13-4.28-9.35-9.42-9.41c-2.85,0-5.51,1.28-7.29,3.51L2.99,7.29c0,0,5.36,0,6.27,0
	c0.65,0.05,0.66,0.98,0,1.01H2.19c-0.37,0-0.68-0.3-0.68-0.68V0.84c0-0.67,1.01-0.67,1.01,0c0,0.5,0,5.45,0,5.45l0.18-0.2
	c1.95-2.21,4.77-3.48,7.72-3.48c2.81,0.03,5.45,1.15,7.41,3.16s3.04,4.67,3.01,7.48c-0.06,5.69-4.73,10.36-10.42,10.42
	C4.7,23.63,0.05,18.98,0,13.27z"/>
</svg>
