<?xml version="1.0" encoding="utf-8"?>
<!--
  - Copyright (c) 2010, 2023 BSI Business Systems Integration AG
  -
  - This program and the accompanying materials are made
  - available under the terms of the Eclipse Public License 2.0
  - which is available at https://www.eclipse.org/legal/epl-2.0/
  -
  - SPDX-License-Identifier: EPL-2.0
  -->

<!-- Generator: Adobe Illustrator 26.0.0, SVG Export Plug-In . SVG Version: 6.00 Build 0)  -->
<svg version="1.1" id="Layer_1" xmlns="http://www.w3.org/2000/svg" x="0px" y="0px"
     viewBox="0 0 20.84 24" style="enable-background:new 0 0 20.84 24;" xml:space="preserve">
<path d="M10.42,23.67C4.73,23.61,0.06,18.93,0,13.25c-0.03-2.81,1.04-5.47,3.01-7.48s4.6-3.13,7.41-3.16c2.95,0,5.76,1.27,7.72,3.48
	l0.18,0.2c0,0,0-4.95,0-5.45c0-0.67,1.01-0.67,1.01,0v6.78c0,0.37-0.3,0.68-0.68,0.68h-7.06c-0.66-0.03-0.65-0.96,0-1.01
	c0.9,0,6.27,0,6.27,0l-0.13-0.17c-1.78-2.23-4.43-3.51-7.29-3.51C5.29,3.67,1.07,7.9,1.01,13.02c-0.06,5.25,4.16,9.57,9.41,9.64
	c5.18-0.04,9.37-4.24,9.41-9.4c0-0.01,0,0.42,0-0.02c0-0.71,1.01-0.71,1.01,0s0,0.02,0,0.03C20.79,18.98,16.14,23.63,10.42,23.67z"
/>
</svg>
