<?xml version="1.0" encoding="utf-8"?>
<!-- Generator: Adobe Illustrator 25.4.1, SVG Export Plug-In . SVG Version: 6.00 Build 0)  -->
<svg version="1.1" id="Ebene_1" xmlns="http://www.w3.org/2000/svg" x="0px" y="0px"
     viewBox="0 0 15.833 24" style="enable-background:new 0 0 15.833 24;" xml:space="preserve">
<g>
	<path d="M13.771,6.213c0.075-0.488-0.044-0.976-0.336-1.374c-0.292-0.398-0.722-0.659-1.21-0.734
		c-0.096-0.015-0.193-0.022-0.288-0.021H3.9C3.406,4.091,2.942,4.27,2.59,4.618c-0.351,0.347-0.546,0.81-0.549,1.303
		c0,0.098,0.007,0.195,0.021,0.292c0,0.003,0.001,0.006,0.001,0.01c0.466,2.69,1.974,4.627,4.482,5.778
		c-2.508,1.152-4.016,3.09-4.483,5.788c-0.015,0.096-0.021,0.194-0.021,0.29c0.002,0.494,0.197,0.957,0.548,1.304
		c0.349,0.345,0.809,0.534,1.299,0.534c0.004,0,0.007,0,0.011,0h8.033c0.099,0.004,0.194-0.007,0.291-0.021
		c0.488-0.074,0.917-0.334,1.21-0.732c0.292-0.398,0.412-0.886,0.336-1.384c-0.466-2.69-1.974-4.627-4.482-5.779
		C11.795,10.849,13.303,8.911,13.771,6.213z M12.783,17.94c0.034,0.224-0.021,0.448-0.155,0.63
		c-0.134,0.183-0.332,0.302-0.556,0.336c-0.044,0.006-0.087,0-0.136,0.01H3.897c-0.001,0-0.002,0-0.003,0
		c-0.21,0.013-0.439-0.085-0.601-0.245c-0.161-0.159-0.25-0.372-0.251-0.599c0-0.044,0.002-0.088,0.008-0.123
		c0.467-2.695,2.06-4.47,4.867-5.422C10.724,13.479,12.317,15.254,12.783,17.94z M7.917,11.473c-2.805-0.95-4.398-2.723-4.866-5.417
		c-0.006-0.042-0.01-0.085-0.009-0.129C3.043,5.7,3.133,5.488,3.294,5.328c0.162-0.159,0.379-0.25,0.604-0.245h8.042
		c0.046-0.004,0.089,0.003,0.133,0.01c0.462,0.071,0.781,0.505,0.711,0.958C12.317,8.748,10.724,10.522,7.917,11.473z"/>
  <path d="M0.5,2.387h14.833c0.276,0,0.5-0.224,0.5-0.5s-0.224-0.5-0.5-0.5H0.5c-0.276,0-0.5,0.224-0.5,0.5S0.224,2.387,0.5,2.387z"
  />
  <path d="M15.334,21.613H0.5c-0.276,0-0.5,0.224-0.5,0.5s0.224,0.5,0.5,0.5h14.833c0.276,0,0.5-0.224,0.5-0.5
		S15.61,21.613,15.334,21.613z"/>
</g>
</svg>
