<?xml version="1.0" encoding="utf-8"?>
<!--
  - Copyright (c) 2010, 2023 BSI Business Systems Integration AG
  -
  - This program and the accompanying materials are made
  - available under the terms of the Eclipse Public License 2.0
  - which is available at https://www.eclipse.org/legal/epl-2.0/
  -
  - SPDX-License-Identifier: EPL-2.0
  -->

<!-- Generator: Adobe Illustrator 25.4.1, SVG Export Plug-In . SVG Version: 6.00 Build 0)  -->
<svg version="1.1" id="Ebene_1" xmlns="http://www.w3.org/2000/svg" x="0px" y="0px"
     viewBox="0 0 21 24" style="enable-background:new 0 0 21 24;" xml:space="preserve">
<path d="M10.5,1.5C4.71,1.5,0,6.21,0,12s4.71,10.5,10.5,10.5S21,17.79,21,12S16.29,1.5,10.5,1.5z M18.375,6.692l-2.964,1.779
	C14.402,7.071,12.815,6.119,11,5.97V2.525C14.066,2.686,16.754,4.295,18.375,6.692z M10.5,6.944c2.788,0,5.056,2.268,5.056,5.056
	s-2.268,5.056-5.056,5.056S5.444,14.788,5.444,12S7.712,6.944,10.5,6.944z M10.5,21.5C5.262,21.5,1,17.238,1,12
	c0-5.07,3.995-9.212,9-9.475V5.97C6.895,6.225,4.444,8.83,4.444,12c0,3.339,2.717,6.056,6.056,6.056s6.056-2.717,6.056-6.056
	c0-0.96-0.23-1.865-0.63-2.672l2.962-1.777C19.596,8.879,20,10.393,20,12C20,17.238,15.738,21.5,10.5,21.5z"/>
</svg>
