<?xml version="1.0" encoding="utf-8"?>
<!--
  - Copyright (c) 2010-2021 BSI Business Systems Integration AG.
  - All rights reserved. This program and the accompanying materials
  - are made available under the terms of the Eclipse Public License v1.0
  - which accompanies this distribution, and is available at
  - http://www.eclipse.org/legal/epl-v10.html
  -
  - Contributors:
  -     BSI Business Systems Integration AG - initial API and implementation
  -->

<!-- Generator: Adobe Illustrator 25.2.1, SVG Export Plug-In . SVG Version: 6.00 Build 0)  -->
<svg version="1.1" id="Ebene_1" xmlns="http://www.w3.org/2000/svg" x="0px" y="0px"
     viewBox="0 0 24 24" style="enable-background:new 0 0 24 24;" xml:space="preserve">
<style type="text/css">
	.st0{fill:none;stroke:#000000;stroke-linecap:round;stroke-linejoin:round;}
	.st1{opacity:0.5;fill:none;stroke:#000000;stroke-width:1.5;stroke-linecap:round;stroke-linejoin:round;}
	.st2{fill:#FFFFFF;stroke:#000000;stroke-miterlimit:10;}
	.st3{fill:none;stroke:#808080;stroke-width:1.3;stroke-linecap:round;stroke-linejoin:round;}
	.st4{fill:none;stroke:#000000;stroke-width:1.5;stroke-linecap:round;stroke-linejoin:round;}
	.st5{stroke:#000000;stroke-width:1.5;stroke-linecap:round;stroke-linejoin:round;}
</style>
  <g>
	<path d="M21.79,9.46l-9.5-6.9c-0.18-0.13-0.41-0.13-0.59,0l-9.5,6.9c-0.18,0.13-0.25,0.35-0.18,0.56l3.63,11.17
		c0.07,0.21,0.26,0.35,0.48,0.35h11.74c0.22,0,0.41-0.14,0.48-0.35l3.63-11.17C22.04,9.82,21.97,9.59,21.79,9.46z M17.51,20.54H6.49
		l-3.4-10.48L12,3.58l8.91,6.47L17.51,20.54z"/>
    <path d="M11.71,7.89l-4.43,3.22c-0.18,0.13-0.25,0.35-0.18,0.56l1.69,5.21c0.07,0.21,0.26,0.35,0.48,0.35h5.48
		c0.22,0,0.41-0.14,0.48-0.35l1.69-5.21c0.07-0.21-0.01-0.43-0.18-0.56l-4.43-3.22C12.12,7.76,11.88,7.76,11.71,7.89z M15.85,11.7
		l-1.47,4.52H9.62L8.15,11.7L12,8.91L15.85,11.7z"/>
</g>
</svg>
