<?xml version="1.0" encoding="utf-8"?>
<!--
  - Copyright (c) 2010-2021 BSI Business Systems Integration AG.
  - All rights reserved. This program and the accompanying materials
  - are made available under the terms of the Eclipse Public License v1.0
  - which accompanies this distribution, and is available at
  - http://www.eclipse.org/legal/epl-v10.html
  -
  - Contributors:
  -     BSI Business Systems Integration AG - initial API and implementation
  -->

<!-- Generator: Adobe Illustrator 25.4.1, SVG Export Plug-In . SVG Version: 6.00 Build 0)  -->
<svg version="1.1" id="Ebene_1" xmlns="http://www.w3.org/2000/svg" x="0px" y="0px"
     viewBox="0 0 23 24" style="enable-background:new 0 0 23 24;" xml:space="preserve">
<path d="M22.7376,3.56c-0.244-0.13-0.546-0.041-0.678,0.202l-6.558,12.12l-5.902-7.73c-0.095-0.124-0.242-0.197-0.397-0.197
	c-0.162,0.003-0.306,0.074-0.4,0.199l-8.702,11.545c-0.166,0.22-0.122,0.534,0.099,0.7c0.089,0.068,0.195,0.101,0.3,0.101
	c0.152,0,0.301-0.069,0.4-0.199l8.305-11.019l5.972,7.821c0.103,0.135,0.257,0.205,0.437,0.195c0.169-0.013,0.32-0.111,0.401-0.261
	l6.926-12.8C23.0706,3.995,22.9806,3.692,22.7376,3.56z"/>
</svg>
