<?xml version="1.0" encoding="utf-8"?>
<!--
  - Copyright (c) 2010, 2023 BSI Business Systems Integration AG
  -
  - This program and the accompanying materials are made
  - available under the terms of the Eclipse Public License 2.0
  - which is available at https://www.eclipse.org/legal/epl-2.0/
  -
  - SPDX-License-Identifier: EPL-2.0
  -->

<!-- Generator: Adobe Illustrator 25.4.1, SVG Export Plug-In . SVG Version: 6.00 Build 0)  -->
<svg version="1.1" id="Ebene_1" xmlns="http://www.w3.org/2000/svg" x="0px" y="0px"
     viewBox="0 0 21 24" style="enable-background:new 0 0 21 24;" xml:space="preserve">
<path d="M10.5,1.5C4.71,1.5,0,6.21,0,12s4.71,10.5,10.5,10.5S21,17.79,21,12S16.29,1.5,10.5,1.5z M18.375,6.692L11,11.117V2.525
	C14.066,2.686,16.754,4.295,18.375,6.692z M10.5,21.5C5.262,21.5,1,17.238,1,12c0-5.07,3.995-9.212,9-9.475V12
	c0,0.18,0.097,0.346,0.253,0.435C10.33,12.479,10.415,12.5,10.5,12.5c0.089,0,0.178-0.024,0.257-0.071l8.131-4.878
	C19.596,8.879,20,10.393,20,12C20,17.238,15.738,21.5,10.5,21.5z"/>
</svg>
