<?xml version="1.0" encoding="utf-8"?>
<!--
  - Copyright (c) 2010-2021 BSI Business Systems Integration AG.
  - All rights reserved. This program and the accompanying materials
  - are made available under the terms of the Eclipse Public License v1.0
  - which accompanies this distribution, and is available at
  - http://www.eclipse.org/legal/epl-v10.html
  -
  - Contributors:
  -     BSI Business Systems Integration AG - initial API and implementation
  -->

<!-- Generator: Adobe Illustrator 25.3.1, SVG Export Plug-In . SVG Version: 6.00 Build 0)  -->
<svg version="1.1" id="Layer_1" xmlns="http://www.w3.org/2000/svg" x="0px" y="0px"
     viewBox="0 0 24.0073 24" style="enable-background:new 0 0 24.0073 24;" xml:space="preserve">
<g>
	<path d="M0.5034,23.3982C0.2256,23.3982,0,23.1717,0,22.8943V1.1053c0-0.2778,0.2256-0.5034,0.5034-0.5034
		c0.2773,0,0.5029,0.2256,0.5029,0.5034v21.2861h22.4971c0.2773,0,0.5039,0.2256,0.5039,0.5029s-0.2266,0.5039-0.5039,0.5039H0.5034
		z"/>
  <path d="M6.5557,18.5564c-0.9448,0-1.7134-0.7695-1.7134-1.7148v-4.8418c0-0.9448,0.7686-1.7134,1.7134-1.7134h5.5493V3.5501
		c0-0.958,0.7695-1.7373,1.7139-1.7373h7.2637c0.9443,0,1.7139,0.7793,1.7139,1.7373v9.6367c0,0.958-0.7695,1.7373-1.7139,1.7373
		h-3.1279v1.9175c0,0.9453-0.7695,1.7148-1.7148,1.7148H6.5557z M6.5557,11.2928c-0.4028,0-0.707,0.3042-0.707,0.707v4.8418
		c0,0.4033,0.3042,0.707,0.707,0.707h9.6841c0.4033,0,0.707-0.3037,0.707-0.707v-1.9175h-3.1279
		c-0.9443,0-1.7139-0.7793-1.7139-1.7373v-1.894H6.5557z M13.8188,2.8191c-0.4033,0-0.707,0.3145-0.707,0.731v6.7363h3.1279
		c0.9453,0,1.7148,0.7686,1.7148,1.7134v1.918h3.1279c0.4023,0,0.7061-0.3145,0.7061-0.731V3.5501
		c0-0.4165-0.3037-0.731-0.7061-0.731H13.8188z M13.1118,13.1868c0,0.4165,0.3037,0.731,0.707,0.731h3.1279v-1.918
		c0-0.4028-0.3037-0.707-0.707-0.707h-3.1279V13.1868z"/>
</g>
</svg>
