<?xml version="1.0" encoding="utf-8"?>
<!--
  - Copyright (c) 2010, 2023 BSI Business Systems Integration AG
  -
  - This program and the accompanying materials are made
  - available under the terms of the Eclipse Public License 2.0
  - which is available at https://www.eclipse.org/legal/epl-2.0/
  -
  - SPDX-License-Identifier: EPL-2.0
  -->

<!-- Generator: Adobe Illustrator 25.4.1, SVG Export Plug-In . SVG Version: 6.00 Build 0)  -->
<svg version="1.1" id="Ebene_1" xmlns="http://www.w3.org/2000/svg" x="0px" y="0px"
     viewBox="0 0 21.19 24" style="enable-background:new 0 0 21.19 24;" xml:space="preserve">
<path d="M19.502,9.756H1V7.075h10.188c0.931,0,1.688-0.757,1.688-1.688V4.199c0-0.931-0.757-1.688-1.688-1.688H1V1.349
	c0-0.276-0.224-0.5-0.5-0.5S0,1.073,0,1.349v1.663v3.563v3.682v3.562V17.5v3.563v1.663c0,0.276,0.224,0.5,0.5,0.5s0.5-0.224,0.5-0.5
	v-1.163h13.751c0.931,0,1.688-0.757,1.688-1.688v-1.188c0-0.931-0.757-1.688-1.688-1.688H1v-2.682h18.502
	c0.931,0,1.688-0.757,1.688-1.688v-1.188C21.189,10.513,20.432,9.756,19.502,9.756z M11.188,3.512c0.379,0,0.688,0.309,0.688,0.688
	v1.188c0,0.379-0.309,0.688-0.688,0.688H1V3.512H11.188z M14.751,18c0.379,0,0.688,0.309,0.688,0.688v1.188
	c0,0.379-0.309,0.688-0.688,0.688H1V18H14.751z M20.189,12.631c0,0.379-0.309,0.688-0.688,0.688H1v-2.562h18.502
	c0.379,0,0.688,0.309,0.688,0.688v1.186H20.189z"/>
</svg>
