<?xml version="1.0" encoding="utf-8"?>
<!--
  - Copyright (c) 2010, 2023 BSI Business Systems Integration AG
  -
  - This program and the accompanying materials are made
  - available under the terms of the Eclipse Public License 2.0
  - which is available at https://www.eclipse.org/legal/epl-2.0/
  -
  - SPDX-License-Identifier: EPL-2.0
  -->

<!-- Generator: Adobe Illustrator 25.3.1, SVG Export Plug-In . SVG Version: 6.00 Build 0)  -->
<svg version="1.1" id="Layer_1" xmlns="http://www.w3.org/2000/svg" x="0px" y="0px"
     viewBox="0 0 24.0073 24" style="enable-background:new 0 0 24.0073 24;" xml:space="preserve">
<g>
	<path d="M0.5034,23.3982C0.2256,23.3982,0,23.1717,0,22.8943V1.1053c0-0.2778,0.2256-0.5034,0.5034-0.5034
		c0.2773,0,0.5029,0.2256,0.5029,0.5034v21.2861h22.4971c0.2773,0,0.5039,0.2256,0.5039,0.5029s-0.2266,0.5039-0.5039,0.5039H0.5034
		z"/>
  <path d="M11.3979,20.9773c-0.2773,0-0.5034-0.2266-0.5034-0.5039V2.3157c0-0.2773,0.2261-0.5029,0.5034-0.5029h2.4209
		c0.2773,0,0.5039,0.2256,0.5039,0.5029v18.1577c0,0.2773-0.2266,0.5039-0.5039,0.5039H11.3979z M11.9019,19.9705h1.4131V2.8191
		h-1.4131V19.9705z"/>
  <path d="M17.4507,20.9773c-0.2773,0-0.5039-0.2266-0.5039-0.5039V7.158c0-0.2778,0.2266-0.5034,0.5039-0.5034h2.4209
		c0.2773,0,0.5039,0.2256,0.5039,0.5034v13.3154c0,0.2773-0.2266,0.5039-0.5039,0.5039H17.4507z M17.9546,19.9705h1.4131V7.6609
		h-1.4131V19.9705z"/>
  <path d="M5.3452,20.9773c-0.2773,0-0.5029-0.2266-0.5029-0.5039v-9.6841c0-0.2773,0.2256-0.5029,0.5029-0.5029h2.4209
		c0.2778,0,0.5034,0.2256,0.5034,0.5029v9.6841c0,0.2773-0.2256,0.5039-0.5034,0.5039H5.3452z M5.8486,19.9705h1.4146v-8.6777
		H5.8486V19.9705z"/>
</g>
</svg>
