<?xml version="1.0" encoding="utf-8"?>
<!--
  - Copyright (c) 2010, 2023 BSI Business Systems Integration AG
  -
  - This program and the accompanying materials are made
  - available under the terms of the Eclipse Public License 2.0
  - which is available at https://www.eclipse.org/legal/epl-2.0/
  -
  - SPDX-License-Identifier: EPL-2.0
  -->

<!-- Generator: Adobe Illustrator 26.0.0, SVG Export Plug-In . SVG Version: 6.00 Build 0)  -->
<svg version="1.1" id="Ebene_1" xmlns="http://www.w3.org/2000/svg" x="0px" y="0px"
     viewBox="0 0 21 24" style="enable-background:new 0 0 21 24;" xml:space="preserve">
<g>
	<path d="M20.78,9.34L10.81,2.1c-0.19-0.14-0.43-0.14-0.62,0L0.22,9.34C0.03,9.47-0.05,9.7,0.03,9.92l3.81,11.71
		C3.91,21.85,4.11,22,4.34,22h12.32c0.23,0,0.43-0.15,0.5-0.37l3.81-11.71C21.04,9.71,20.97,9.47,20.78,9.34z M16.29,20.95H4.72
		L1.15,9.96l9.35-6.79l9.35,6.78L16.29,20.95z"/>
  <path d="M10.2,7.69l-4.65,3.38c-0.19,0.14-0.26,0.37-0.19,0.59l1.77,5.46c0.07,0.22,0.27,0.37,0.5,0.37h5.75
		c0.23,0,0.43-0.15,0.5-0.37l1.77-5.46c0.07-0.22-0.01-0.45-0.19-0.59l-4.65-3.38C10.63,7.55,10.38,7.55,10.2,7.69z M14.54,11.68
		L13,16.42H8l-1.54-4.74l4.04-2.92L14.54,11.68z"/>
</g>
</svg>
