<?xml version="1.0" encoding="utf-8"?>
<!--
  - Copyright (c) 2010, 2023 BSI Business Systems Integration AG
  -
  - This program and the accompanying materials are made
  - available under the terms of the Eclipse Public License 2.0
  - which is available at https://www.eclipse.org/legal/epl-2.0/
  -
  - SPDX-License-Identifier: EPL-2.0
  -->

<!-- Generator: Adobe Illustrator 25.3.1, SVG Export Plug-In . SVG Version: 6.00 Build 0)  -->
<svg version="1.1" id="Layer_1" xmlns="http://www.w3.org/2000/svg" x="0px" y="0px"
     viewBox="0 0 24.0073 24" style="enable-background:new 0 0 24.0073 24;" xml:space="preserve">
<g>
	<path d="M0.5034,23.3982C0.2256,23.3982,0,23.1717,0,22.8943V1.1053c0-0.2778,0.2256-0.5034,0.5034-0.5034
		c0.2773,0,0.5029,0.2256,0.5029,0.5034v21.2861h22.4971c0.2773,0,0.5039,0.2256,0.5039,0.5029s-0.2266,0.5039-0.5039,0.5039H0.5034
		z"/>
  <path d="M16.106,13.2434c-2.7812,0-5.0439-2.2622-5.0439-5.043c0-2.7803,2.2627-5.0425,5.0439-5.0425
		c2.7803,0,5.043,2.2622,5.043,5.0425C21.1489,10.9812,18.8862,13.2434,16.106,13.2434z M16.106,4.1643
		c-2.2256,0-4.0361,1.8105-4.0361,4.0361s1.8105,4.0361,4.0361,4.0361s4.0352-1.8105,4.0352-4.0361S18.3315,4.1643,16.106,4.1643z"
  />
  <path d="M7.7944,17.5467c-1.478,0-2.6802-1.2041-2.6802-2.6841c0-1.4795,1.2021-2.6831,2.6802-2.6831
		c1.48,0,2.6836,1.2036,2.6836,2.6831C10.478,16.3426,9.2744,17.5467,7.7944,17.5467z M7.7944,13.1858
		c-0.9385,0-1.6738,0.7363-1.6738,1.6768c0,0.9399,0.7354,1.6763,1.6738,1.6763c0.9404,0,1.6768-0.7363,1.6768-1.6763
		C9.4712,13.9222,8.7349,13.1858,7.7944,13.1858z"/>
</g>
</svg>
