<?xml version="1.0" encoding="utf-8"?>
<!--
  - Copyright (c) 2010, 2023 BSI Business Systems Integration AG
  -
  - This program and the accompanying materials are made
  - available under the terms of the Eclipse Public License 2.0
  - which is available at https://www.eclipse.org/legal/epl-2.0/
  -
  - SPDX-License-Identifier: EPL-2.0
  -->

<!-- Generator: Adobe Illustrator 25.4.1, SVG Export Plug-In . SVG Version: 6.00 Build 0)  -->
<svg version="1.1" id="Ebene_1" xmlns="http://www.w3.org/2000/svg" x="0px" y="0px"
     viewBox="0 0 23.0004 24" style="enable-background:new 0 0 23.0004 24;" xml:space="preserve">
<path d="M22.6125,4.046c-0.27-0.064-0.538,0.106-0.599,0.375c-0.656,2.859-3.089,10.279-6.439,10.279
	c-1.622,0-2.636-1.184-3.71-2.438c-1.14-1.331-2.319-2.708-4.291-2.708c-3.757,0-7.165,8.739-7.541,9.735
	c-0.098,0.258,0.033,0.547,0.291,0.645c0.058,0.023,0.118,0.033,0.177,0.033c0.202,0,0.392-0.123,0.468-0.323
	c0.955-2.528,4.003-9.088,6.605-9.088c1.512,0,2.493,1.146,3.532,2.358c1.119,1.306,2.387,2.787,4.469,2.787
	c4.825,0,7.31-10.604,7.413-11.055C23.0495,4.375,22.8815,4.107,22.6125,4.046z"/>
</svg>
