<?xml version="1.0" encoding="utf-8"?>
<!-- Generator: Adobe Illustrator 15.1.0, SVG Export Plug-In . SVG Version: 6.00 Build 0)  -->
<!DOCTYPE svg PUBLIC "-//W3C//DTD SVG 1.1//EN" "http://www.w3.org/Graphics/SVG/1.1/DTD/svg11.dtd">
<svg version="1.1" id="Layer_2" xmlns="http://www.w3.org/2000/svg" xmlns:xlink="http://www.w3.org/1999/xlink" x="0px" y="0px"
	 width="97.875px" height="97.875px" viewBox="0 0 97.875 97.875" enable-background="new 0 0 97.875 97.875" xml:space="preserve">
<path d="M48.938,97.875C21.955,97.875,0,75.922,0,48.937C0.001,21.954,21.955,0,48.938,0C75.92,0,97.875,21.954,97.875,48.938
	S75.922,97.875,48.938,97.875 M48.938,7.835c-22.665,0-41.103,18.438-41.103,41.102c0,22.665,18.438,41.104,41.103,41.104
	c22.664,0,41.102-18.439,41.102-41.104C90.04,26.272,71.603,7.835,48.938,7.835 M48.938,54.661c-2.918,0-5.284-2.267-5.284-5.065
	V27.309c0-2.797,2.365-5.065,5.284-5.065c2.918,0,5.282,2.268,5.282,5.065v22.289C54.222,52.395,51.855,54.661,48.938,54.661
	 M48.938,75.632c-1.396,0-2.749-0.56-3.742-1.542c-0.982-0.982-1.542-2.347-1.542-3.74c0-1.396,0.56-2.759,1.542-3.74
	c0.982-0.981,2.346-1.545,3.742-1.545c1.395,0,2.746,0.563,3.738,1.545c0.982,0.992,1.544,2.347,1.544,3.74
	c0,1.396-0.562,2.746-1.544,3.74C51.686,75.073,50.321,75.632,48.938,75.632"/>
</svg>
