<?xml version="1.0" encoding="utf-8"?>
<!-- Generator: Adobe Illustrator 15.1.0, SVG Export Plug-In . SVG Version: 6.00 Build 0)  -->
<!DOCTYPE svg PUBLIC "-//W3C//DTD SVG 1.1//EN" "http://www.w3.org/Graphics/SVG/1.1/DTD/svg11.dtd">
<svg version="1.1" id="Layer_2" xmlns="http://www.w3.org/2000/svg" xmlns:xlink="http://www.w3.org/1999/xlink" x="0px" y="0px"
	 width="97.875px" height="97.875px" viewBox="0 0 97.875 97.875" enable-background="new 0 0 97.875 97.875" xml:space="preserve">
<path d="M48.939,9.506c-21.743,0-39.435,17.688-39.435,39.43c0,21.742,17.692,39.43,39.435,39.43
	c21.739,0,39.433-17.689,39.433-39.43C88.372,27.195,70.679,9.506,48.939,9.506 M48.939,97.872C21.954,97.872,0,75.918,0,48.935
	S21.954,0,48.939,0c26.983,0,48.937,21.952,48.937,48.935S75.922,97.872,48.939,97.872"/>
<polygon points="49.862,59.445 25.2,36.821 31.626,29.817 48.018,44.852 64.311,19.821 72.279,25.008 "/>
</svg>
