<?xml version="1.0" encoding="utf-8"?>
<!-- Generator: Adobe Illustrator 15.1.0, SVG Export Plug-In . SVG Version: 6.00 Build 0)  -->
<!DOCTYPE svg PUBLIC "-//W3C//DTD SVG 1.1//EN" "http://www.w3.org/Graphics/SVG/1.1/DTD/svg11.dtd">
<svg version="1.1" id="Layer_2" xmlns="http://www.w3.org/2000/svg" xmlns:xlink="http://www.w3.org/1999/xlink" x="0px" y="0px"
	 width="97.875px" height="97.875px" viewBox="0 0 97.875 97.875" enable-background="new 0 0 97.875 97.875" xml:space="preserve">
<path fill="#020202" d="M53.254,97.874h-11.79c-3.25,0-5.896-2.646-5.896-5.896v-4.289c-2.118-0.646-4.181-1.465-6.168-2.447
	l-2.838,2.835c-1.11,1.112-2.59,1.726-4.166,1.726c-1.577,0-3.058-0.613-4.171-1.726l-8.334-8.335
	c-2.298-2.297-2.3-6.037-0.002-8.332l2.304-2.305c-1.545-2.674-2.772-5.508-3.67-8.463H5.896C2.645,60.643,0,57.999,0,54.748v-11.79
	c0-3.251,2.645-5.896,5.896-5.896h2.63c0.714-2.36,1.643-4.641,2.772-6.824l-2.441-2.441c-2.3-2.298-2.3-6.039,0-8.337l8.336-8.336
	c1.111-1.112,2.592-1.725,4.168-1.725c1.577,0,3.057,0.613,4.167,1.725l2.212,2.212c2.491-1.38,5.109-2.49,7.829-3.316V5.895
	c0-3.25,2.644-5.895,5.895-5.895h11.791c3.25,0,5.896,2.645,5.896,5.895v4.125c2.96,0.896,5.787,2.125,8.461,3.667l3.152-3.151
	c1.11-1.112,2.592-1.724,4.17-1.724c1.575,0,3.058,0.612,4.167,1.724l8.337,8.336c2.298,2.299,2.298,6.039,0,8.337l-3.69,3.689
	c0.986,1.986,1.805,4.049,2.449,6.166h5.785c3.252,0,5.896,2.645,5.896,5.896v11.791c0,3.249-2.645,5.896-5.896,5.896h-5.785
	c-0.826,2.719-1.938,5.338-3.316,7.826L86.402,72c2.298,2.296,2.298,6.039-0.001,8.337l-8.337,8.333
	c-1.11,1.112-2.593,1.727-4.168,1.727c-1.577,0-3.06-0.613-4.17-1.727l-3.752-3.748c-2.185,1.128-4.466,2.053-6.825,2.771v4.289
	C59.148,95.229,56.504,97.874,53.254,97.874 M42.12,91.322H52.6v-8.74l2.527-0.594c3.439-0.809,6.711-2.133,9.724-3.944l2.192-1.323
	l6.851,6.85l7.41-7.407l-6.732-6.735L76,67.211c2.101-3.268,3.612-6.826,4.494-10.594l0.592-2.525h10.235V43.614H81.086
	l-0.592-2.528c-0.754-3.21-1.973-6.29-3.619-9.154l-1.254-2.174l6.717-6.718l-7.409-7.41l-6.431,6.431l-2.234-1.5
	c-3.396-2.277-7.145-3.907-11.137-4.844L52.6,15.125V6.548H42.118v8.576l-2.528,0.592c-3.761,0.882-7.325,2.394-10.589,4.493
	l-2.22,1.429l-5.42-5.42l-7.41,7.41l5.54,5.539l-1.32,2.195c-1.813,3.01-3.14,6.282-3.946,9.724l-0.593,2.528H6.549v10.478h7.08
	l0.594,2.527c0.935,3.995,2.565,7.74,4.844,11.141l1.499,2.234l-5.581,5.581l7.413,7.409l5.866-5.865l2.173,1.253
	c2.865,1.647,5.945,2.864,9.155,3.619l2.529,0.591L42.12,91.322L42.12,91.322z M47.353,65.457c-8.968,0-16.261-7.294-16.261-16.259
	c0-8.968,7.295-16.262,16.261-16.262s16.263,7.296,16.263,16.262C63.616,58.163,56.318,65.457,47.353,65.457 M47.353,42.502
	c-3.689,0-6.694,3.002-6.694,6.696c0,3.688,3.002,6.69,6.694,6.69c3.692,0,6.694-3.002,6.694-6.69
	C54.047,45.503,51.045,42.502,47.353,42.502"/>
</svg>
