<?xml version="1.0" encoding="utf-8"?>
<!-- Generator: Adobe Illustrator 15.1.0, SVG Export Plug-In . SVG Version: 6.00 Build 0)  -->
<!DOCTYPE svg PUBLIC "-//W3C//DTD SVG 1.1//EN" "http://www.w3.org/Graphics/SVG/1.1/DTD/svg11.dtd">
<svg version="1.1" id="Layer_2" xmlns="http://www.w3.org/2000/svg" xmlns:xlink="http://www.w3.org/1999/xlink" x="0px" y="0px"
	 width="97.875px" height="97.875px" viewBox="0 0 97.875 97.875" enable-background="new 0 0 97.875 97.875" xml:space="preserve">
<path id="Share" d="M82.115,36.53v60.959H15.76V36.53h22.55v5.826H21.587v49.306h54.595V42.356H61.184V36.53H82.115z M32.916,22.827
	L46.833,8.909V58.54c0,1.509,1.295,2.805,2.806,2.805c1.51,0,2.805-1.296,2.805-2.805V8.909l13.92,13.918
	c0.863,0.862,2.373,0.862,3.344,0c0.863-0.863,0.863-2.374,0-3.345L51.148,1.033c-0.861-0.863-2.157-0.863-2.912,0L29.57,19.591
	c-0.863,0.862-0.863,2.373,0,3.345C30.542,23.799,32.053,23.799,32.916,22.827z"/>
</svg>
