<?xml version="1.0" encoding="UTF-8"?>
<!DOCTYPE svg PUBLIC "-//W3C//DTD SVG 1.1//EN" "http://www.w3.org/Graphics/SVG/1.1/DTD/svg11.dtd">
<svg xmlns="http://www.w3.org/2000/svg" xml:space="preserve" width="1.55555in" height="1.55555in" version="1.1"
     style="shape-rendering:geometricPrecision; text-rendering:geometricPrecision; image-rendering:optimizeQuality; fill-rule:evenodd; clip-rule:evenodd"
     viewBox="0 0 1556 1556">
 <defs>
  <style type="text/css">
   <![CDATA[
    .fil1 {fill:#2E88A2;fill-rule:nonzero}
    .fil0 {fill:#F89B40;fill-rule:nonzero}
   ]]>
  </style>
 </defs>
  <g id="Layer_x0020_1">
    <path class="fil0"
          d="M1565 69c0,-43 -35,-78 -78,-78l-1408 0c-43,0 -78,35 -78,78l0 220c0,28 28,48 68,20 120,-84 277,-124 466,-124 178,0 326,42 439,128 88,67 146,157 172,264 2,10 4,20 4,32 0,21 -4,46 -22,70 -17,24 -50,40 -86,39l-249 0c-39,0 -72,-12 -96,-29 -24,-17 -39,-38 -53,-53 -30,-32 -44,-51 -114,-53 -45,0 -74,9 -88,21 -14,11 -21,25 -22,56 1,29 10,46 48,68 29,12 95,32 192,56 181,43 315,96 402,166 95,76 144,185 143,313 0,94 -23,180 -69,255 -8,8 -5,38 26,38l327 0c43,0 78,-35 78,-78l0 -1408zm-1003 1183c-82,-21 -164,-42 -247,-62 -116,-32 -215,-75 -292,-130 -1,-1 -2,-1 -3,-2 -7,-5 -20,-9 -20,15l0 163c0,11 7,17 14,17 60,0 135,0 181,0 38,0 70,15 92,33 23,18 39,39 56,56 35,34 65,62 156,63 51,0 84,-10 100,-23 16,-13 24,-28 25,-62 0,-17 -4,-27 -13,-37 -9,-10 -25,-21 -50,-31z"/>
    <path class="fil1"
          d="M980 1556c13,0 25,-8 29,-13 75,-78 110,-169 111,-280 -1,-108 -37,-185 -111,-247 -70,-57 -193,-109 -369,-150 -102,-26 -170,-45 -209,-62l-1 -1 -1 -1c-57,-29 -95,-82 -94,-144 -1,-48 17,-95 54,-123 37,-29 84,-39 140,-39 70,-1 120,24 151,54 31,30 48,57 66,68 12,8 23,13 47,13l249 0c17,-1 17,-4 19,-5 2,-2 5,-10 4,-19 0,-5 -1,-9 -1,-12 -22,-89 -68,-160 -142,-216 -94,-72 -222,-111 -387,-111 -191,0 -335,43 -440,126 -33,27 -63,55 -88,85 -6,7 -7,13 -7,20l0 409c0,5 0,16 8,23 6,7 9,10 16,17 69,66 176,119 313,157 83,20 166,41 249,63l2 0 2 1c36,13 66,30 88,56 22,26 34,59 34,93 1,51 -19,100 -59,130 -39,30 -90,40 -151,41 -84,1 -142,-25 -182,-57 -40,-32 -63,-66 -82,-80 -13,-10 -21,-14 -39,-14 -44,0 -137,0 -154,0 -32,0 -43,18 -43,43 0,12 0,96 0,96 0,43 37,78 81,78l899 0z"/>
 </g>
</svg>
